<?xml version="1.0" standalone="no"?>
<!DOCTYPE svg PUBLIC "-//W3C//DTD SVG 1.1//EN" "http://www.w3.org/Graphics/SVG/1.1/DTD/svg11.dtd" >
<svg xmlns="http://www.w3.org/2000/svg">
<metadata></metadata>
<defs>
<font id="helen_bgbold" horiz-adv-x="1018" >
<font-face units-per-em="2048" ascent="1638" descent="-410" />
<missing-glyph horiz-adv-x="535" />
<glyph unicode="&#xd;" horiz-adv-x="1024" />
<glyph unicode=" "  horiz-adv-x="535" />
<glyph unicode="&#x09;" horiz-adv-x="535" />
<glyph unicode="&#xa0;" horiz-adv-x="535" />
<glyph unicode="!" horiz-adv-x="623" d="M438 0v266h-276v-266h276zM387 371l47 940h-270l49 -940h174z" />
<glyph unicode="&#x22;" horiz-adv-x="852" d="M524 1311l47 -527h131l52 527h-230zM100 1311l47 -527h134l49 527h-230z" />
<glyph unicode="#" horiz-adv-x="1071" d="M391 565l29 207h209l-33 -207h-205zM776 772h205v146h-182l57 393h-149l-56 -393h-209l58 393h-144l-55 -393h-225v-146h200l-30 -207h-223v-145h198l-63 -420h143l70 420h204l-63 -420h152l63 420h203v145h-182z" />
<glyph unicode="$" horiz-adv-x="1042" d="M700 360q0 -139 -139 -157v313q139 -40 139 -156zM451 799q-138 47 -138 145q0 114 138 141v-286zM53 420q6 -100 30.5 -174t72 -125t120 -80t175.5 -41v-195h110v195q387 47 387 373q0 90 -25.5 151.5t-74.5 105t-121 74.5t-166 62v315q36 -7 60 -22.5t39 -38t22.5 -52 t9.5 -65.5h238q-3 174 -98.5 271t-270.5 112v152h-110v-152q-371 -50 -371 -366q0 -84 29 -143t79 -100.5t117.5 -69.5t145.5 -50v-354q-47 15 -75 30.5t-44.5 39t-24 58.5t-12.5 89h-242z" />
<glyph unicode="%" horiz-adv-x="1518" d="M1178 537q31 0 49 -17.5t27.5 -48t12.5 -71.5t3 -87q0 -223 -88 -223q-30 0 -48 14t-28 41t-13 67t-3 93q0 46 2.5 88t11.5 74t26.5 51t47.5 19zM1174 -25q237 0 237 355q0 317 -229 317q-238 0 -238 -342q0 -330 230 -330zM524 0l672 1286h-125l-674 -1286h127z M420 1196q30 0 47.5 -17.5t26.5 -47t11.5 -69t2.5 -83.5q0 -229 -88 -229q-34 0 -52.5 19t-27.5 50t-10.5 70t-1.5 78q0 48 2 90t11 73t27.5 48.5t51.5 17.5zM412 639q239 0 239 352q0 320 -231 320q-236 0 -236 -340q0 -332 228 -332z" />
<glyph unicode="&#x26;" horiz-adv-x="1272" d="M494 1004q0 46 29 73t77 27q53 0 77.5 -25.5t24.5 -74.5q0 -33 -9 -55t-25.5 -39.5t-39.5 -32.5t-50 -35q-44 51 -64 91t-20 71zM748 279q-103 -91 -205 -91q-40 0 -73.5 13.5t-58 37.5t-38 56.5t-13.5 69.5q0 35 10.5 62t30 51t47.5 45.5t62 45.5zM111 346 q0 -89 31 -159t86 -118.5t130 -74t162 -25.5q56 0 103.5 12t91 31.5t84 46t80.5 54.5l92 -113h301l-238 291q59 80 95 176.5t49 214.5h-224q-12 -72 -26 -126.5t-33 -94.5l-188 229q211 144 211 324q0 70 -25.5 124t-70 91t-103.5 56.5t-127 19.5q-70 0 -130.5 -20 t-105.5 -59t-70.5 -96t-25.5 -131q0 -46 9 -81.5t25 -67t38.5 -61t48.5 -62.5q-53 -33 -101.5 -71t-86 -83.5t-60 -101.5t-22.5 -125z" />
<glyph unicode="'" horiz-adv-x="418" d="M86 1309l45 -527h135l49 527h-229z" />
<glyph unicode="(" horiz-adv-x="694" d="M84 459q0 -233 86 -453q35 -88 93 -187.5t138 -211.5h199q-130 213 -195 424t-65 428q1 118 17 224.5t48 209t80.5 205t114.5 213.5h-199q-74 -109 -133 -208.5t-100 -200.5t-62.5 -209t-21.5 -234z" />
<glyph unicode=")" horiz-adv-x="674" d="M516 459q-1 128 -22 236t-60.5 208.5t-98 199.5t-136.5 208h-199q130 -214 195 -426t65 -426q0 -124 -14.5 -228.5t-46 -203.5t-81 -200t-118.5 -220h199q74 108 133 207.5t100 201.5t62.5 210.5t21.5 232.5z" />
<glyph unicode="*" horiz-adv-x="725" d="M35 1024l176 -66l-107 -143l134 -96l110 151l115 -151l133 96l-107 143l175 66l-52 158l-176 -58v187h-170v-187l-176 58z" />
<glyph unicode="+" horiz-adv-x="1047" d="M436 207h178v336h344v180h-344v330h-178v-330h-346v-180h346v-336z" />
<glyph unicode="," horiz-adv-x="516" d="M264 0q0 -45 -8 -78.5t-25 -56.5q-34 -44 -114 -70v-100q69 9 120 35.5t89 74.5q32 45 47.5 103t15.5 127v235h-272v-270h147z" />
<glyph unicode="-" horiz-adv-x="614" d="M553 389v215h-508v-215h508z" />
<glyph unicode="." horiz-adv-x="614" d="M436 0v266h-270v-266h270z" />
<glyph unicode="/" horiz-adv-x="596" d="M129 -371l371 1682h-156l-369 -1682h154z" />
<glyph unicode="0" d="M504 195q-62 0 -99 30.5t-56.5 87t-25.5 137t-6 181.5q0 106 5.5 191.5t25.5 146t58 93t102 32.5q44 0 74 -20.5t49.5 -54.5t30.5 -79.5t15.5 -95t5.5 -100.5t1 -97q0 -115 -7.5 -200t-27.5 -141t-55 -83.5t-90 -27.5zM496 -25q448 0 448 709q0 627 -436 627 q-116 0 -201 -40.5t-140.5 -124.5t-82.5 -212t-27 -303q0 -656 439 -656z" />
<glyph unicode="1" d="M438 883v-883h254v1286h-196q-17 -71 -46.5 -118t-74.5 -68q-64 -34 -228 -37v-180h291z" />
<glyph unicode="2" d="M913 221h-546q32 44 87 94t136 107q83 62 139 109t84 81q54 66 79.5 133.5t25.5 149.5q0 100 -32 177.5t-89.5 130.5t-136 80.5t-171.5 27.5q-109 0 -188.5 -33t-131.5 -94.5t-77.5 -149t-25.5 -196.5h243q3 68 14.5 116.5t34 79.5t56 45.5t80.5 14.5q159 0 159 -189 q0 -69 -37.5 -137.5t-117.5 -136.5l-291 -244q-79 -87 -118.5 -182.5t-39.5 -204.5h864v221z" />
<glyph unicode="3" d="M53 410q2 -56 5.5 -96t11.5 -66q43 -133 148.5 -203t270.5 -70q100 0 181.5 30t139 85t89 132.5t31.5 172.5q0 197 -182 297q72 51 107.5 116.5t35.5 143.5q0 91 -31 158.5t-85 112t-127.5 66.5t-158.5 22q-103 0 -179.5 -30.5t-128.5 -86t-79 -134t-30 -173.5h233 q5 46 14.5 84t28.5 65.5t50.5 42.5t82.5 15q75 0 118.5 -42.5t43.5 -113.5q0 -50 -14 -83.5t-45 -53.5q-55 -40 -199 -43v-187q165 -3 223 -43q29 -18 44.5 -55t15.5 -88q0 -41 -12.5 -75.5t-35.5 -60t-56 -40t-75 -14.5q-90 0 -135 50t-57 165h-244z" />
<glyph unicode="4" d="M608 494h-370l370 534v-534zM608 276v-276h256v276h129v218h-129v792h-321l-504 -733v-277h569z" />
<glyph unicode="5" d="M57 348q26 -183 131 -278t301 -95q107 0 191 35.5t142.5 98t89 149t30.5 188.5q0 89 -26 164.5t-76 131t-122.5 87t-164.5 31.5q-65 0 -122.5 -19t-108.5 -55l45 273h524v221h-701l-94 -709l226 -10q37 42 80.5 62t91.5 20q186 0 186 -231q0 -103 -50 -160t-136 -57 q-145 0 -189 165z" />
<glyph unicode="6" d="M504 635q85 0 132.5 -57.5t47.5 -157.5q0 -225 -180 -225q-87 0 -137 60t-50 165q0 103 49.5 159t137.5 56zM520 1094q56 0 91.5 -31.5t52.5 -91.5h249q-62 340 -385 340q-471 0 -471 -715q0 -621 453 -621q104 0 184.5 35t136 97t84.5 146.5t29 184.5q0 88 -25 164 t-74 132.5t-120.5 89t-163.5 32.5q-72 0 -136.5 -29.5t-123.5 -85.5q5 69 17 132.5t37 112.5t65 78.5t100 29.5z" />
<glyph unicode="7" d="M702 1057q-280 -355 -380 -680q-52 -159 -70 -377h260q29 312 145.5 580.5t321.5 492.5v207h-907v-223h630z" />
<glyph unicode="8" d="M504 1094q69 0 111 -43t42 -117q0 -69 -42 -111.5t-111 -42.5q-35 0 -64.5 11.5t-50.5 32.5t-33 50t-12 64q0 34 12 62.5t33.5 49.5t51 32.5t63.5 11.5zM500 575q85 0 134.5 -52t49.5 -142q0 -39 -14 -73t-38.5 -59t-58 -39.5t-73.5 -14.5q-84 0 -131 52t-47 142 q0 87 47 136.5t131 49.5zM57 377q0 -97 34 -172t93.5 -126t139.5 -77.5t172 -26.5q95 0 176.5 28.5t141.5 81.5t94 129t34 171q0 113 -51.5 189.5t-153.5 121.5q168 80 168 262q0 85 -30.5 150.5t-84 110.5t-127 68.5t-159.5 23.5q-88 0 -163 -24t-129.5 -71t-85 -115 t-30.5 -157q0 -186 166 -248q-205 -100 -205 -319z" />
<glyph unicode="9" d="M500 653q-42 0 -75.5 15.5t-57.5 44t-37 68.5t-13 89q0 106 47.5 165t131.5 59q89 0 138.5 -61t49.5 -167q0 -100 -48 -156.5t-136 -56.5zM477 195q-101 0 -143 122h-244q53 -342 381 -342q473 0 473 715q0 80 -9.5 157t-30.5 146t-55.5 127.5t-85.5 100.5t-118.5 66 t-155.5 24q-100 0 -180 -33.5t-136 -94t-86 -145t-30 -186.5q0 -91 25 -167t74 -131.5t121 -86.5t165 -31q66 0 131 27t127 84q-7 -61 -17.5 -123.5t-34 -113.5t-64 -83t-107.5 -32z" />
<glyph unicode=":" horiz-adv-x="633" d="M436 692v266h-270v-266h270zM436 0v266h-270v-266h270z" />
<glyph unicode=";" horiz-adv-x="623" d="M315 0q0 -44 -8 -77t-26 -57t-46 -41.5t-69 -29.5v-100q69 9 120.5 35.5t86.5 74.5q63 92 63 230v235h-270v-270h149zM436 692v266h-270v-266h270z" />
<glyph unicode="&#x3c;" horiz-adv-x="1139" d="M266 629l692 299v139l-868 -387v-98l868 -387v139z" />
<glyph unicode="=" horiz-adv-x="1073" d="M958 571h-868v-165h868v165zM958 860h-868v-168h868v168z" />
<glyph unicode="&#x3e;" horiz-adv-x="1081" d="M786 629l-696 -295v-139l873 387v98l-873 387v-139z" />
<glyph unicode="?" horiz-adv-x="1116" d="M672 0v266h-275v-266h275zM981 952q0 96 -35 168t-95.5 120.5t-142.5 72.5t-176 24q-216 0 -326 -112t-116 -320h254q5 56 17.5 96t35 65.5t56 37.5t79.5 12q78 0 123 -44t45 -120q0 -38 -9 -71.5t-34 -59.5q-27 -28 -58 -52t-61 -49t-55.5 -54t-42.5 -68 q-28 -64 -28 -203h241q3 121 90 205l154 131q84 84 84 221z" />
<glyph unicode="@" horiz-adv-x="1708" d="M715 618q0 40 14.5 75t38.5 61.5t56 41.5t67 15q32 0 58 -11t45 -30.5t29.5 -47t10.5 -60.5q0 -41 -13.5 -76.5t-37.5 -62t-56.5 -41.5t-70.5 -15q-31 0 -57 11t-45 31t-29 47.5t-10 61.5zM928 111q-128 1 -233 41t-179.5 112t-115 172t-40.5 221q0 117 39 216.5t110 172 t171.5 113.5t224.5 41q107 0 198 -33t158 -94t104.5 -148.5t37.5 -195.5q0 -50 -14.5 -108t-40 -108t-61.5 -83t-79 -33q-18 0 -24 8.5t-6 20.5q0 11 2.5 24t5.5 27l86 512h-168l-19 -94q-73 98 -213 98q-84 0 -152 -34t-116 -90.5t-74 -130t-26 -152.5q0 -64 18.5 -121 t54.5 -100t89.5 -68.5t124.5 -26.5q111 0 188 86q0 -94 102 -94q37 0 81 15t87.5 39t82 52.5t63.5 55.5q131 140 131 352q0 127 -52 230.5t-138 177t-197 113.5t-230 40q-149 0 -274 -53t-215 -145.5t-140.5 -217t-50.5 -268.5q0 -146 53 -270t145.5 -215t217 -142 t268.5 -51q91 0 165.5 18.5t138.5 55t120.5 89.5t110.5 122h-164q-168 -149 -356 -149z" />
<glyph unicode="A" horiz-adv-x="1233" d="M614 1010l166 -514h-329zM373 276h479l90 -276h291l-461 1311h-305l-467 -1311h285z" />
<glyph unicode="B" horiz-adv-x="1262" d="M391 1073h277q110 0 157 -32.5t47 -106.5q0 -42 -12 -69.5t-37.5 -44t-65 -23t-95.5 -6.5h-271v282zM391 571h266q59 0 107.5 -5t82.5 -23t52.5 -52.5t18.5 -93.5q0 -57 -20 -88.5t-55.5 -47.5t-84 -19.5t-105.5 -3.5h-262v333zM123 0h620q451 0 451 389q0 63 -19 118.5 t-55 97t-88.5 66.5t-120.5 27q50 9 93.5 35.5t76 64t51.5 82.5t19 91q0 171 -131 268q-94 72 -328 72h-569v-1311z" />
<glyph unicode="C" horiz-adv-x="1309" d="M680 1337q-151 0 -265 -53.5t-190.5 -146.5t-114.5 -219t-38 -271q0 -144 37 -267t112 -213t187.5 -141t263.5 -51q114 0 207.5 33.5t164.5 96t117.5 152t65.5 202.5h-273q-68 -248 -278 -248q-86 0 -147.5 35.5t-100.5 95.5t-57.5 139t-18.5 166q0 217 87.5 335 t250.5 118q210 0 264 -223h273q-12 113 -58.5 199t-119 144t-167 87.5t-202.5 29.5z" />
<glyph unicode="D" horiz-adv-x="1303" d="M123 0v1311h506q106 0 186 -14t137 -40q77 -37 129.5 -99.5t85 -140.5t46.5 -165t14 -172q0 -94 -16.5 -189t-53 -180t-95 -153.5t-142.5 -108.5q-104 -49 -308 -49h-489zM391 1073v-835h213q79 0 142.5 17.5t108.5 64.5t69 131t24 217q0 96 -15 171.5t-53.5 127t-105 79 t-170.5 27.5h-213z" />
<glyph unicode="E" horiz-adv-x="1145" d="M1094 0v238h-703v333h615v224h-615v278h672v238h-940v-1311h971z" />
<glyph unicode="F" horiz-adv-x="1085" d="M391 0v557h567v219h-567v297h651v238h-919v-1311h268z" />
<glyph unicode="G" horiz-adv-x="1397" d="M737 485h295q-29 -137 -107.5 -205.5t-209.5 -68.5q-93 1 -161.5 36.5t-113 96t-66.5 140.5t-22 169q0 92 21.5 173t66.5 142t114.5 96.5t164.5 35.5q212 0 282 -205h279q-13 105 -59 187t-119.5 138.5t-171.5 86.5t-215 30q-151 0 -270.5 -53t-202.5 -145.5 t-126.5 -218.5t-43.5 -273q0 -137 39.5 -259.5t116 -214t188.5 -145t256 -53.5q241 0 395 189l27 -164h186v707h-543v-222z" />
<glyph unicode="H" horiz-adv-x="1313" d="M391 569h551v-569h268v1311h-268v-508h-551v508h-268v-1311h268v569z" />
<glyph unicode="I" horiz-adv-x="502" d="M387 0v1311h-270v-1311h270z" />
<glyph unicode="J" horiz-adv-x="1016" d="M57 442v52h256v-66q0 -217 142 -217q57 0 88.5 20.5t46.5 57.5t18.5 89t3.5 116v817h267v-768q0 -82 -5 -156.5t-19.5 -137.5t-42 -113.5t-72 -86.5t-109 -55t-154.5 -19q-119 0 -199.5 29t-129.5 87.5t-70 146t-21 204.5z" />
<glyph unicode="K" horiz-adv-x="1315" d="M391 0v442l129 129l432 -571h344l-569 768l539 543h-342l-533 -563v563h-268v-1311h268z" />
<glyph unicode="L" horiz-adv-x="1057" d="M1028 0v238h-637v1073h-268v-1311h905z" />
<glyph unicode="M" horiz-adv-x="1669" d="M391 1100l311 -1100h265l313 1100v-1100h268v1311h-426l-223 -752q-43 -143 -61 -250q-20 96 -35 158t-25 94l-219 750h-436v-1311h268v1100z" />
<glyph unicode="N" horiz-adv-x="1286" d="M377 913l547 -913h254v1311h-254v-914l-535 914h-266v-1311h254v913z" />
<glyph unicode="O" horiz-adv-x="1399" d="M348 672q0 90 22 167.5t66.5 135.5t110.5 91t153 34q86 0 152 -33.5t110 -92t66.5 -137.5t22.5 -169q0 -87 -21 -169.5t-64.5 -146t-110.5 -102.5t-159 -39q-95 0 -161.5 39.5t-108 104t-60 147.5t-18.5 170zM702 -25q152 1 268 57t195 152t119.5 223t40.5 269 q0 147 -43 268.5t-123 208.5t-195.5 135.5t-261.5 48.5q-152 0 -269.5 -52.5t-197.5 -144.5t-121.5 -217.5t-41.5 -271.5q0 -144 43.5 -267.5t125.5 -214t198.5 -142.5t262.5 -52z" />
<glyph unicode="P" horiz-adv-x="1178" d="M391 1073h213q230 0 230 -203q0 -190 -234 -190h-209v393zM123 0h268v442h260q98 0 182.5 30.5t146.5 88.5t97 140.5t35 187.5q0 123 -36.5 204.5t-98.5 129.5t-143.5 68t-171.5 20h-539v-1311z" />
<glyph unicode="Q" horiz-adv-x="1423" d="M700 1337q-152 0 -269 -52.5t-197 -145t-121 -217.5t-41 -269t42 -267.5t122.5 -215t198 -143.5t267.5 -52q196 0 332 91l152 -152l143 152l-143 141q71 93 105 209.5t34 259.5q0 147 -44.5 269t-126.5 209t-197.5 135t-256.5 48zM860 508l-133 -146l121 -116 q-32 -19 -70 -27t-82 -8q-90 0 -156 35t-108.5 95t-63 140t-20.5 170q0 91 20.5 172.5t63.5 143t109.5 97.5t158.5 36q91 0 157 -35t109 -94.5t64 -137.5t21 -165q0 -158 -62 -279z" />
<glyph unicode="R" horiz-adv-x="1255" d="M391 1073h256q59 0 104 -4.5t76.5 -21t47.5 -49.5t16 -89q0 -57 -16.5 -90t-48 -50.5t-77 -22.5t-102.5 -5h-256v332zM391 0v516h248q84 0 133 -18.5t68 -59.5q9 -17 14 -74.5t10 -154.5q3 -66 8.5 -117.5t22.5 -91.5h299q-59 50 -59 262q0 121 -12.5 192t-37.5 103 q-21 26 -49 45.5t-65 30.5q198 88 198 301q0 201 -137 301q-35 26 -69.5 41.5t-73.5 23t-86 9.5t-107 2h-573v-1311h268z" />
<glyph unicode="S" horiz-adv-x="1202" d="M72 410q6 -115 48 -197t113 -135t168 -78t213 -25q104 0 197 26t163.5 77t112 128t41.5 179q0 69 -17.5 119.5t-52 88.5t-84 66t-114.5 52l-409 155q-91 34 -91 101q0 41 20.5 69t52.5 46t71.5 26t77.5 8q105 0 165.5 -49.5t77.5 -153.5h265q-13 206 -143 315t-369 109 q-98 0 -185.5 -25t-153.5 -75.5t-104.5 -125t-38.5 -173.5q0 -113 64 -193t192 -131l396 -155q112 -44 112 -111q-4 -44 -25.5 -73.5t-55 -47t-75.5 -25t-86 -7.5q-243 0 -288 215h-258z" />
<glyph unicode="T" horiz-adv-x="1098" d="M416 1073v-1073h272v1073h385v238h-1046v-238h389z" />
<glyph unicode="U" horiz-adv-x="1303" d="M909 1311v-803q0 -74 -11.5 -129.5t-41 -93t-80.5 -56t-129 -18.5q-75 0 -124.5 18.5t-79 56t-41 93t-11.5 129.5v803h-268v-807q0 -139 32.5 -239t99.5 -164.5t169 -95t240 -30.5q142 0 240 36.5t159 105t88 166.5t27 221v807h-269z" />
<glyph unicode="V" horiz-adv-x="1200" d="M719 0l455 1311h-275l-235 -744q-26 -83 -39.5 -144t-24.5 -101q-15 61 -30 124t-33 123l-224 742h-286l436 -1311h256z" />
<glyph unicode="W" horiz-adv-x="1710" d="M651 0l152 748q9 48 17.5 109.5t21.5 139.5q14 -83 22.5 -144.5t18.5 -104.5l151 -748h266l375 1311h-270l-178 -740q-20 -83 -32 -144t-21 -103q-11 91 -20 152t-15 95l-138 740h-309l-135 -729q-15 -82 -24 -143t-17 -103q-14 83 -24.5 143.5t-16.5 102.5l-170 729 h-278l364 -1311h260z" />
<glyph unicode="X" horiz-adv-x="1194" d="M596 475l264 -475h314l-431 676l404 635h-303l-248 -434l-248 434h-309l403 -647l-415 -664h297z" />
<glyph unicode="Y" horiz-adv-x="1206" d="M471 0h270v494l433 817h-291l-271 -563l-284 563h-301l444 -817v-494z" />
<glyph unicode="Z" horiz-adv-x="1114" d="M1042 0v238h-661l661 852v221h-966v-238h643l-662 -852v-221h985z" />
<glyph unicode="[" horiz-adv-x="682" d="M559 -371v224h-176v1237h176v221h-432v-1682h432z" />
<glyph unicode="\" horiz-adv-x="561" d="M371 -371h153l-366 1682h-154z" />
<glyph unicode="]" horiz-adv-x="631" d="M43 1311v-221h176v-1237h-176v-224h432v1682h-432z" />
<glyph unicode="^" horiz-adv-x="1020" d="M682 913h111l-213 402h-105l-215 -402h113l153 273z" />
<glyph unicode="_" horiz-adv-x="997" d="M997 -297v139h-997v-139h997z" />
<glyph unicode="`" horiz-adv-x="582" d="M319 1100h177l-121 264h-266z" />
<glyph unicode="a" horiz-adv-x="1028" d="M651 451v-60q0 -215 -213 -215q-59 0 -96 29.5t-37 79.5q0 102 162 131zM317 651q16 137 166 137q50 0 82 -9.5t50 -30.5t25 -55.5t7 -84.5q-91 -8 -176 -19.5t-166 -27.5q-256 -53 -256 -299q0 -64 20.5 -116.5t58 -90.5t90 -59t116.5 -21q57 0 99 8t77.5 26.5t68.5 48 t72 71.5q2 -35 12.5 -68t28.5 -61h260q-23 26 -35 62.5t-12 84.5v482q0 105 -28 174t-81.5 109.5t-132 56.5t-180.5 16q-84 0 -156 -20t-126 -61t-86 -104t-35 -149h237z" />
<glyph unicode="b" horiz-adv-x="1133" d="M784 481q0 -286 -198 -286q-201 0 -201 286q0 285 201 285q198 0 198 -285zM377 0v164q54 -94 122 -141.5t154 -47.5q101 0 174.5 43.5t121 116t70.5 166.5t23 195q0 95 -21.5 183t-67 156t-116.5 109t-169 41q-169 0 -291 -174v500h-254v-1311h254z" />
<glyph unicode="c" horiz-adv-x="1006" d="M508 985q-114 0 -198.5 -38.5t-140.5 -106.5t-84 -161t-28 -202q0 -111 27 -203.5t82.5 -159t140.5 -103t201 -36.5q189 0 298 94.5t138 286.5h-254q-39 -180 -174 -180q-199 0 -199 301q0 147 52 227t151 80q134 0 170 -166h254q-8 89 -41.5 157.5t-89.5 115t-133 70.5 t-172 24z" />
<glyph unicode="d" horiz-adv-x="1094" d="M516 766q55 -1 93 -26t61.5 -64.5t34 -89t10.5 -101.5q0 -67 -14 -121t-39.5 -91.5t-62.5 -57.5t-83 -20q-55 0 -93 25t-61.5 65t-34 90.5t-10.5 101.5q0 52 10 103.5t33.5 93t61.5 67t94 25.5zM455 985q-98 0 -172.5 -41t-124.5 -111t-75.5 -162.5t-25.5 -195.5 q0 -97 23.5 -187t72 -159.5t121.5 -111.5t172 -42q97 0 166 48.5t111 144.5v-168h256v1311h-256v-492q-24 39 -50 70t-57.5 52.5t-70.5 32.5t-90 11z" />
<glyph unicode="e" horiz-adv-x="1006" d="M662 281q-17 -56 -56.5 -85.5t-101.5 -29.5q-48 0 -82 19t-56.5 51.5t-33 75.5t-10.5 91v29h620q2 11 2 22v23q0 249 -113 378.5t-327 129.5q-114 0 -198.5 -38t-139.5 -106t-82 -161.5t-27 -204.5q0 -109 27 -201t82.5 -158.5t139.5 -103.5t198 -37q85 0 154 16.5 t121.5 52.5t89 94.5t55.5 142.5h-262zM322 596q18 188 178 188q158 0 176 -188h-354z" />
<glyph unicode="f" horiz-adv-x="616" d="M162 776v-776h254v776h159v182h-159v60q0 30 9 48t24.5 27t37 12t45.5 3h39v203q-40 5 -69 6.5t-49 1.5q-93 0 -152 -22.5t-90 -67.5q-25 -38 -37 -104.5t-12 -166.5h-135v-182h135z" />
<glyph unicode="g" horiz-adv-x="1110" d="M512 766q203 0 203 -277q0 -278 -199 -278q-96 0 -147.5 72t-51.5 202q0 281 195 281zM508 -393q109 0 186.5 20t129.5 55.5t83 85t47 109t20.5 126.5t4.5 138v817h-256v-143q-98 170 -277 170q-68 0 -123.5 -20t-99 -55t-75 -83.5t-51.5 -106t-30 -122t-10 -131.5 q0 -91 25 -176t74.5 -151t122 -106t167.5 -40q188 0 277 164v-39q0 -61 -5.5 -118t-27 -100.5t-64.5 -69.5t-118 -26q-121 0 -156 93h-272q43 -291 428 -291z" />
<glyph unicode="h" horiz-adv-x="1094" d="M397 0v410q0 85 7 151.5t28 112t60.5 69t103.5 23.5q158 0 158 -197v-569h256v614q0 78 -16.5 146t-54 118t-99 78.5t-152.5 28.5q-53 0 -91.5 -9.5t-71 -28.5t-62.5 -47t-66 -66v477h-252v-1311h252z" />
<glyph unicode="i" horiz-adv-x="512" d="M379 1073v238h-256v-238h256zM379 0v958h-256v-958h256z" />
<glyph unicode="j" horiz-adv-x="475" d="M397 1073v238h-252v-238h252zM31 -389q32 -3 57.5 -3.5t40.5 -0.5q127 0 192.5 56t73.5 161q2 17 2 55v96v983h-252v-1044q0 -21 -2.5 -40t-10.5 -33.5t-22 -22.5t-38 -8q-10 0 -20 1t-21 3v-203z" />
<glyph unicode="k" horiz-adv-x="1034" d="M377 0v309l104 111l211 -420h305l-358 586l358 372h-305l-315 -372v725h-254v-1311h254z" />
<glyph unicode="l" horiz-adv-x="496" d="M379 0v1311h-256v-1311h256z" />
<glyph unicode="m" horiz-adv-x="1563" d="M377 0v500q0 71 9 121.5t28.5 82.5t50.5 47t74 15q72 0 102.5 -45t30.5 -150v-571h254v492q0 75 8.5 127t27.5 85t49.5 47.5t73.5 14.5q73 0 104.5 -48.5t31.5 -156.5v-561h254v625q0 173 -77.5 265.5t-226.5 92.5q-43 0 -80 -9t-70.5 -28.5t-65.5 -50.5t-64 -76 q-64 164 -248 164q-42 0 -76.5 -8.5t-66 -27.5t-61.5 -49t-62 -73v133h-254v-958h254z" />
<glyph unicode="n" horiz-adv-x="1071" d="M377 0v489q0 277 201 277q78 0 116.5 -48.5t38.5 -142.5v-575h256v596q0 136 -26 207q-15 43 -46 77t-71.5 57t-87 35.5t-90.5 12.5q-53 0 -95 -11.5t-76 -33.5t-63 -53.5t-57 -71.5v143h-254v-958h254z" />
<glyph unicode="o" horiz-adv-x="1100" d="M551 784q59 0 103 -25t73 -67.5t43 -98t14 -116.5q0 -57 -13.5 -111.5t-41.5 -96.5t-72 -67.5t-106 -25.5q-64 0 -108.5 25.5t-72.5 68t-40.5 97.5t-12.5 114q0 61 13 116t41.5 96.5t73 66t106.5 24.5zM551 -25q116 0 207 36.5t154 103t96.5 159t33.5 203.5 q0 114 -34 207.5t-97.5 160t-154.5 103.5t-205 37q-118 0 -210 -36.5t-155 -102.5t-96 -159t-33 -206q0 -116 33.5 -209.5t97 -159.5t155 -101.5t208.5 -35.5z" />
<glyph unicode="p" horiz-adv-x="1116" d="M578 766q99 0 152.5 -76t53.5 -213q0 -134 -53.5 -208t-152.5 -74q-207 0 -207 282q0 289 207 289zM377 -371v508q29 -42 57 -72.5t59.5 -50.5t69 -29.5t84.5 -9.5q105 0 179.5 42t122.5 112.5t70.5 163t22.5 192.5q0 97 -20.5 187t-65.5 159.5t-116 111.5t-172 42 q-161 0 -291 -156v129h-254v-1329h254z" />
<glyph unicode="q" horiz-adv-x="1102" d="M520 766q203 0 203 -289q0 -282 -203 -282t-203 282q0 289 203 289zM979 958h-256v-143q-98 170 -270 170q-104 0 -179 -44t-123 -116.5t-71 -166.5t-23 -195q0 -97 24 -185.5t72.5 -155.5t123 -106.5t176.5 -40.5q85 0 151 36.5t119 107.5v-490h256v1329z" />
<glyph unicode="r" horiz-adv-x="664" d="M324 0v485q0 121 53.5 181.5t165.5 60.5q6 0 17 -0.5t23 -1l24 -1t20 -1.5v258q-17 2 -32.5 3t-25.5 1q-77 0 -137 -44t-108 -132v149h-254v-958h254z" />
<glyph unicode="s" horiz-adv-x="985" d="M504 -25q59 0 110 7.5t93 21.5q45 14 87.5 43.5t76 68.5t53.5 85t20 94q0 38 -12 73t-34.5 64.5t-54.5 52t-71 35.5l-395 131q-20 6 -30.5 18t-10.5 27q0 88 164 88q72 0 110.5 -25.5t51.5 -94.5h247q-26 165 -126 243t-283 78q-75 0 -148 -19t-131.5 -57t-94.5 -96.5 t-36 -136.5q0 -155 201 -225l280 -99q24 -10 44.5 -16.5t36 -14.5t24 -20.5t8.5 -34.5q0 -90 -172 -90q-86 0 -134.5 29.5t-64.5 107.5h-256q7 -169 118 -253.5t329 -84.5z" />
<glyph unicode="t" horiz-adv-x="633" d="M147 780v-499q0 -79 10.5 -137t39.5 -95.5t80.5 -55.5t132.5 -18q26 0 64 1.5t87 5.5v194h-37q-34 0 -57.5 1.5t-38 10t-21 26.5t-6.5 52v514h160v178h-160v250h-254v-250h-120v-178h120z" />
<glyph unicode="u" horiz-adv-x="1094" d="M111 958v-618q0 -34 5 -74.5t18.5 -81t36.5 -78.5t59 -67t87 -46.5t119 -17.5q51 0 92 10t75 31t63 53.5t57 77.5v-147h256v958h-256v-462q0 -60 -6.5 -114.5t-27 -96t-60 -66t-105.5 -24.5q-48 0 -78.5 14t-48 40t-24 64.5t-6.5 87.5v557h-256z" />
<glyph unicode="v" horiz-adv-x="985" d="M629 0l350 958h-277l-155 -534q-11 -37 -23 -81.5t-24 -96.5q-20 81 -31 125.5t-14 52.5l-158 534h-270l335 -958h267z" />
<glyph unicode="w" horiz-adv-x="1395" d="M553 0l78 348q26 116 41.5 202t23.5 142q17 -86 32 -171.5t34 -172.5l76 -348h266l272 958h-260l-78 -354q-11 -51 -20.5 -95t-16.5 -81l-30 -180l-29 180q-9 59 -17.5 103t-15.5 73l-67 354h-281l-67 -354q-8 -40 -16.5 -83t-14.5 -93l-25 -180l-32 180q-7 37 -15.5 81 t-19.5 95l-80 354h-264l264 -958h262z" />
<glyph unicode="x" horiz-adv-x="1014" d="M676 0h303l-328 485l307 473h-307q-71 -136 -108 -209t-43 -87q-11 32 -29 70t-41 81q-20 37 -40 72.5t-42 72.5h-305l305 -473l-321 -485h297l92 158q59 98 84 159q28 -55 48 -95t34 -64z" />
<glyph unicode="y" horiz-adv-x="983" d="M373 -41q-20 -86 -43 -117q-16 -15 -36 -23.5t-48 -8.5q-7 1 -19.5 1.5t-25.5 1t-25 1t-18 0.5v-201q132 -6 127 -6q139 0 196 57q63 60 183 402l315 892h-272l-156 -542q-14 -47 -25.5 -92.5t-17.5 -90.5q-14 60 -26 106t-23 77l-158 542h-274z" />
<glyph unicode="z" horiz-adv-x="913" d="M860 0v215h-504l488 528v215h-768v-215h463l-500 -540v-203h821z" />
<glyph unicode="{" horiz-adv-x="729" d="M485 1116q0 149 129 189q3 0 9 1.5t12 4.5h-82q-77 0 -131.5 -8t-89.5 -23q-103 -53 -103 -190v-455q0 -141 -145 -180q145 -35 145 -183v-419q0 -76 22.5 -128.5t65.5 -78.5q32 -20 88.5 -29.5t137.5 -9.5h92q-74 17 -112 65t-38 123v438q0 51 -8.5 88t-25.5 62 q-40 50 -129 72q90 27 129 71q17 23 25.5 57t8.5 81v452z" />
<glyph unicode="|" horiz-adv-x="528" d="M330 -262v1573h-142v-1573h142z" />
<glyph unicode="}" horiz-adv-x="737" d="M219 -205q0 -152 -153 -188h96q80 0 136 10t91 33q86 53 86 203v419q0 149 148 183q-148 39 -148 180v455q0 143 -102 192q-32 14 -88.5 21.5t-137.5 7.5h-81q83 -31 114 -66q20 -20 29.5 -52.5t9.5 -76.5v-452q0 -93 35 -140q17 -21 49.5 -38t77.5 -31q-90 -23 -127 -72 q-35 -50 -35 -150v-438z" />
<glyph unicode="~" horiz-adv-x="1090" d="M895 768q-18 -29 -34 -51.5t-34.5 -38t-41.5 -23.5t-56 -8q-48 0 -98.5 19.5t-100.5 43t-99.5 43t-96.5 19.5q-44 0 -75.5 -17t-58 -48t-52.5 -74t-58 -94l68 -54q37 68 79.5 103t92.5 35q47 0 97 -20t101 -43.5t102 -43.5t99 -20q38 0 68 16.5t57 46.5t53.5 71t55.5 89z " />
<glyph unicode="&#xa4;" horiz-adv-x="1876" d="M1169 211q89 2 155.5 40.5t110.5 101t65.5 144.5t21.5 171q0 87 -21 165.5t-64 138t-109.5 94t-158.5 34.5q-88 0 -153 -34.5t-108 -93.5t-64 -136.5t-21 -163.5q0 -87 17 -170t57 -147.5t106.5 -104t165.5 -39.5zM377 569v-569h-271v1311h271v-508h176 q10 129 63.5 228.5t137.5 167.5t192.5 103t227.5 35q147 0 262.5 -50.5t195.5 -139t122 -209.5t42 -262q0 -143 -41.5 -270.5t-121 -223t-195 -151.5t-264.5 -56q-132 0 -245 44t-196.5 122.5t-131.5 188t-50 239.5h-174zM1165 1450h176l-120 264h-267z" />
<glyph unicode="&#xa6;" horiz-adv-x="1741" d="M391 238h262q53 0 99 11.5t80 35.5t53.5 62t19.5 91q0 46 -22.5 80.5t-59 57t-82.5 34t-92 11.5h-258v-383zM1630 1311v-1311h-270v1311h270zM123 0v1311h268v-457h275q109 0 207 -23t172.5 -73t118.5 -128.5t44 -189.5q0 -104 -43.5 -186t-117 -138.5t-168.5 -86 t-199 -29.5h-557zM608 1450h176l-120 264h-267z" />
<glyph unicode="&#xa7;" horiz-adv-x="997" d="M537 586q61 -41 99.5 -69.5t53.5 -47.5q19 -15 28 -36t9 -44q0 -31 -22.5 -66t-65.5 -75l-201 139l-106 70q-29 28 -44.5 53t-15.5 53q0 70 82 142zM221 817q-41 -29 -74.5 -56t-57.5 -58.5t-37 -71.5t-13 -94q0 -179 182 -295q76 -50 125.5 -82t81.5 -53t51.5 -33.5 t36.5 -24.5q90 -66 90 -119q0 -43 -31.5 -69.5t-80.5 -26.5q-118 0 -134 156h-247q2 -85 30 -151.5t78 -112.5t119.5 -70.5t153.5 -24.5q70 0 135 21.5t115 61t80 96.5t30 129q0 94 -78 190q47 36 81 66t56.5 63t33.5 72.5t11 93.5q0 32 -9 65t-23.5 63.5t-33.5 56t-40 42.5 q-43 35 -94.5 70.5t-101.5 69t-93.5 62.5t-70.5 50q-50 37 -72.5 69.5t-22.5 61.5q0 45 31.5 73t81.5 28q123 0 129 -166h244q0 87 -27 155.5t-76 116t-118.5 72t-153.5 24.5q-72 0 -139 -21t-118.5 -61.5t-82.5 -99t-31 -133.5q0 -36 4 -62t13.5 -48t26 -44t40.5 -51z" />
<glyph unicode="&#xa9;" horiz-adv-x="1323" d="M856 535q-9 -63 -54.5 -101.5t-111.5 -38.5q-53 0 -94 24t-68.5 63t-42 88t-14.5 98q0 51 14 97.5t42 82t68.5 56t94.5 20.5q66 0 107.5 -33t58.5 -96h150q-53 254 -320 254q-85 0 -153 -29.5t-115.5 -81t-73 -121.5t-25.5 -151q0 -84 26.5 -156t75 -125t117 -83 t152.5 -30q62 0 117 18.5t97.5 53t69 83t32.5 108.5h-150zM1188 655q0 -75 -20 -142.5t-55 -125t-84.5 -103.5t-107.5 -78t-124 -49.5t-135 -17.5q-105 0 -200.5 38.5t-167.5 107t-114.5 163.5t-42.5 209t43 209.5t115.5 165t168 108t200.5 38.5q104 0 199 -38.5t167 -108 t115 -165.5t43 -211zM1323 653q0 143 -53.5 264t-144.5 209.5t-210.5 138.5t-250.5 50q-136 0 -257 -50.5t-211.5 -139.5t-143 -210t-52.5 -262q0 -91 23.5 -175t66.5 -157.5t103.5 -133.5t134.5 -103t159 -66.5t177 -23.5t176 24t157.5 67t133.5 103.5t102.5 133.5t66 157 t23.5 174z" />
<glyph unicode="&#xab;" horiz-adv-x="997" d="M442 373l-163 125l163 125v241l-270 -223v-287l270 -225v244zM825 373l-161 125l161 125v241l-268 -223v-287l268 -225v244z" />
<glyph unicode="&#xac;" horiz-adv-x="1051" d="M823 414v-414h138v553h-871v-139h733z" />
<glyph unicode="&#xae;" horiz-adv-x="1323" d="M682 874q29 0 52 -1.5t39 -9.5t25 -25t9 -47t-9 -47.5t-25.5 -27t-39.5 -12t-51 -2.5h-135v172h135zM389 289h158v282h129q76 0 94 -24q9 -13 14 -47t9 -92q2 -36 6 -65t12 -54h180q-22 22 -28 41q-8 29 -11 121q-3 51 -6.5 84.5t-9.5 46.5q-5 15 -19.5 29t-37.5 26 q92 65 92 168q0 211 -264 211h-318v-727zM1188 655q0 -114 -43.5 -209t-116 -163.5t-167.5 -106t-199 -37.5q-111 0 -206.5 40t-166.5 109.5t-111.5 164.5t-40.5 204q0 116 43 211.5t116 164.5t168 107t200 38q104 0 199 -39t167 -109t115 -165.5t43 -209.5zM1323 653 q0 94 -24.5 179.5t-68.5 159t-105 133t-134.5 102t-156 65.5t-170.5 23q-91 0 -175.5 -23.5t-158 -66t-134.5 -102.5t-104.5 -133.5t-67.5 -158.5t-24 -178q0 -91 23.5 -175t66.5 -157.5t103 -133.5t134 -103t159 -66.5t178 -23.5q95 0 181 24.5t159 69t132 105.5 t100.5 134.5t64 156t22.5 169.5z" />
<glyph unicode="&#xb0;" horiz-adv-x="997" d="M686 1001q0 -38 -16.5 -70.5t-43 -56t-59.5 -36.5t-67 -13q-39 0 -73 14t-59.5 38.5t-40 57.5t-14.5 71t14.5 70.5t39.5 57t58.5 38.5t70.5 14q38 0 72 -14.5t60.5 -39.5t42 -58.5t15.5 -72.5zM827 1006q0 70 -26.5 130t-71 104.5t-104 69.5t-125.5 25q-67 0 -127 -26 t-105.5 -71.5t-72.5 -106.5t-27 -130q0 -67 26 -126t71 -103t105.5 -70t129.5 -26q73 0 133 26t103 71t67 105t24 128z" />
<glyph unicode="&#xb1;" horiz-adv-x="997" d="M934 0v180h-868v-180h868zM410 559v-317h178v317h346v180h-346v312h-178v-312h-344v-180h344z" />
<glyph unicode="&#xb5;" horiz-adv-x="1100" d="M551 784q59 0 103 -25t73 -67.5t43 -98t14 -116.5q0 -57 -13.5 -111.5t-41.5 -96.5t-72 -67.5t-106 -25.5q-64 0 -108.5 25.5t-72.5 68t-40.5 97.5t-12.5 114q0 61 13 116t41.5 96.5t73 66t106.5 24.5zM551 -25q116 0 207 36.5t154 103t96.5 159t33.5 203.5 q0 114 -34 207.5t-97.5 160t-154.5 103.5t-205 37q-118 0 -210 -36.5t-155 -102.5t-96 -159t-33 -206q0 -116 33.5 -209.5t97 -159.5t155 -101.5t208.5 -35.5zM581 1095h177l-121 264h-266z" />
<glyph unicode="&#xb6;" horiz-adv-x="997" d="M610 -256v1427h113v-1427h170v1427h72v138h-455q-432 0 -432 -351q0 -83 24.5 -146.5t71 -106.5t112.5 -65t150 -22v-874h174z" />
<glyph unicode="&#xb7;" horiz-adv-x="743" d="M420 1073h133q0 -145 -133 -168v-96q248 27 248 317v183h-248v-236zM61 1073h136q0 -146 -136 -168v-96q250 27 250 317v183h-250v-236z" />
<glyph unicode="&#xbb;" horiz-adv-x="997" d="M557 621l164 -125l-164 -125v-242l268 221v287l-268 227v-243zM172 621l162 -125l-162 -125v-242l270 221v287l-270 227v-243z" />
<glyph unicode="&#x3bc;" horiz-adv-x="1051" d="M1008 0q-67 -27 -115 -27q-135 0 -184 97q-82 -97 -246 -97q-32 0 -63 9t-62 26v-377h-223v1327h223v-596q0 -99 31 -139q15 -18 41.5 -28.5t64.5 -10.5q94 0 152 82q41 60 41 209v483h223v-698q0 -44 10 -57q12 -25 53 -25h54v-178z" />
<glyph unicode="&#x405;" horiz-adv-x="1536" d="M1452 477q0 118 -34.5 212t-98.5 160t-155.5 101t-205.5 35q-210 0 -330 -99.5t-151 -301.5h-129v727h-256v-1311h256v418h125q11 -105 49.5 -187t101 -139t147 -87t187.5 -30q119 0 211 36.5t155 102.5t95.5 158.5t32.5 204.5zM727 481q0 59 13.5 113.5t41.5 96.5 t72 67.5t104 25.5q62 0 107 -26t73.5 -69t42 -98t13.5 -114q0 -57 -14 -111.5t-42.5 -96.5t-73 -67.5t-106.5 -25.5t-106 25.5t-71.5 68t-40.5 97.5t-13 114zM920 1096h176l-121 264h-266z" />
<glyph unicode="&#x406;" horiz-adv-x="1028" d="M651 451v-60q0 -215 -213 -215q-59 0 -96 29.5t-37 79.5q0 102 162 131zM317 651q16 137 166 137q50 0 82 -9.5t50 -30.5t25 -55.5t7 -84.5q-91 -8 -176 -19.5t-166 -27.5q-256 -53 -256 -299q0 -64 20.5 -116.5t58 -90.5t90 -59t116.5 -21q57 0 99 8t77.5 26.5t68.5 48 t72 71.5q2 -35 12.5 -68t28.5 -61h260q-23 26 -35 62.5t-12 84.5v482q0 105 -28 174t-81.5 109.5t-132 56.5t-180.5 16q-84 0 -156 -20t-126 -61t-86 -104t-35 -149h237zM503 1097h177l-121 264h-266z" />
<glyph unicode="&#x408;" horiz-adv-x="1466" d="M1034 743q-1 95 -17 162.5t-53 110.5t-100 63.5t-159 20.5q-104 0 -170.5 -55.5t-94.5 -167.5h-270q9 108 54.5 193.5t118.5 144.5t168.5 90.5t205.5 31.5q149 0 262 -53.5t189.5 -146.5t115.5 -219t39 -271q0 -144 -37.5 -267t-112.5 -213t-187 -141t-261 -51 q-114 0 -209 34t-166.5 97t-117.5 152.5t-62 200.5h270q68 -248 281 -248q167 0 242.5 81t78.5 253h-272v198h264zM694 1452h176l-120 264h-267z" />
<glyph unicode="&#x40e;" horiz-adv-x="1122" d="M303 1311l248 -549q9 -26 18 -50t19 -53q12 38 24.5 69t26.5 65l211 518h291l-457 -1073q-102 -238 -317 -238h-168v227h53q71 0 117.5 21t64.5 61l35 78l-467 924h301zM563 1452h176l-121 264h-266z" />
<glyph unicode="&#x410;" horiz-adv-x="1233" d="M614 1010l166 -514h-329zM373 276h479l90 -276h291l-461 1311h-305l-467 -1311h285z" />
<glyph unicode="&#x411;" horiz-adv-x="1309" d="M391 238h262q248 0 248 186q0 99 -63.5 148t-188.5 49h-258v-383zM123 1311h962v-238h-694v-219h316q106 0 195 -23.5t153.5 -73.5t100.5 -128.5t36 -188.5q0 -103 -35 -184.5t-96 -138.5t-144 -87t-180 -30h-614v1311z" />
<glyph unicode="&#x412;" horiz-adv-x="1262" d="M391 1073h277q110 0 157 -32.5t47 -106.5q0 -42 -12 -69.5t-37.5 -44t-65 -23t-95.5 -6.5h-271v282zM391 571h266q59 0 107.5 -5t82.5 -23t52.5 -52.5t18.5 -93.5q0 -57 -20 -88.5t-55.5 -47.5t-84 -19.5t-105.5 -3.5h-262v333zM123 0h620q451 0 451 389q0 63 -19 118.5 t-55 97t-88.5 66.5t-120.5 27q50 9 93.5 35.5t76 64t51.5 82.5t19 91q0 171 -131 268q-94 72 -328 72h-569v-1311z" />
<glyph unicode="&#x413;" horiz-adv-x="1014" d="M391 1075v-1075h-268v1311h846v-236h-578z" />
<glyph unicode="&#x414;" horiz-adv-x="1466" d="M993 1085h-456v-516q0 -146 -64 -250q-18 -30 -94 -112h614v878zM430 0q-91 0 -133 -50.5t-53 -162.5l-8 -78h-205v498h121q116 121 116 303v801h998v-1104h143v-498h-207l-6 78q-12 113 -55.5 163t-132.5 50h-578z" />
<glyph unicode="&#x415;" horiz-adv-x="1159" d="M1094 0v238h-703v333h615v224h-615v278h672v238h-940v-1311h971z" />
<glyph unicode="&#x416;" horiz-adv-x="2034" d="M879 475l-131 129l-418 -604h-328l565 784l-534 529h342l504 -533v533h272v-541l504 541h344l-533 -529l564 -784h-328l-418 604l-133 -129v-475h-272v475z" />
<glyph unicode="&#x417;" horiz-adv-x="1169" d="M487 563v197h72q205 0 205 168q0 43 -18 75t-48 53t-69 31.5t-80 10.5q-192 0 -232 -158h-247q14 104 57.5 179t110.5 123.5t154 71.5t188 23q91 0 173.5 -21.5t144.5 -65t99 -110t37 -155.5q0 -57 -16.5 -107t-48 -90t-76 -67.5t-100.5 -38.5q284 -9 284 -303 q0 -101 -39 -177t-107.5 -126.5t-162 -75.5t-201.5 -25q-481 0 -522 418h268q29 -172 256 -172q116 0 175 46t59 139q0 157 -228 157h-88z" />
<glyph unicode="&#x418;" horiz-adv-x="1307" d="M111 1311h270v-1012l491 1012h328v-1311h-270v987l-486 -987h-333v1311z" />
<glyph unicode="&#x419;" horiz-adv-x="1276" d="M397 1624h508v-190h-508v190zM111 1311h270v-1012l491 1012h328v-1311h-270v987l-486 -987h-333v1311z" />
<glyph unicode="&#x41a;" horiz-adv-x="1290" d="M391 0v442l129 129l432 -571h344l-569 768l539 543h-342l-533 -563v563h-268v-1311h268z" />
<glyph unicode="&#x41b;" horiz-adv-x="1233" d="M467 1311h305l461 -1311h-291l-328 1010l-329 -1010h-285z" />
<glyph unicode="&#x41c;" horiz-adv-x="1669" d="M391 1100l311 -1100h265l313 1100v-1100h268v1311h-426l-223 -752q-43 -143 -61 -250q-20 96 -35 158t-25 94l-219 750h-436v-1311h268v1100z" />
<glyph unicode="&#x41d;" horiz-adv-x="1282" d="M123 0h268v569h518v-569h269v1311h-269v-508h-518v508h-268v-1311z" />
<glyph unicode="&#x41e;" horiz-adv-x="1399" d="M348 672q0 90 22 167.5t66.5 135.5t110.5 91t153 34q86 0 152 -33.5t110 -92t66.5 -137.5t22.5 -169q0 -87 -21 -169.5t-64.5 -146t-110.5 -102.5t-159 -39q-95 0 -161.5 39.5t-108 104t-60 147.5t-18.5 170zM702 -25q152 1 268 57t195 152t119.5 223t40.5 269 q0 147 -43 268.5t-123 208.5t-195.5 135.5t-261.5 48.5q-152 0 -269.5 -52.5t-197.5 -144.5t-121.5 -217.5t-41.5 -271.5q0 -144 43.5 -267.5t125.5 -214t198.5 -142.5t262.5 -52z" />
<glyph unicode="&#x41f;" horiz-adv-x="1321" d="M391 0h-268v1311h1087v-1311h-268v1073h-551v-1073z" />
<glyph unicode="&#x420;" horiz-adv-x="1178" d="M391 1073h213q230 0 230 -203q0 -190 -234 -190h-209v393zM123 0h268v442h260q98 0 182.5 30.5t146.5 88.5t97 140.5t35 187.5q0 123 -36.5 204.5t-98.5 129.5t-143.5 68t-171.5 20h-539v-1311z" />
<glyph unicode="&#x421;" horiz-adv-x="1288" d="M680 1337q-151 0 -265 -53.5t-190.5 -146.5t-114.5 -219t-38 -271q0 -144 37 -267t112 -213t187.5 -141t263.5 -51q114 0 207.5 33.5t164.5 96t117.5 152t65.5 202.5h-273q-68 -248 -278 -248q-86 0 -147.5 35.5t-100.5 95.5t-57.5 139t-18.5 166q0 217 87.5 335 t250.5 118q210 0 264 -223h273q-12 113 -58.5 199t-119 144t-167 87.5t-202.5 29.5z" />
<glyph unicode="&#x422;" horiz-adv-x="1102" d="M416 1073v-1073h272v1073h385v238h-1046v-238h389z" />
<glyph unicode="&#x423;" horiz-adv-x="1122" d="M303 1311l248 -549q9 -26 18 -50t19 -53q12 38 24.5 69t26.5 65l211 518h291l-457 -1073q-102 -238 -317 -238h-168v227h53q71 0 117.5 21t64.5 61l35 78l-467 924h301z" />
<glyph unicode="&#x424;" horiz-adv-x="1667" d="M336 668q2 100 29.5 179t76.5 134.5t116 85t147 29.5v-881q-99 0 -169.5 39.5t-115.5 103t-65 145t-19 165.5zM1337 668q0 -104 -27.5 -187.5t-76.5 -142.5t-116.5 -91t-147.5 -32v881q81 0 149 -29t116.5 -84t75.5 -134.5t27 -180.5zM705 1464v-129q-145 0 -264.5 -49 t-205 -139t-133 -216.5t-47.5 -281.5q0 -150 48.5 -274.5t135 -213t206 -137.5t260.5 -49v-129h264v129q137 0 255.5 51.5t206 144t137.5 221.5t50 284q0 148 -49.5 269.5t-137 208t-206 134t-256.5 47.5v129h-264z" />
<glyph unicode="&#x425;" horiz-adv-x="1192" d="M596 475l264 -475h314l-431 676l404 635h-303l-248 -434l-248 434h-309l403 -647l-415 -664h297z" />
<glyph unicode="&#x426;" horiz-adv-x="1384" d="M123 0v1311h268v-1096h551v1096h270v-1096h162v-506h-184l-8 80q-10 112 -54 161.5t-135 49.5h-870z" />
<glyph unicode="&#x427;" horiz-adv-x="1300" d="M909 524q-68 -60 -144 -91.5t-163 -31.5q-110 0 -198.5 33t-151 94.5t-96 150.5t-33.5 200v432h268v-412q0 -285 254 -285q52 0 100 21t84.5 56.5t58 83.5t21.5 102v434h269v-1311h-269v524z" />
<glyph unicode="&#x428;" horiz-adv-x="1827" d="M1694 0v1313h-269v-1098h-383v1096h-268v-1096h-383v1096h-268v-1311h1571z" />
<glyph unicode="&#x429;" horiz-adv-x="1855" d="M1843 -293v508h-149v1096h-269v-1096h-383v1096h-268v-1096h-383v1096h-268v-1311h1343q91 0 133.5 -51.5t53.5 -163.5l6 -78h184z" />
<glyph unicode="&#x42a;" horiz-adv-x="1368" d="M750 238q68 0 115 12t77 38.5t43.5 67t13.5 97.5q0 182 -254 182h-256v-397h261zM811 870q108 0 199 -25t157 -77.5t103 -133.5t37 -194q0 -101 -34.5 -182.5t-95.5 -138.5t-145 -88t-184 -31h-629v1077h-223v236h493v-443h322z" />
<glyph unicode="&#x42b;" horiz-adv-x="1741" d="M391 238h262q53 0 99 11.5t80 35.5t53.5 62t19.5 91q0 46 -22.5 80.5t-59 57t-82.5 34t-92 11.5h-258v-383zM1630 1311v-1311h-270v1311h270zM123 0v1311h268v-457h275q109 0 207 -23t172.5 -73t118.5 -128.5t44 -189.5q0 -104 -43.5 -186t-117 -138.5t-168.5 -86 t-199 -29.5h-557z" />
<glyph unicode="&#x42c;" horiz-adv-x="1272" d="M391 635v-397h262q67 0 114.5 12t78 38.5t45 67t14.5 97.5q0 182 -256 182h-258zM123 0v1313h268v-443h322q107 0 198 -24.5t157 -77t103 -133.5t37 -195q0 -103 -34.5 -185t-96 -138.5t-145.5 -86.5t-182 -30h-627z" />
<glyph unicode="&#x42d;" horiz-adv-x="1466" d="M1034 743q-1 95 -17 162.5t-53 110.5t-100 63.5t-159 20.5q-104 0 -170.5 -55.5t-94.5 -167.5h-270q9 108 54.5 193.5t118.5 144.5t168.5 90.5t205.5 31.5q149 0 262 -53.5t189.5 -146.5t115.5 -219t39 -271q0 -144 -37.5 -267t-112.5 -213t-187 -141t-261 -51 q-114 0 -209 34t-166.5 97t-117.5 152.5t-62 200.5h270q68 -248 281 -248q167 0 242.5 81t78.5 253h-272v198h264z" />
<glyph unicode="&#x42e;" horiz-adv-x="1876" d="M1169 211q89 2 155.5 40.5t110.5 101t65.5 144.5t21.5 171q0 87 -21 165.5t-64 138t-109.5 94t-158.5 34.5q-88 0 -153 -34.5t-108 -93.5t-64 -136.5t-21 -163.5q0 -87 17 -170t57 -147.5t106.5 -104t165.5 -39.5zM377 569v-569h-271v1311h271v-508h176 q10 129 63.5 228.5t137.5 167.5t192.5 103t227.5 35q147 0 262.5 -50.5t195.5 -139t122 -209.5t42 -262q0 -143 -41.5 -270.5t-121 -223t-195 -151.5t-264.5 -56q-132 0 -245 44t-196.5 122.5t-131.5 188t-50 239.5h-174z" />
<glyph unicode="&#x42f;" horiz-adv-x="1221" d="M647 1073q-49 0 -91.5 -6t-73.5 -24.5t-48.5 -53t-17.5 -90.5q0 -51 17 -82.5t48 -48t73 -22t93 -5.5h182v332h-182zM1100 0h-271v516h-258q-138 0 -200 -264q-5 -20 -9.5 -52t-10 -68t-11 -71t-12.5 -61h-297q23 28 37.5 78.5t31.5 134.5q19 91 33.5 151.5t30.5 88.5 q17 24 34 43t35 34q36 29 83.5 48.5t107.5 31.5q-68 13 -122.5 41.5t-93 70.5t-59 97.5t-20.5 122.5q0 369 467 369h504v-1311z" />
<glyph unicode="&#x430;" horiz-adv-x="1028" d="M651 451v-60q0 -215 -213 -215q-59 0 -96 29.5t-37 79.5q0 102 162 131zM317 651q16 137 166 137q50 0 82 -9.5t50 -30.5t25 -55.5t7 -84.5q-91 -8 -176 -19.5t-166 -27.5q-256 -53 -256 -299q0 -64 20.5 -116.5t58 -90.5t90 -59t116.5 -21q57 0 99 8t77.5 26.5t68.5 48 t72 71.5q2 -35 12.5 -68t28.5 -61h260q-23 26 -35 62.5t-12 84.5v482q0 105 -28 174t-81.5 109.5t-132 56.5t-180.5 16q-84 0 -156 -20t-126 -61t-86 -104t-35 -149h237z" />
<glyph unicode="&#x431;" horiz-adv-x="1155" d="M1016 1430q-10 -3 -45.5 -11.5t-86.5 -21t-111.5 -27.5t-121 -29.5t-116 -28.5t-95.5 -24q-37 -9 -75.5 -27.5t-73.5 -42.5t-63.5 -52.5t-45.5 -57.5q-37 -63 -54 -165.5t-17 -242.5v-219q0 -114 34 -207t97.5 -159.5t155 -103t206.5 -36.5q114 0 202 34t149 98 t92.5 155.5t31.5 206.5q0 107 -29 195t-85.5 151t-140 98t-193.5 35q-118 0 -198 -57.5t-124 -169.5q8 82 18.5 139t33 97t62.5 68.5t107 53.5q3 1 31.5 10t73 22t98 29.5t107 32t100 29.5t76.5 23v205zM360 473q0 272 222 272q62 0 107.5 -24t74.5 -65t43 -94.5t14 -112.5 q0 -275 -231 -275q-53 0 -95.5 20.5t-72.5 59t-46 94t-16 125.5z" />
<glyph unicode="&#x432;" horiz-adv-x="1133" d="M569 -23q98 0 188 27.5t158.5 80.5t109 131.5t40.5 180.5q0 75 -25.5 130.5t-70.5 94t-107 59t-135 24.5q279 57 279 286q0 91 -33.5 157.5t-92 110.5t-137 65.5t-168.5 21.5q-452 0 -452 -476v-505q0 -69 18.5 -124.5t50.5 -98.5t75.5 -74t93 -51.5t103 -30t105.5 -9.5z M379 932q0 121 48 179t142 58q193 0 193 -180q0 -205 -219 -205h-107v-186h117q59 0 107 -8.5t81.5 -30t51.5 -60t18 -98.5q0 -213 -242 -213q-40 0 -75 12.5t-60.5 36.5t-40 59.5t-14.5 80.5v555z" />
<glyph unicode="&#x433;" horiz-adv-x="989" d="M690 313q-8 -42 -24.5 -68.5t-41.5 -42t-59 -21t-76 -5.5q-161 0 -161 80q0 26 10.5 44t29 31t45.5 23.5t60 22.5l227 78q197 68 197 264q0 133 -98.5 199.5t-294.5 66.5q-82 0 -152.5 -19.5t-124.5 -59t-89 -100t-46 -142.5h248q8 35 21 58.5t32.5 37t46.5 19t64 5.5 q160 0 160 -88q0 -73 -97 -100l-288 -84q-110 -32 -164 -96.5t-54 -167.5q0 -136 105 -204.5t315 -68.5q104 0 189.5 16.5t146 55.5t94 104t33.5 162h-254z" />
<glyph unicode="&#x434;" horiz-adv-x="1071" d="M512 766q203 0 203 -277q0 -278 -199 -278q-96 0 -147.5 72t-51.5 202q0 281 195 281zM508 -393q109 0 186.5 20t129.5 55.5t83 85t47 109t20.5 126.5t4.5 138v817h-256v-143q-98 170 -277 170q-68 0 -123.5 -20t-99 -55t-75 -83.5t-51.5 -106t-30 -122t-10 -131.5 q0 -91 25 -176t74.5 -151t122 -106t167.5 -40q188 0 277 164v-39q0 -61 -5.5 -118t-27 -100.5t-64.5 -69.5t-118 -26q-121 0 -156 93h-272q43 -291 428 -291z" />
<glyph unicode="&#x435;" horiz-adv-x="1006" d="M662 281q-17 -56 -56.5 -85.5t-101.5 -29.5q-48 0 -82 19t-56.5 51.5t-33 75.5t-10.5 91v29h620q2 11 2 22v23q0 249 -113 378.5t-327 129.5q-114 0 -198.5 -38t-139.5 -106t-82 -161.5t-27 -204.5q0 -109 27 -201t82.5 -158.5t139.5 -103.5t198 -37q85 0 154 16.5 t121.5 52.5t89 94.5t55.5 142.5h-262zM322 596q18 188 178 188q158 0 176 -188h-354z" />
<glyph unicode="&#x436;" horiz-adv-x="1511" d="M879 1311h-252v-725l-318 372h-305l358 -372l-358 -586h305l211 420l107 -111v-309h252v309l106 111l211 -420h305l-358 586l358 372h-305l-317 -372v725z" />
<glyph unicode="&#x437;" horiz-adv-x="862" d="M569 514q45 7 87 23.5t74.5 43.5t52.5 63.5t20 82.5q0 68 -31 117t-82 80.5t-117 46t-135 14.5q-348 0 -395 -295h217q8 63 48.5 95t111.5 32q149 0 149 -117q0 -118 -139 -118h-65v-166h75q152 0 152 -109q0 -34 -14.5 -60t-38.5 -43.5t-55.5 -26.5t-65.5 -9 q-156 0 -174 127h-219q20 -159 117 -239.5t274 -80.5q84 0 158 15.5t130 51t88.5 93t32.5 141.5q0 110 -66 174t-190 64z" />
<glyph unicode="&#x438;" horiz-adv-x="1094" d="M111 958v-618q0 -34 5 -74.5t18.5 -81t36.5 -78.5t59 -67t87 -46.5t119 -17.5q51 0 92 10t75 31t63 53.5t57 77.5v-147h256v958h-256v-462q0 -60 -6.5 -114.5t-27 -96t-60 -66t-105.5 -24.5q-48 0 -78.5 14t-48 40t-24 64.5t-6.5 87.5v557h-256z" />
<glyph unicode="&#x439;" horiz-adv-x="1094" d="M291 1282h500v-164h-500v164zM111 958v-618q0 -34 5 -74.5t18.5 -81t36.5 -78.5t59 -67t87 -46.5t119 -17.5q51 0 92 10t75 31t63 53.5t57 77.5v-147h256v958h-256v-462q0 -60 -6.5 -114.5t-27 -96t-60 -66t-105.5 -24.5q-48 0 -78.5 14t-48 40t-24 64.5t-6.5 87.5v557 h-256z" />
<glyph unicode="&#x43a;" horiz-adv-x="1024" d="M377 0v309l104 111l211 -420h305l-358 586l358 372h-305l-315 -372v725h-254v-1311h254z" />
<glyph unicode="&#x43b;" horiz-adv-x="958" d="M276 0l148 537q9 32 21 79t26 107q19 -63 32.5 -109t24.5 -77l156 -537h270l-346 958h-268l-336 -958h272z" />
<glyph unicode="&#x43c;" horiz-adv-x="1438" d="M631 0h182l246 750v-750h256v958h-369l-160 -487q-27 -82 -43 -138t-24 -85q-13 45 -29 102t-39 125l-159 483h-369v-958h254v750z" />
<glyph unicode="&#x43d;" horiz-adv-x="1110" d="M735 0h254v958h-254v-362h-358v362h-254v-958h254v432h358v-432z" />
<glyph unicode="&#x43e;" horiz-adv-x="1100" d="M551 784q59 0 103 -25t73 -67.5t43 -98t14 -116.5q0 -57 -13.5 -111.5t-41.5 -96.5t-72 -67.5t-106 -25.5q-64 0 -108.5 25.5t-72.5 68t-40.5 97.5t-12.5 114q0 61 13 116t41.5 96.5t73 66t106.5 24.5zM551 -25q116 0 207 36.5t154 103t96.5 159t33.5 203.5 q0 114 -34 207.5t-97.5 160t-154.5 103.5t-205 37q-118 0 -210 -36.5t-155 -102.5t-96 -159t-33 -206q0 -116 33.5 -209.5t97 -159.5t155 -101.5t208.5 -35.5z" />
<glyph unicode="&#x43f;" horiz-adv-x="1094" d="M377 0v489q0 277 201 277q78 0 116.5 -48.5t38.5 -142.5v-575h256v596q0 136 -26 207q-15 43 -46 77t-71.5 57t-87 35.5t-90.5 12.5q-53 0 -95 -11.5t-76 -33.5t-63 -53.5t-57 -71.5v143h-254v-958h254z" />
<glyph unicode="&#x440;" horiz-adv-x="1110" d="M578 766q99 0 152.5 -76t53.5 -213q0 -134 -53.5 -208t-152.5 -74q-207 0 -207 282q0 289 207 289zM377 -371v508q29 -42 57 -72.5t59.5 -50.5t69 -29.5t84.5 -9.5q105 0 179.5 42t122.5 112.5t70.5 163t22.5 192.5q0 97 -20.5 187t-65.5 159.5t-116 111.5t-172 42 q-161 0 -291 -156v129h-254v-1329h254z" />
<glyph unicode="&#x441;" horiz-adv-x="1016" d="M508 985q-114 0 -198.5 -38.5t-140.5 -106.5t-84 -161t-28 -202q0 -111 27 -203.5t82.5 -159t140.5 -103t201 -36.5q189 0 298 94.5t138 286.5h-254q-39 -180 -174 -180q-199 0 -199 301q0 147 52 227t151 80q134 0 170 -166h254q-8 89 -41.5 157.5t-89.5 115t-133 70.5 t-172 24z" />
<glyph unicode="&#x442;" horiz-adv-x="1563" d="M377 0v500q0 71 9 121.5t28.5 82.5t50.5 47t74 15q72 0 102.5 -45t30.5 -150v-571h254v492q0 75 8.5 127t27.5 85t49.5 47.5t73.5 14.5q73 0 104.5 -48.5t31.5 -156.5v-561h254v625q0 173 -77.5 265.5t-226.5 92.5q-43 0 -80 -9t-70.5 -28.5t-65.5 -50.5t-64 -76 q-64 164 -248 164q-42 0 -76.5 -8.5t-66 -27.5t-61.5 -49t-62 -73v133h-254v-958h254z" />
<glyph unicode="&#x443;" horiz-adv-x="981" d="M373 -41q-20 -86 -43 -117q-16 -15 -36 -23.5t-48 -8.5q-7 1 -19.5 1.5t-25.5 1t-25 1t-18 0.5v-201q132 -6 127 -6q139 0 196 57q63 60 183 402l315 892h-272l-156 -542q-14 -47 -25.5 -92.5t-17.5 -90.5q-14 60 -26 106t-23 77l-158 542h-274z" />
<glyph unicode="&#x444;" horiz-adv-x="1444" d="M848 168v623l35 -7q54 -7 99 -30t77.5 -61t50.5 -92.5t18 -125.5q0 -68 -18 -122t-50 -92.5t-77.5 -61t-99.5 -27.5zM592 -371h256v338l35 4q113 12 205.5 49t158.5 100t102.5 152t36.5 205q0 118 -36 210t-102 156.5t-158.5 100.5t-206.5 41l-35 2v324h-256v-324l-33 -2 q-114 -5 -207 -41t-159 -100.5t-102 -156.5t-36 -210q0 -116 36.5 -205t102.5 -152t159 -100t206 -49l35 -4zM313 475q0 71 18.5 125.5t51 92.5t77.5 61t99 30l35 7v-623l-35 4q-54 5 -99 27.5t-77.5 61t-51 92.5t-18.5 122z" />
<glyph unicode="&#x445;" horiz-adv-x="989" d="M676 0h303l-328 485l307 473h-307q-71 -136 -108 -209t-43 -87q-11 32 -29 70t-41 81q-20 37 -40 72.5t-42 72.5h-305l305 -473l-321 -485h297l92 158q59 98 84 159q28 -55 48 -95t34 -64z" />
<glyph unicode="&#x446;" horiz-adv-x="1133" d="M1159 -236v351h-57q-41 0 -65.5 8.5t-37 26t-16.5 45.5t-4 67v696h-256v-462q0 -59 -6.5 -113.5t-27 -96t-60 -66.5t-105.5 -25q-50 0 -80.5 14.5t-47.5 41.5t-23 65t-6 85v557h-256v-577q0 -146 30 -223q17 -44 47.5 -78t70 -57.5t85 -35.5t92.5 -12q52 0 92.5 11 t74 32.5t62.5 54.5t58 77v-150h16q42 -2 75 -5t56 -15t35.5 -37t12.5 -70v-109h241z" />
<glyph unicode="&#x447;" horiz-adv-x="1085" d="M979 958h-256v-167q0 -60 -6.5 -114.5t-27 -96.5t-60 -66.5t-105.5 -24.5q-50 0 -80.5 14t-47.5 40.5t-23 65t-6 87.5v262h-256v-282q0 -149 30 -223q17 -45 47.5 -79t70 -57t85 -35t92.5 -12q53 0 93.5 10.5t74 31.5t62 53.5t57.5 76.5v-442h256v958z" />
<glyph unicode="&#x448;" horiz-adv-x="1597" d="M1221 0h254v958h-254v-499q0 -71 -9 -121t-28.5 -82t-50.5 -46.5t-74 -14.5q-72 0 -102.5 44t-30.5 148v571h-254v-491q0 -75 -8.5 -127t-27.5 -84.5t-49 -46.5t-73 -14q-74 0 -105.5 48t-31.5 156v559h-254v-624q0 -174 77.5 -266.5t227.5 -92.5q43 0 80 9.5t70.5 29 t65 51t63.5 74.5q67 -164 247 -164q42 0 77 8.5t66.5 27.5t61.5 49t62 73v-133z" />
<glyph unicode="&#x449;" horiz-adv-x="1602" d="M1221 0q48 0 84 -3t60.5 -15.5t37 -38t12.5 -70.5v-111h240v353h-58q-29 0 -51.5 4.5t-38.5 19.5t-24 44t-8 79v696h-254v-499q0 -71 -9 -121t-28.5 -82t-50.5 -46.5t-74 -14.5q-72 0 -102.5 44t-30.5 148v571h-254v-491q0 -75 -8.5 -127t-27.5 -84.5t-49 -46.5t-73 -14 q-74 0 -105.5 48t-31.5 156v559h-254v-624q0 -174 77.5 -266.5t227.5 -92.5q43 0 80 9.5t70.5 29t65 51t63.5 74.5q67 -164 247 -164q85 0 149 43t118 134v-152z" />
<glyph unicode="&#x44a;" horiz-adv-x="1133" d="M164 377q2 -103 34.5 -179t91.5 -125.5t141.5 -73.5t182.5 -24q102 0 188.5 27.5t149.5 81.5t98 132.5t35 180.5q0 80 -29 151.5t-80.5 125.5t-122.5 85.5t-155 31.5q-198 0 -278 -123v290h-420v-225h164v-356zM823 395q0 -46 -13 -86.5t-38.5 -71t-62 -48t-84.5 -17.5 q-43 0 -80.5 14.5t-65 40.5t-43.5 62t-16 80v43q0 42 16.5 75.5t44 56.5t64.5 35.5t78 12.5q44 0 81 -14t63.5 -40t41 -62t14.5 -81z" />
<glyph unicode="&#x44b;" horiz-adv-x="1546" d="M125 377q1 -102 33.5 -178t91 -125.5t141 -74t182.5 -24.5q102 0 188.5 27t150 80t99.5 132t36 183q0 79 -30 150.5t-82.5 125.5t-123 86t-152.5 32q-195 0 -278 -123v290h-256v-581zM1210 958v-958h256v958h-256zM784 395q0 -47 -13.5 -87.5t-39 -70.5t-62.5 -47.5 t-85 -17.5q-45 0 -82 14.5t-64 41t-42 62.5t-15 79v43q0 41 15.5 74.5t42.5 57t64 36t79 12.5q44 0 81 -14t64 -40t42 -62t15 -81z" />
<glyph unicode="&#x44c;" horiz-adv-x="1094" d="M125 377q0 -100 32.5 -175.5t91 -126t141.5 -75.5t183 -25q102 0 188.5 26.5t150 79.5t99.5 132t36 184q0 79 -29.5 150.5t-81.5 125.5t-123 86t-154 32q-195 0 -278 -123v290h-256v-581zM784 395q0 -47 -13 -87.5t-38 -70.5t-62.5 -47.5t-86.5 -17.5q-45 0 -82.5 14.5 t-64.5 41t-41.5 62.5t-14.5 79v43q0 43 16 76.5t43.5 56.5t64 35t77.5 12q44 0 81 -14t64 -40t42 -62t15 -81z" />
<glyph unicode="&#x44d;" horiz-adv-x="1061" d="M725 383q-7 -57 -18 -96t-32 -63.5t-56 -35.5t-91 -12q-60 0 -98.5 26t-52.5 79h-262q62 -153 165.5 -229.5t256.5 -76.5q114 0 197.5 37t138 103.5t81.5 158t27 199.5q0 114 -27.5 208t-82.5 161.5t-138.5 104.5t-195.5 38q-195 0 -301.5 -88.5t-129.5 -265.5h265 q18 153 168 153q154 0 180 -188h-246v-213h252z" />
<glyph unicode="&#x44e;" horiz-adv-x="1536" d="M1452 477q0 118 -34.5 212t-98.5 160t-155.5 101t-205.5 35q-210 0 -330 -99.5t-151 -301.5h-129v727h-256v-1311h256v418h125q11 -105 49.5 -187t101 -139t147 -87t187.5 -30q119 0 211 36.5t155 102.5t95.5 158.5t32.5 204.5zM727 481q0 59 13.5 113.5t41.5 96.5 t72 67.5t104 25.5q62 0 107 -26t73.5 -69t42 -98t13.5 -114q0 -57 -14 -111.5t-42.5 -96.5t-73 -67.5t-106.5 -25.5t-106 25.5t-71.5 68t-40.5 97.5t-13 114z" />
<glyph unicode="&#x44f;" horiz-adv-x="975" d="M68 655q0 -152 202 -249q-45 -9 -76 -29.5t-52.5 -52.5t-36.5 -75t-27 -97q-14 -65 -24 -103t-15 -49h262q3 9 5 30.5t7 53.5q10 81 24.5 130t33.5 74.5t42.5 33.5t51.5 8h149v-330h256v958h-460q-67 0 -129 -17.5t-109 -54.5t-75.5 -94.5t-28.5 -136.5zM614 754v-244 h-174q-65 0 -99 30t-34 87q0 65 39.5 96t102.5 31h165z" />
<glyph unicode="&#x451;" horiz-adv-x="983" d="M373 -41q-20 -86 -43 -117q-16 -15 -36 -23.5t-48 -8.5q-7 1 -19.5 1.5t-25.5 1t-25 1t-18 0.5v-201q132 -6 127 -6q139 0 196 57q63 60 183 402l315 892h-272l-156 -542q-14 -47 -25.5 -92.5t-17.5 -90.5q-14 60 -26 106t-23 77l-158 542h-274zM318 1097h177l-121 264 h-266z" />
<glyph unicode="&#x454;" horiz-adv-x="1133" d="M164 377q2 -103 34.5 -179t91.5 -125.5t141.5 -73.5t182.5 -24q102 0 188.5 27.5t149.5 81.5t98 132.5t35 180.5q0 80 -29 151.5t-80.5 125.5t-122.5 85.5t-155 31.5q-198 0 -278 -123v290h-420v-225h164v-356zM823 395q0 -46 -13 -86.5t-38.5 -71t-62 -48t-84.5 -17.5 q-43 0 -80.5 14.5t-65 40.5t-43.5 62t-16 80v43q0 42 16.5 75.5t44 56.5t64.5 35.5t78 12.5q44 0 81 -14t63.5 -40t41 -62t14.5 -81zM514 1096h176l-121 264h-266z" />
<glyph unicode="&#x455;" horiz-adv-x="975" d="M68 655q0 -152 202 -249q-45 -9 -76 -29.5t-52.5 -52.5t-36.5 -75t-27 -97q-14 -65 -24 -103t-15 -49h262q3 9 5 30.5t7 53.5q10 81 24.5 130t33.5 74.5t42.5 33.5t51.5 8h149v-330h256v958h-460q-67 0 -129 -17.5t-109 -54.5t-75.5 -94.5t-28.5 -136.5zM614 754v-244 h-174q-65 0 -99 30t-34 87q0 65 39.5 96t102.5 31h165zM473 1094h176l-121 264h-266z" />
<glyph unicode="&#x456;" horiz-adv-x="1006" d="M662 281q-17 -56 -56.5 -85.5t-101.5 -29.5q-48 0 -82 19t-56.5 51.5t-33 75.5t-10.5 91v29h620q2 11 2 22v23q0 249 -113 378.5t-327 129.5q-114 0 -198.5 -38t-139.5 -106t-82 -161.5t-27 -204.5q0 -109 27 -201t82.5 -158.5t139.5 -103.5t198 -37q85 0 154 16.5 t121.5 52.5t89 94.5t55.5 142.5h-262zM322 596q18 188 178 188q158 0 176 -188h-354zM514 1097h177l-121 264h-266z" />
<glyph unicode="&#x457;" horiz-adv-x="1546" d="M125 377q1 -102 33.5 -178t91 -125.5t141 -74t182.5 -24.5q102 0 188.5 27t150 80t99.5 132t36 183q0 79 -30 150.5t-82.5 125.5t-123 86t-152.5 32q-195 0 -278 -123v290h-256v-581zM1210 958v-958h256v958h-256zM784 395q0 -47 -13.5 -87.5t-39 -70.5t-62.5 -47.5 t-85 -17.5q-45 0 -82 14.5t-64 41t-42 62.5t-15 79v43q0 41 15.5 74.5t42.5 57t64 36t79 12.5q44 0 81 -14t64 -40t42 -62t15 -81zM590 1096h176l-121 264h-266z" />
<glyph unicode="&#x458;" horiz-adv-x="1061" d="M725 383q-7 -57 -18 -96t-32 -63.5t-56 -35.5t-91 -12q-60 0 -98.5 26t-52.5 79h-262q62 -153 165.5 -229.5t256.5 -76.5q114 0 197.5 37t138 103.5t81.5 158t27 199.5q0 114 -27.5 208t-82.5 161.5t-138.5 104.5t-195.5 38q-195 0 -301.5 -88.5t-129.5 -265.5h265 q18 153 168 153q154 0 180 -188h-246v-213h252zM561 1096h176l-121 264h-266z" />
<glyph unicode="&#x45a;" horiz-adv-x="1233" d="M614 1010l166 -514h-329zM373 276h479l90 -276h291l-461 1311h-305l-467 -1311h285zM548 1452h177l-121 264h-266z" />
<glyph unicode="&#x45b;" horiz-adv-x="1307" d="M111 1311h270v-1012l491 1012h328v-1311h-270v987l-486 -987h-333v1311zM623 1450h176l-121 264h-266z" />
<glyph unicode="&#x45c;" horiz-adv-x="1145" d="M1094 0v238h-703v333h615v224h-615v278h672v238h-940v-1311h971zM604 1450h177l-121 264h-266z" />
<glyph unicode="&#x45e;" horiz-adv-x="1368" d="M750 238q68 0 115 12t77 38.5t43.5 67t13.5 97.5q0 182 -254 182h-256v-397h261zM811 870q108 0 199 -25t157 -77.5t103 -133.5t37 -194q0 -101 -34.5 -182.5t-95.5 -138.5t-145 -88t-184 -31h-629v1077h-223v236h493v-443h322zM635 1452h176l-121 264h-266z" />
<glyph unicode="&#x45f;" horiz-adv-x="1399" d="M348 672q0 90 22 167.5t66.5 135.5t110.5 91t153 34q86 0 152 -33.5t110 -92t66.5 -137.5t22.5 -169q0 -87 -21 -169.5t-64.5 -146t-110.5 -102.5t-159 -39q-95 0 -161.5 39.5t-108 104t-60 147.5t-18.5 170zM702 -25q152 1 268 57t195 152t119.5 223t40.5 269 q0 147 -43 268.5t-123 208.5t-195.5 135.5t-261.5 48.5q-152 0 -269.5 -52.5t-197.5 -144.5t-121.5 -217.5t-41.5 -271.5q0 -144 43.5 -267.5t125.5 -214t198.5 -142.5t262.5 -52zM692 1452h177l-121 264h-266z" />
<glyph unicode="&#x490;" horiz-adv-x="1221" d="M647 1073q-49 0 -91.5 -6t-73.5 -24.5t-48.5 -53t-17.5 -90.5q0 -51 17 -82.5t48 -48t73 -22t93 -5.5h182v332h-182zM1100 0h-271v516h-258q-138 0 -200 -264q-5 -20 -9.5 -52t-10 -68t-11 -71t-12.5 -61h-297q23 28 37.5 78.5t31.5 134.5q19 91 33.5 151.5t30.5 88.5 q17 24 34 43t35 34q36 29 83.5 48.5t107.5 31.5q-68 13 -122.5 41.5t-93 70.5t-59 97.5t-20.5 122.5q0 369 467 369h504v-1311zM631 1452h176l-121 264h-266z" />
<glyph unicode="&#x491;" horiz-adv-x="1094" d="M111 958v-618q0 -34 5 -74.5t18.5 -81t36.5 -78.5t59 -67t87 -46.5t119 -17.5q51 0 92 10t75 31t63 53.5t57 77.5v-147h256v958h-256v-462q0 -60 -6.5 -114.5t-27 -96t-60 -66t-105.5 -24.5q-48 0 -78.5 14t-48 40t-24 64.5t-6.5 87.5v557h-256zM516 1095h177l-121 264 h-266z" />
<glyph unicode="&#x2013;" horiz-adv-x="997" d="M0 389h997v215h-997v-215z" />
<glyph unicode="&#x2014;" horiz-adv-x="1796" d="M0 389h1796v215h-1796v-215z" />
<glyph unicode="&#x2018;" horiz-adv-x="500" d="M373 1073h-131q0 145 131 166v98q-248 -33 -248 -319v-182h248v237z" />
<glyph unicode="&#x2019;" horiz-adv-x="500" d="M125 1073h135q0 -74 -34.5 -115.5t-100.5 -52.5v-96q248 27 248 317v183h-248v-236z" />
<glyph unicode="&#x201a;" horiz-adv-x="516" d="M264 0q0 -45 -8 -78.5t-25 -56.5q-34 -44 -114 -70v-100q69 9 120 35.5t89 74.5q32 45 47.5 103t15.5 127v235h-272v-270h147z" />
<glyph unicode="&#x201c;" horiz-adv-x="815" d="M504 0h133q0 -144 -133 -168v-96q248 30 248 317v185h-248v-238zM145 0h136q0 -144 -136 -168v-96q250 30 250 317v185h-250v-238z" />
<glyph unicode="&#x201d;" horiz-adv-x="745" d="M324 1073h-136q0 145 136 166v98q-250 -33 -250 -319v-182h250v237zM680 1073h-133q0 72 33.5 114.5t99.5 51.5v98q-248 -33 -248 -319v-182h248v237z" />
<glyph unicode="&#x201e;" horiz-adv-x="815" d="M504 0h133q0 -144 -133 -168v-96q248 30 248 317v185h-248v-238zM145 0h136q0 -144 -136 -168v-96q250 30 250 317v185h-250v-238z" />
<glyph unicode="&#x2020;" horiz-adv-x="997" d="M70 737h309v-985h237v985h314v219h-314v353h-237v-353h-309v-219z" />
<glyph unicode="&#x2022;" horiz-adv-x="1077" d="M356 512q0 -35 13.5 -66.5t36.5 -55t54.5 -37t67.5 -13.5q39 0 71 14t55 37.5t35.5 55t12.5 65.5q0 37 -13 69t-36 56t-55 37.5t-70 13.5q-35 0 -66.5 -14t-55 -38t-37 -56t-13.5 -68z" />
<glyph unicode="&#x2026;" horiz-adv-x="1796" d="M1364 0h272v266h-272v-266zM764 0h272v266h-272v-266zM164 0h272v266h-272v-266z" />
<glyph unicode="&#x20ac;" horiz-adv-x="1071" d="M1024 1147q-18 26 -51.5 54.5t-81 52.5t-106.5 39.5t-128 15.5q-100 0 -181.5 -30t-142.5 -88t-100.5 -142.5t-56.5 -192.5h-90l-72 -176h146v-37q0 -12 1 -24.5t1 -24.5h-76l-72 -176h164q21 -114 64 -198t104.5 -139t140 -81.5t170.5 -26.5q74 0 146.5 13.5t136.5 54.5 v233q-50 -42 -123 -69t-160 -27q-55 0 -93 22.5t-63 58t-38 78t-19 81.5h277l74 176h-369v86h403l74 176h-463q41 248 217 248q42 0 77 -8.5t63 -22t49.5 -30t36.5 -31.5q29 -31 40 -46t17 -26z" />
<glyph unicode="&#x2116;" horiz-adv-x="1997" d="M1479 698q0 156 114 156q113 0 113 -156q0 -153 -113 -153q-114 0 -114 153zM1303 174h579v125h-579v-125zM1298 698q0 -69 20.5 -124.5t58.5 -95t92.5 -60.5t121.5 -21q68 0 122.5 21.5t93 61.5t59 95.5t20.5 122.5q0 69 -20.5 125.5t-58.5 96.5t-92.5 62t-123.5 22 t-123.5 -22t-92 -62.5t-57.5 -96.5t-20 -125zM377 0v913l547 -913h254v1311h-254v-914l-535 914h-266v-1311h254z" />
<glyph unicode="&#x2122;" horiz-adv-x="1796" d="M53 1309v-152h240v-633h188v633h240v152h-668zM1456 1309l-186 -463l-178 463h-277v-785h170v633l232 -633h104l240 633v-633h168v785h-273z" />
<glyph unicode="&#x25fc;" horiz-adv-x="960" d="M0 960h960v-960h-960v960z" />
</font>
</defs>
</svg>
