<?xml version="1.0" standalone="no"?>
<!DOCTYPE svg PUBLIC "-//W3C//DTD SVG 1.1//EN" "http://www.w3.org/Graphics/SVG/1.1/DTD/svg11.dtd" >
<svg xmlns="http://www.w3.org/2000/svg">
<metadata></metadata>
<defs>
<font id="helen_bgregular" horiz-adv-x="1026" >
<font-face units-per-em="2048" ascent="1638" descent="-410" />
<missing-glyph horiz-adv-x="573" />
<glyph horiz-adv-x="0" />
<glyph horiz-adv-x="682" />
<glyph unicode=" "  horiz-adv-x="573" />
<glyph unicode="&#x09;" horiz-adv-x="573" />
<glyph unicode="&#xa0;" horiz-adv-x="573" />
<glyph unicode="!" horiz-adv-x="348" d="M74 0v207h196v-207h-196zM74 1311h196l-41 -987h-116z" />
<glyph unicode="&#x22;" horiz-adv-x="600" d="M80 1311h174l-37 -531h-100zM352 1311h178l-34 -531h-107z" />
<glyph unicode="#" horiz-adv-x="1077" d="M25 426v111h225l39 264h-211v112h229l60 398h110l-59 -398h262l55 398h113l-55 -398h190v-112h-207l-37 -264h193v-111h-213l-60 -426h-112l59 426h-260l-70 -426h-108l65 426h-208zM362 537h261l41 264h-267z" />
<glyph unicode="$" horiz-adv-x="1049" d="M66 438h157q9 -69 22 -118.5t38.5 -84.5t68 -57t109.5 -37v455q-357 95 -357 344q0 80 26.5 141t74 104t113 67t143.5 30v154h104v-154q89 -9 154 -33t109 -66.5t69 -105.5t33 -151h-158q-12 55 -26.5 93.5t-34.5 61.5q-22 26 -59 43.5t-87 22.5v-408q80 -21 151 -49 t124.5 -70.5t84.5 -102.5t31 -146q0 -84 -30.5 -151.5t-83 -115.5t-124 -75t-153.5 -29v-188h-104v188q-386 44 -395 438zM270 948q0 -121 191 -188v391q-191 -34 -191 -203zM565 133q113 14 170.5 68.5t57.5 150.5q0 55 -16.5 89.5t-46.5 58t-72 39.5t-93 34v-440z" />
<glyph unicode="%" horiz-adv-x="1440" d="M78 946q0 177 60.5 264.5t185.5 87.5q231 0 231 -329q0 -170 -61 -264q-64 -95 -181 -95q-235 0 -235 336zM188 948q0 -246 125 -246q129 0 129 263q0 245 -125 245q-129 0 -129 -262zM313 0l695 1282h104l-698 -1282h-101zM872 317q0 355 240 355q238 0 238 -326 q0 -86 -16 -153t-47 -113.5t-75.5 -71t-101.5 -24.5q-238 0 -238 333zM983 324q0 -125 31 -185.5t96 -60.5q127 0 127 258q0 125 -31 185.5t-96 60.5q-127 0 -127 -258z" />
<glyph unicode="&#x26;" horiz-adv-x="1182" d="M80 342q0 113 72 208t219 179q-25 35 -49.5 66t-43.5 65t-30.5 73t-11.5 89q0 65 24.5 117.5t66.5 89.5t98 57.5t120 20.5q63 0 116.5 -18.5t93 -54.5t61.5 -88t22 -120q0 -64 -19.5 -112.5t-52 -87.5t-75 -71.5t-89.5 -64.5l232 -280q20 43 30 97.5t17 119.5h168 q-16 -99 -43 -183.5t-62 -158.5l236 -285h-209l-125 147q-175 -174 -383 -174q-81 0 -151 26.5t-121.5 75t-81 116.5t-29.5 151zM256 344q0 -48 17.5 -88.5t48.5 -69.5t73 -45t90 -16q142 0 265 141l-287 346q-48 -38 -86.5 -67t-65.5 -57.5t-41 -62t-14 -81.5zM399 1030 q0 -42 28.5 -98t84.5 -127q82 52 122 106.5t40 110.5q0 30 -10 55t-28 43.5t-43.5 28.5t-55.5 10q-31 0 -56.5 -9.5t-43.5 -26.5t-28 -40.5t-10 -52.5z" />
<glyph unicode="'" horiz-adv-x="373" d="M80 1311h174l-37 -531h-100z" />
<glyph unicode="(" horiz-adv-x="739" d="M152 453q0 134 20.5 243.5t60.5 209t99 197t135 208.5h129q-69 -109 -119 -207.5t-83 -199.5t-48.5 -210.5t-15.5 -240.5q0 -129 14.5 -235t46 -204t80 -196t115.5 -211h-119q-80 104 -139 201t-98 197.5t-58.5 209.5t-19.5 238z" />
<glyph unicode=")" horiz-adv-x="621" d="M35 -393q71 111 121.5 209.5t82.5 198t47 207.5t15 239q0 91 -6 167t-19.5 143.5t-34 129.5t-49 126.5t-66 133.5t-83.5 150h121q81 -107 140 -203.5t97.5 -196.5t57 -209t18.5 -241q0 -134 -19.5 -240.5t-58.5 -204.5t-98 -195.5t-137 -213.5h-129z" />
<glyph unicode="*" horiz-adv-x="823" d="M59 1034l41 133l197 -69v213h141v-213l197 69l45 -133l-203 -65l127 -168l-112 -82l-121 170l-125 -170l-113 82l125 168z" />
<glyph unicode="+" horiz-adv-x="1110" d="M104 565v133h363v351h139v-351h367v-133h-367v-358h-139v358h-363z" />
<glyph unicode="," horiz-adv-x="496" d="M162 0v209h200v-189q0 -247 -200 -286v96q26 9 43 22.5t26 30.5q11 19 17.5 47t9.5 70h-96z" />
<glyph unicode="-" horiz-adv-x="659" d="M100 371v153h422v-153h-422z" />
<glyph unicode="." horiz-adv-x="496" d="M162 0v207h200v-207h-200z" />
<glyph unicode="/" horiz-adv-x="659" d="M51 -260l371 1571h156l-369 -1571h-158z" />
<glyph unicode="0" d="M70 623q0 688 440 688q209 0 317.5 -164.5t108.5 -474.5q0 -78 -7.5 -160.5t-26.5 -160.5t-51.5 -147t-81 -121t-115.5 -82t-156 -30q-428 0 -428 652zM246 631q0 -490 252 -490q266 0 266 523q0 483 -256 483q-134 0 -198 -127.5t-64 -388.5z" />
<glyph unicode="1" d="M166 913v136q80 5 135.5 18t87.5 33q42 23 70 68.5t45 113.5h129v-1282h-166v913h-301z" />
<glyph unicode="2" d="M74 0q3 215 98 348q66 98 231 197q80 48 147.5 87t117 80t77 90t27.5 116q0 53 -18 95.5t-50.5 72t-76.5 45.5t-97 16q-247 0 -258 -313h-170q5 102 23.5 177.5t52.5 125.5q120 174 357 174q90 0 165.5 -24.5t129.5 -73.5t84 -120.5t30 -166.5q0 -76 -22 -134.5 t-58.5 -105.5t-84.5 -83.5t-100 -68t-105.5 -60t-100.5 -58.5q-90 -59 -142.5 -120t-68.5 -132h678v-164h-866z" />
<glyph unicode="3" d="M80 414h170q18 -273 276 -273q55 0 102.5 16.5t83 48t56 77.5t20.5 104q0 221 -290 221h-84v146h82q243 0 243 194q0 93 -59 146t-162 53q-219 0 -242 -270h-167q2 101 29 181.5t80 136.5t131 86t181 30q83 0 154 -23.5t123 -68.5t81.5 -111t29.5 -152q0 -51 -9 -90 t-29 -69.5t-52 -54.5t-78 -44q215 -59 215 -305q0 -97 -32.5 -175.5t-92 -133t-141.5 -84t-181 -29.5q-210 0 -321 113t-117 330z" />
<glyph unicode="4" d="M35 301v203l596 778h170v-815h182v-166h-182v-301h-166v301h-600zM203 467h432v571z" />
<glyph unicode="5" d="M80 346h172q36 -205 254 -205q61 0 110.5 18.5t85 53t55 84.5t19.5 113q0 60 -19.5 110.5t-55 87t-85 56.5t-110.5 20q-71 0 -131.5 -30t-110.5 -87l-143 11l102 704h660v-166h-535l-57 -352q113 84 246 84q91 0 166.5 -30.5t130 -86t84.5 -131.5t30 -168 q0 -99 -31 -183.5t-89 -146t-140.5 -96.5t-185.5 -35q-186 0 -295.5 97t-126.5 278z" />
<glyph unicode="6" d="M82 600q0 711 471 711q87 0 152.5 -25t110.5 -71.5t71 -113t35 -149.5h-170q-12 49 -27 85.5t-38.5 61t-58 36.5t-85.5 12q-58 0 -101 -19t-74 -52t-51.5 -77.5t-34 -95.5t-21 -105.5t-13.5 -107.5q123 154 299 154q89 0 162.5 -30t126 -84t81.5 -128.5t29 -163.5 q0 -97 -29 -182.5t-83.5 -148.5t-133 -99.5t-178.5 -36.5q-108 0 -190.5 41t-138 121t-83.5 197t-28 270zM270 414q0 -61 18 -111.5t51 -86.5t79 -55.5t102 -19.5q59 0 105.5 22t78.5 59.5t49 88t17 107.5q0 54 -17 102t-48.5 83.5t-77 56t-101.5 20.5q-57 0 -104 -18.5 t-80.5 -53t-52.5 -83.5t-19 -111z" />
<glyph unicode="7" d="M90 1112v170h879v-152q-201 -241 -332.5 -521t-194.5 -609h-184q54 315 184.5 591.5t337.5 520.5h-690z" />
<glyph unicode="8" d="M74 373q0 227 202 321q-163 76 -163 262q0 87 30.5 153.5t83.5 111t124.5 67.5t152.5 23q83 0 154.5 -21.5t124.5 -64.5t83.5 -108.5t30.5 -153.5q0 -192 -162 -269q201 -85 201 -315q0 -93 -32.5 -168.5t-90 -128.5t-136.5 -82t-173 -29t-173 27.5t-136 79t-89 126.5 t-32 169zM246 367q0 -55 20 -97.5t55.5 -71t83.5 -43t103 -14.5t102 16.5t81 47t53.5 75t19.5 99.5q0 54 -19.5 97t-54 73t-82 45.5t-104.5 15.5q-55 0 -102 -19t-81.5 -52t-54.5 -77t-20 -95zM289 948q0 -184 215 -184q102 0 158.5 50.5t56.5 141.5q0 45 -16.5 80.5t-45 60 t-68 37.5t-85.5 13q-100 0 -157.5 -53t-57.5 -146z" />
<glyph unicode="9" d="M78 864q0 95 28.5 177t81.5 142t130 94t174 34q444 0 444 -621q0 -339 -123 -530q-124 -189 -342 -189q-330 0 -377 357h172q38 -187 211 -187q153 0 228 172q23 51 39 126t28 177q-87 -170 -301 -170q-94 0 -167 30.5t-123 85.5t-76.5 132t-26.5 170zM250 879 q0 -60 16 -109.5t47 -85t76 -55t103 -19.5q56 0 101 19t76.5 53t48.5 80.5t17 101.5q0 57 -15.5 108.5t-45.5 90t-74.5 61.5t-103.5 23q-58 0 -103.5 -20t-77 -56t-48.5 -85t-17 -107z" />
<glyph unicode=":" horiz-adv-x="496" d="M162 0v207h200v-207h-200zM162 750v206h200v-206h-200z" />
<glyph unicode=";" horiz-adv-x="496" d="M162 0v209h200v-189q0 -247 -200 -286v96q26 9 43 22.5t26 30.5q11 19 17.5 47t9.5 70h-96zM162 750v206h200v-206h-200z" />
<glyph unicode="&#x3c;" horiz-adv-x="1110" d="M100 578v102l873 385v-135l-697 -299l697 -299v-137z" />
<glyph unicode="=" horiz-adv-x="1110" d="M104 432v137h869v-137h-869zM104 690v137h869v-137h-869z" />
<glyph unicode="&#x3e;" horiz-adv-x="1110" d="M100 195v137l697 299l-697 299v135l873 -385v-102z" />
<glyph unicode="?" horiz-adv-x="993" d="M104 901q0 98 26.5 178t78 137t127.5 88t174 31q82 0 153 -22.5t123 -66.5t81.5 -108.5t29.5 -148.5q0 -54 -10.5 -96.5t-31.5 -79.5t-52.5 -71.5t-73.5 -73.5q-51 -44 -82 -79t-45 -61q-15 -27 -24 -73t-11 -109h-170q0 59 6.5 106t18.5 83q14 35 56 89t116 126 q131 128 131 233q0 48 -16 85.5t-44.5 63.5t-68 40t-86.5 14q-213 0 -238 -285h-168zM383 0v207h195v-207h-195z" />
<glyph unicode="@" horiz-adv-x="1731" d="M287 651q0 86 20 169.5t59 159.5t97 141t133 112.5t167.5 74.5t201.5 27q87 0 166 -20t147 -57t123.5 -88t95 -113.5t61 -133.5t21.5 -147q0 -217 -139 -362q-26 -28 -63 -55t-78 -48.5t-83.5 -35t-80.5 -13.5q-101 0 -101 96q-73 -88 -190 -88q-69 0 -122 25.5t-89 70 t-54 104t-18 126.5q0 105 33 182.5t85 128.5t117.5 76t129.5 25q72 0 127.5 -31.5t93.5 -97.5l20 108h127l-96 -545q-2 -12 -4 -21.5t-2 -19.5q0 -15 8 -24.5t31 -9.5q24 0 50.5 13t51 33t45.5 43t33 42q68 107 68 252q0 102 -38.5 190t-108 152.5t-165.5 101.5t-211 37 q-130 0 -235.5 -46t-180.5 -124.5t-116 -183t-41 -222.5q0 -130 46.5 -236.5t127.5 -181.5t189 -116t231 -41q211 0 401 178h125q-57 -71 -113.5 -125t-120.5 -90t-137 -54t-163 -18q-148 0 -273.5 52.5t-216 144.5t-141.5 216t-51 267zM725 610q0 -39 11 -74t32 -61 t52.5 -41.5t72.5 -15.5q51 2 90.5 26t65.5 61.5t39.5 85.5t13.5 99q0 38 -12.5 69.5t-34 54.5t-51 35.5t-64.5 12.5q-48 0 -88 -22t-68 -57.5t-43.5 -80.5t-15.5 -92z" />
<glyph unicode="A" horiz-adv-x="1167" d="M0 0l504 1311h190l473 -1311h-198l-133 389h-504l-137 -389h-195zM389 537h395l-194 575z" />
<glyph unicode="B" horiz-adv-x="1206" d="M121 0v1311h483q109 0 185 -18t124 -56q63 -50 96 -115.5t33 -148.5q0 -196 -172 -266q104 -31 166 -123q62 -91 62 -205q0 -205 -142 -305q-101 -74 -335 -74h-500zM307 164h293q309 0 309 219q0 108 -72.5 162.5t-215.5 54.5h-314v-436zM307 764h303q244 0 244 184 q0 54 -14.5 92t-45.5 61.5t-80 34.5t-118 11h-289v-383z" />
<glyph unicode="C" horiz-adv-x="1294" d="M80 643q0 152 41 279t119 218.5t191 143t257 51.5q105 0 199 -26t167 -79t120 -135t57 -194h-180q-65 268 -361 268q-111 0 -190.5 -41t-131 -111.5t-76 -165t-24.5 -200.5q0 -109 24.5 -202.5t74.5 -161.5t126.5 -107t180.5 -39q77 0 140.5 23.5t111.5 67.5t80 108.5 t45 146.5h180q-10 -112 -55 -206.5t-117.5 -163.5t-168.5 -107.5t-208 -38.5q-107 0 -193.5 25.5t-153.5 71.5t-115 108.5t-79.5 137.5t-46 158.5t-14.5 170.5z" />
<glyph unicode="D" horiz-adv-x="1266" d="M113 0v1311h442q45 0 95.5 -1.5t103 -10.5t105.5 -29t104 -56q114 -81 168.5 -218.5t54.5 -327.5q0 -121 -24 -223.5t-75 -190.5q-44 -78 -98 -127t-118.5 -77.5t-139.5 -39t-162 -10.5h-456zM293 164h268q117 0 199.5 30.5t135 93.5t77 158.5t24.5 225.5q0 97 -19 183 t-68.5 151t-136 103t-222.5 38h-258v-983z" />
<glyph unicode="E" horiz-adv-x="1163" d="M121 0v1311h940v-164h-760v-387h705v-164h-705v-432h760v-164h-940z" />
<glyph unicode="F" horiz-adv-x="1106" d="M121 0v1311h901v-164h-715v-393h625v-164h-625v-590h-186z" />
<glyph unicode="G" horiz-adv-x="1366" d="M84 647q0 146 41 271.5t119.5 218t194.5 145.5t266 53q455 0 538 -428h-184q-71 262 -359 262q-111 0 -192.5 -40.5t-134 -111t-78 -164.5t-25.5 -202q0 -106 26 -199t79.5 -162t134.5 -109t190 -40q91 0 164 30t124.5 84.5t79.5 131t28 168.5h-406v147h572v-696h-117 l-45 162q-46 -51 -90.5 -88.5t-93 -61.5t-104 -35.5t-124.5 -11.5q-128 0 -238.5 43.5t-191.5 129t-127.5 211.5t-46.5 292z" />
<glyph unicode="H" horiz-adv-x="1227" d="M121 0v1311h186v-539h613v539h186v-1311h-186v606h-613v-606h-186z" />
<glyph unicode="I" horiz-adv-x="426" d="M121 0h186v1311h-186v-1311z" />
<glyph unicode="J" horiz-adv-x="883" d="M35 418q0 -57 2.5 -97t5.5 -63q10 -67 40 -120.5t76 -90.5t106.5 -56.5t131.5 -19.5q19 0 53.5 2t75.5 14.5t84 39t78 75.5t57.5 125t22.5 187v897h-182v-897q0 -59 -6 -109t-25.5 -86.5t-56 -57t-97.5 -20.5q-64 0 -101.5 24.5t-57 65.5t-24.5 94.5t-5 112.5h-178v-20z " />
<glyph unicode="K" horiz-adv-x="1167" d="M121 0h186v389l189 195l450 -584h217l-545 713l535 598h-233l-613 -693v693h-186v-1311z" />
<glyph unicode="L" horiz-adv-x="989" d="M121 0h844v164h-658v1147h-186v-1311z" />
<glyph unicode="M" horiz-adv-x="1550" d="M123 0h186v1053l381 -1053h168l385 1049v-1049h187v1311h-259l-395 -1094l-391 1094h-262v-1311z" />
<glyph unicode="N" horiz-adv-x="1227" d="M121 0h180v1038l600 -1038h201v1311h-182v-1030l-596 1030h-203v-1311z" />
<glyph unicode="O" horiz-adv-x="1421" d="M80 643q0 -147 42 -270t122.5 -212.5t197 -139.5t265.5 -50q157 0 277 54t201.5 147.5t123 221t41.5 274.5t-43 270t-124 211t-198 137t-266 49q-154 0 -273.5 -51t-200.5 -142.5t-123 -219t-42 -279.5zM270 647q0 111 26.5 206.5t81 165.5t138.5 110t199 40 q111 0 195 -37.5t140.5 -104t84.5 -158.5t28 -201q0 -113 -26.5 -209.5t-81 -167t-139 -110.5t-201.5 -40q-111 0 -194.5 38.5t-139 106t-83.5 160.5t-28 201z" />
<glyph unicode="P" horiz-adv-x="1176" d="M121 0h186v512h338q98 0 181.5 27t144.5 79.5t96 128.5t35 175q0 105 -38 179t-103 120.5t-152.5 68t-185.5 21.5h-502v-1311zM307 678v469h316q288 0 288 -227q0 -242 -321 -242h-283z" />
<glyph unicode="Q" horiz-adv-x="1427" d="M80 647q0 -144 42.5 -268t123 -214.5t198 -142t267.5 -51.5q102 0 185 21.5t153 66.5l188 -153l98 114l-168 138q183 189 183 510q0 147 -43 270t-124 211t-198 137t-266 49q-151 0 -270 -51.5t-201 -143.5t-125 -218t-43 -275zM270 647q0 111 26.5 206.5t81 165.5 t138.5 110t199 40q111 0 195 -36.5t140.5 -102.5t84.5 -158.5t28 -203.5q0 -130 -34 -230t-99 -172l-166 131l-96 -110l139 -109q-91 -37 -192 -37q-111 0 -194.5 38.5t-139 106.5t-83.5 160.5t-28 200.5z" />
<glyph unicode="R" horiz-adv-x="1214" d="M121 0h180v561h350q65 0 116.5 -6t86.5 -27.5t53.5 -63t18.5 -112.5v-164q0 -80 30 -188h213q-27 42 -42 93.5t-15 113.5v145q0 62 -4.5 109.5t-21 83.5t-49.5 62t-89 44q187 81 187 297q0 104 -31.5 173.5t-91.5 111.5t-147.5 60t-200.5 18h-543v-1311zM301 725v422h358 q62 0 115 -8.5t91 -32t59.5 -65.5t21.5 -109q0 -71 -23 -112t-63.5 -62t-96 -27t-120.5 -6h-342z" />
<glyph unicode="S" horiz-adv-x="1198" d="M80 393q0 -422 526 -422q97 0 188.5 23t163 71.5t115 123.5t43.5 178q0 105 -60 180.5t-184 120.5l-415 155q-34 13 -60 25t-44 28.5t-27 39.5t-9 57q0 51 25.5 88t66 61t90 35.5t97.5 11.5q143 0 215 -60.5t72 -195.5h190q0 109 -31.5 188.5t-91.5 131.5t-148 77 t-202 25q-90 0 -175 -23t-150.5 -70t-105.5 -118t-40 -168q0 -106 61 -180t183 -121l399 -147q160 -61 160 -160q0 -58 -29 -97.5t-75 -64t-102 -35t-110 -10.5q-53 0 -106 7.5t-98.5 26.5t-79.5 50t-49 78q-7 19 -9 51.5t-4 83.5h-190v-45z" />
<glyph unicode="T" horiz-adv-x="1126" d="M39 1147h432v-1147h180v1147h434v164h-1046v-164z" />
<glyph unicode="U" horiz-adv-x="1257" d="M119 475q0 -121 34 -215t99.5 -158t160.5 -97.5t216 -33.5q120 0 215 36.5t160.5 104.5t100 164.5t34.5 215.5v819h-181v-819q0 -79 -20.5 -144t-61.5 -111t-101.5 -71t-141.5 -25q-328 0 -328 355v815h-186v-836z" />
<glyph unicode="V" horiz-adv-x="1196" d="M0 1311l504 -1311h186l508 1311h-197l-395 -1102l-407 1102h-199z" />
<glyph unicode="W" horiz-adv-x="1667" d="M0 1311l336 -1311h190l297 1227l303 -1227h185l356 1311h-194l-207 -785q-17 -77 -29.5 -142t-22.5 -118l-59 260l-235 785h-187l-235 -785q-19 -75 -34 -140.5t-26 -119.5q-15 93 -27.5 158t-21.5 102l-190 785h-199z" />
<glyph unicode="X" horiz-adv-x="1171" d="M0 0h213l373 530l360 -530h223l-467 676l439 635h-211l-346 -500l-330 500h-221l444 -643z" />
<glyph unicode="Y" horiz-adv-x="1196" d="M0 1311l510 -793v-518h184v518l504 793h-215l-377 -621l-393 621h-213z" />
<glyph unicode="Z" horiz-adv-x="1065" d="M20 0h1014v164h-792l792 987v160h-956v-164h731l-789 -985v-162z" />
<glyph unicode="[" horiz-adv-x="578" d="M129 -393h317v164h-153v1376h153v164h-317v-1704z" />
<glyph unicode="\" horiz-adv-x="698" d="M92 1311l369 -1571h162l-369 1571h-162z" />
<glyph unicode="]" horiz-adv-x="535" d="M80 -229v-164h313v1704h-313v-164h149v-1376h-149z" />
<glyph unicode="^" horiz-adv-x="719" d="M43 1085h145l129 129l129 -129h150l-178 265h-195z" />
<glyph unicode="_" horiz-adv-x="1155" d="M0 -160v-135h1155v135h-1155z" />
<glyph unicode="`" horiz-adv-x="739" d="M168 1350l203 -265h133l-121 265h-215z" />
<glyph unicode="a" horiz-adv-x="1030" d="M66 262q0 -68 22.5 -122t63.5 -91.5t97.5 -57.5t123.5 -20q91 0 172.5 40t156.5 118q20 -158 154 -158q28 0 56 9t57 26v131q-16 -8 -30 -12t-30 -4q-29 0 -42 25.5t-13 76.5v457q0 86 -26.5 144t-74.5 93.5t-115.5 50.5t-150.5 15t-153 -19.5t-121 -60t-80 -101 t-29 -143.5h162q0 183 213 183q211 0 211 -191v-57q-84 -7 -160 -16t-141 -22t-118.5 -31.5t-92.5 -45.5q-112 -77 -112 -217zM238 264q0 99 98 142q95 41 354 71v-131q-2 -54 -27.5 -95.5t-64.5 -70.5t-87.5 -44t-96.5 -15q-176 0 -176 143z" />
<glyph unicode="b" horiz-adv-x="1016" d="M121 0h166v109q54 -69 120.5 -103.5t143.5 -34.5q101 0 174.5 45t121 118.5t70.5 168t23 193.5q0 92 -21 179.5t-66 156t-115.5 110t-168.5 41.5q-77 0 -147 -37.5t-135 -109.5v475h-166v-1311zM287 477q0 84 15.5 150t45 112t72.5 70.5t98 24.5q68 0 115 -30.5t76 -81 t42 -114.5t13 -131q0 -64 -13 -127t-42 -113t-76 -81t-115 -31q-67 0 -112 31.5t-71 81.5t-37 113t-11 126z" />
<glyph unicode="c" horiz-adv-x="993" d="M80 461q0 -108 27.5 -198.5t83 -155t138 -100.5t193.5 -36q85 0 155.5 28t122.5 78t82.5 119t35.5 150h-168q-56 -221 -228 -221q-264 0 -264 367q0 68 14.5 130t46 109t81.5 75t122 28q181 0 228 -207h168q-8 82 -40 148t-83.5 112t-121 71t-151.5 25q-114 0 -197.5 -40 t-138 -110t-80.5 -165.5t-26 -206.5z" />
<glyph unicode="d" horiz-adv-x="1016" d="M78 461q0 -92 22.5 -180t69 -157t118 -111t169.5 -42q51 0 88.5 8.5t68.5 27t59.5 47.5t59.5 71v-125h164v1311h-164v-449q-98 121 -262 121q-101 0 -175 -44t-122.5 -116.5t-72 -166.5t-23.5 -195zM254 477q0 357 244 357q235 0 235 -357q0 -352 -235 -352 q-244 0 -244 352z" />
<glyph unicode="e" d="M80 477q0 -106 27 -198t82 -160.5t137 -108t192 -39.5q79 0 148.5 24.5t124.5 69t92.5 107.5t52.5 141h-172q-44 -188 -242 -188q-246 0 -264 301h690v78q0 101 -24 188.5t-74.5 152t-129.5 101.5t-190 37q-110 0 -194 -39t-141 -107t-86 -160.5t-29 -199.5zM262 573 q14 132 80.5 196.5t183.5 64.5q113 0 179 -68.5t75 -192.5h-518z" />
<glyph unicode="f" horiz-adv-x="621" d="M59 819h121v-819h166v819h164v137h-164v97q0 133 100 133q8 0 25 -3t39 -9v153q-37 5 -62 6.5t-42 1.5q-75 0 -120 -25t-68.5 -68t-30.5 -98.5t-7 -117.5v-70h-121v-137z" />
<glyph unicode="g" horiz-adv-x="1018" d="M80 461q0 -95 21 -179t66 -146.5t116 -99t170 -36.5q81 0 150.5 37t129.5 115q0 -103 -14.5 -178t-45.5 -123.5t-79.5 -71.5t-116.5 -23q-45 0 -77.5 7.5t-55.5 25t-38 45t-25 66.5h-164q10 -77 36 -132.5t70.5 -91t108.5 -52.5t149 -17q125 0 205.5 37.5t127 107.5 t65 169.5t18.5 223.5v811h-164v-129q-52 78 -120 117t-156 39q-100 0 -171.5 -43.5t-117 -115.5t-67 -166.5t-21.5 -196.5zM258 477q0 63 11.5 126.5t39.5 115t73.5 83.5t113.5 32q65 0 110.5 -32.5t73.5 -84.5t40.5 -115t12.5 -125q0 -63 -12.5 -122t-40.5 -104.5 t-73.5 -73t-110.5 -27.5q-113 0 -175.5 84t-62.5 243z" />
<glyph unicode="h" horiz-adv-x="1006" d="M121 0h166v510q0 53 10 110t37.5 104.5t76 78.5t126.5 31q56 0 91.5 -17t55.5 -48.5t27.5 -76.5t7.5 -102v-590h164v631q0 352 -310 352q-83 0 -154.5 -33t-131.5 -96v457h-166v-1311z" />
<glyph unicode="i" horiz-adv-x="403" d="M121 0h166v956h-166v-956zM121 1120h166v191h-166v-191z" />
<glyph unicode="j" horiz-adv-x="446" d="M-12 -233v-152q18 -3 42 -5.5t56 -2.5q221 0 221 282v1067h-166v-1044q0 -32 -1.5 -60.5t-10.5 -49.5t-27 -33t-51 -13q-28 0 -63 11zM141 1120h166v191h-166v-191z" />
<glyph unicode="k" horiz-adv-x="926" d="M117 0h164v348l104 98l309 -446h203l-393 569l366 387h-217l-372 -421v776h-164v-1311z" />
<glyph unicode="l" horiz-adv-x="446" d="M141 0h166v1311h-166v-1311z" />
<glyph unicode="m" horiz-adv-x="1503" d="M125 0h164v514q0 119 18 162q58 158 219 158q48 0 77 -16t44.5 -46t20 -72.5t4.5 -95.5v-604h164v510q0 62 5.5 108.5t14.5 75.5q11 32 31.5 58t47 44t58 28t64.5 10q162 0 162 -211v-623h163v651q0 165 -71 248.5t-217 83.5q-49 0 -89 -10t-73.5 -28.5t-63.5 -45 t-59 -59.5q-90 143 -242 143q-48 0 -86 -10t-70 -29t-61 -45.5t-61 -58.5v116h-164v-956z" />
<glyph unicode="n" horiz-adv-x="1006" d="M123 0h164v504q0 66 3 110t11 66q12 35 35 63t52.5 48.5t65 31.5t72.5 11q59 0 96.5 -17.5t59 -50.5t29.5 -80.5t8 -107.5v-578h164v610q0 66 -6 116.5t-15 84.5q-16 42 -45.5 74.5t-67.5 54t-82 32.5t-89 11q-48 0 -88 -8.5t-74.5 -26.5t-65.5 -46t-63 -68v122h-164 v-956z" />
<glyph unicode="o" horiz-adv-x="1018" d="M76 477q0 -109 27 -202t81 -160.5t135.5 -105.5t190.5 -38t190.5 39.5t135.5 108.5t81 161t27 197q0 108 -26.5 200.5t-80 160.5t-135 106.5t-192.5 38.5q-112 0 -194 -38.5t-135 -106.5t-79 -160.5t-26 -200.5zM252 477q0 84 17 150.5t50 112.5t81 70t110 24 q70 0 119 -29.5t80 -78t45 -111t14 -128.5q0 -174 -67 -268t-191 -94q-62 0 -110 24t-81 69t-50 110.5t-17 148.5z" />
<glyph unicode="p" horiz-adv-x="1018" d="M121 -369h166v469q55 -63 122.5 -96t145.5 -33q67 0 121 21t96 56.5t73 85t51.5 107t30 121.5t9.5 130q0 95 -20 183.5t-64 157t-114.5 109.5t-172.5 41q-48 0 -85.5 -8t-69.5 -25t-61.5 -43t-61.5 -63v112h-166v-1325zM281 477q0 84 16.5 150t47.5 112t75.5 70.5 t101.5 24.5q67 0 113 -30.5t74.5 -80.5t41.5 -114t13 -132q0 -64 -12 -127t-40 -113t-74.5 -81t-115.5 -31q-70 0 -116 31t-74 80.5t-39.5 113t-11.5 127.5z" />
<glyph unicode="q" horiz-adv-x="1016" d="M80 467q0 -94 20 -183.5t64.5 -159t115 -111.5t171.5 -42q88 0 154.5 38t113.5 112v-490h164v1325h-164v-116q-59 143 -258 143q-97 0 -169 -43t-119 -115t-70 -165t-23 -193zM258 477q0 61 11.5 124.5t38 115t70.5 84.5t109 33q66 0 110.5 -33t71.5 -84.5t38.5 -115 t11.5 -124.5q0 -60 -11.5 -122.5t-38.5 -113.5t-71.5 -83.5t-110.5 -32.5q-64 0 -108 33t-71 84t-38.5 113.5t-11.5 121.5z" />
<glyph unicode="r" horiz-adv-x="635" d="M121 0h166v475q0 156 43 230q61 100 205 100q15 0 27.5 -0.5t23.5 -3.5v176q-22 6 -68 6q-142 0 -231 -182v155h-166v-956z" />
<glyph unicode="s" horiz-adv-x="907" d="M72 313q0 -165 98.5 -253.5t282.5 -88.5q74 0 143.5 19t123 58t86 98.5t32.5 140.5q0 44 -11.5 76.5t-36.5 59.5t-64.5 49.5t-96.5 45.5l-279 113q-82 33 -82 88q0 32 17.5 53.5t44.5 35.5t59.5 20t61.5 6q184 0 190 -154h170q-1 75 -29.5 132t-76.5 95t-112.5 57 t-137.5 19q-67 0 -131.5 -17.5t-115 -52.5t-81.5 -87.5t-31 -123.5q0 -140 172 -215l301 -129q93 -39 93 -96q0 -31 -15 -56t-42 -43t-65 -28t-85 -10q-111 0 -161 43.5t-50 144.5h-172z" />
<glyph unicode="t" horiz-adv-x="530" d="M35 819h127v-569q0 -67 6.5 -119.5t27.5 -87.5t60.5 -53.5t105.5 -18.5q3 0 21.5 1.5t40.5 3t40 2.5l17 2v145q-9 -2 -22 -3t-27 -1q-34 2 -55 7t-31.5 18t-14 35t-3.5 57v581h153v137h-153v238h-166v-238h-127v-137z" />
<glyph unicode="u" horiz-adv-x="1008" d="M121 342q0 -371 311 -371q216 0 293 179v-150h164v956h-164v-485q0 -156 -57 -242q-71 -104 -197 -104q-102 0 -141 49q-23 26 -33 70t-10 104v608h-166v-614z" />
<glyph unicode="v" horiz-adv-x="864" d="M0 956l342 -956h166l356 956h-182l-250 -753l-252 753h-180z" />
<glyph unicode="w" horiz-adv-x="1286" d="M10 956l279 -956h166l186 735l184 -735h168l287 956h-170l-152 -550q-15 -60 -25.5 -106.5t-17.5 -78.5q-14 78 -23.5 123.5t-14.5 61.5l-140 550h-184l-145 -559q-14 -59 -23.5 -105.5t-15.5 -78.5q-16 72 -26 118t-13 66l-140 559h-180z" />
<glyph unicode="x" horiz-adv-x="883" d="M10 0h201l233 367l230 -367h207l-336 504l319 452h-207l-213 -329l-208 329h-209l317 -464z" />
<glyph unicode="y" horiz-adv-x="883" d="M10 956l355 -976q-26 -72 -45.5 -116.5t-34.5 -66.5q-30 -41 -84 -41q-42 0 -99 25v-158q36 -9 71 -12.5t67 -3.5q106 0 172 96q21 28 42 75t46 116l381 1062h-181l-247 -757l-256 757h-187z" />
<glyph unicode="z" horiz-adv-x="877" d="M55 0h768v150h-553l539 677v129h-715v-147h502l-541 -676v-133z" />
<glyph unicode="{" horiz-adv-x="698" d="M92 457q146 -32 146 -181v-421q0 -78 21.5 -130t66.5 -77q61 -37 229 -37q-154 36 -154 188v439q0 49 -8.5 85.5t-23.5 61.5q-37 50 -123 72q89 27 123 69q15 23 23.5 57t8.5 81v452q0 48 12.5 83.5t37.5 55.5q17 21 104 56h-29q-146 0 -217 -55t-71 -164v-457 q0 -72 -37 -116t-109 -62z" />
<glyph unicode="|" horiz-adv-x="453" d="M178 -260h139v1571h-139v-1571z" />
<glyph unicode="}" horiz-adv-x="659" d="M70 -389q164 0 229 41q43 25 65.5 76t22.5 127v421q0 150 143 181q-143 36 -143 178v457q0 71 -25 117t-73 71q-67 31 -219 31q40 -16 68 -32.5t42 -35.5q22 -20 31.5 -52.5t9.5 -74.5v-452q0 -89 35 -136q34 -44 123 -71q-88 -22 -123 -72t-35 -147v-439 q0 -152 -151 -188z" />
<glyph unicode="~" horiz-adv-x="739" d="M25 1135h108q31 63 74 63q15 0 42 -7.5t62 -23.5q68 -32 107 -32q69 0 114.5 53t71.5 162h-108q-20 -34 -36.5 -51t-33.5 -17q-20 0 -47.5 8t-61.5 25q-35 17 -62.5 26t-45.5 9q-139 0 -184 -215z" />
<glyph unicode="&#xa4;" horiz-adv-x="1788" d="M117 0h188v623h131q2 -149 45 -269.5t124 -205.5t198.5 -131t267.5 -46q151 0 268.5 54t198 148t122.5 222.5t42 276.5q0 153 -44 276t-126 209t-199 132t-262 46q-133 0 -241.5 -39t-189.5 -113t-132 -179.5t-68 -239.5h-135v547h-188v-1311zM621 647q0 125 30.5 222.5 t88.5 164t141.5 101t189.5 34.5q103 0 185 -34.5t139 -99t87.5 -157.5t30.5 -210q0 -124 -30 -221.5t-86.5 -164.5t-138.5 -102t-187 -35q-104 0 -187.5 34.5t-142 99.5t-89.5 158t-31 210zM711 1663l202 -262h131l-118 262h-215z" />
<glyph unicode="&#xa6;" horiz-adv-x="1556" d="M121 0h497q129 0 217 38.5t142 100t78 138t24 153.5q0 74 -25.5 145.5t-78.5 128t-135 91t-195 34.5h-340v482h-184v-1311zM305 164v500h303q64 0 116 -16t89 -47t57.5 -76.5t20.5 -104.5q0 -64 -24 -112t-64.5 -80t-93 -48t-109.5 -16h-295zM467 1663l201 -262h133 l-121 262h-213zM1255 0h185v1311h-185v-1311z" />
<glyph unicode="&#xa7;" horiz-adv-x="997" d="M76 578q0 -96 59 -179.5t180 -158.5l168 -105q36 -21 67.5 -42t55 -44t37.5 -49t14 -57t-11.5 -56t-32.5 -43t-49.5 -27.5t-63.5 -9.5q-172 0 -185 199h-168q0 -165 88 -255.5t257 -90.5q69 0 130 19.5t106.5 57t72 93.5t26.5 129q0 51 -20 98.5t-62 94.5 q88 55 131.5 126.5t43.5 157.5q0 191 -252 338l-158 92q-34 20 -64.5 40.5t-53.5 42t-36.5 46.5t-13.5 54q0 60 42 96.5t112 36.5q169 0 172 -193h166q-4 174 -84.5 258t-239.5 84q-70 0 -131 -20.5t-105.5 -59t-70 -93.5t-25.5 -124q0 -99 78 -186q-45 -28 -79 -54 t-56.5 -56.5t-33.5 -68.5t-11 -91zM240 596q0 48 26 90.5t82 79.5l230 -141q176 -107 176 -222q0 -95 -111 -170l-285 183q-118 76 -118 180z" />
<glyph unicode="&#xa9;" horiz-adv-x="1321" d="M-18 653q0 -94 24.5 -181t69 -162t107 -136.5t138 -105t162 -67.5t179.5 -24q97 0 185 24.5t163.5 69t136 106.5t103.5 137t66 161t23 178q0 99 -25.5 187.5t-70.5 163.5t-108 135.5t-138.5 103t-160.5 65.5t-174 23q-94 0 -180.5 -24t-162.5 -68.5t-138 -106t-106 -137 t-68.5 -162t-24.5 -180.5zM80 655q0 123 46 229.5t125.5 184.5t185.5 123t225 45q82 0 157 -21t139 -59.5t116 -91.5t88.5 -118t56.5 -139.5t20 -154.5q0 -127 -47 -233t-126.5 -182.5t-184 -119t-219.5 -42.5q-122 0 -228.5 45t-185 123t-123.5 183.5t-45 227.5zM307 651 q0 -88 22.5 -161t67.5 -125t112 -80.5t155 -28.5q70 0 126.5 21.5t98.5 61.5t68 97.5t34 128.5h-117q-14 -102 -68 -152.5t-147 -50.5q-111 0 -171 78t-60 215q0 141 63.5 219t178.5 78q167 0 207 -153h114q-4 66 -31 115t-70.5 82t-100.5 49t-121 16q-88 0 -155 -32 t-113 -87.5t-69.5 -130t-23.5 -160.5z" />
<glyph unicode="&#xab;" horiz-adv-x="997" d="M172 406l289 -289v213l-166 166l166 161v205l-289 -291v-165zM522 406l293 -289v213l-168 166l168 161v205l-293 -291v-165z" />
<glyph unicode="&#xac;" horiz-adv-x="1049" d="M90 414h729v-414h139v553h-868v-139z" />
<glyph unicode="&#xad;" horiz-adv-x="659" d="M100 371v153h422v-153h-422z" />
<glyph unicode="&#xae;" horiz-adv-x="1321" d="M-18 653q0 -139 52.5 -262t144.5 -215t216 -145.5t267 -53.5q94 0 180.5 23.5t162 66.5t137 104t105.5 136.5t68 162.5t24 183q0 97 -25.5 185t-70.5 163.5t-108 136.5t-138.5 104t-160.5 66t-174 23q-94 0 -180.5 -24.5t-162.5 -68.5t-138 -106t-106 -137.5t-68.5 -162 t-24.5 -179.5zM80 655q0 119 45 225t123.5 185.5t185 125.5t228.5 46q119 0 224 -46t183.5 -125.5t124 -186t45.5 -226.5q0 -127 -47 -233.5t-126.5 -182.5t-184 -118.5t-219.5 -42.5q-120 0 -226 45.5t-185 124t-125 184t-46 225.5zM379 270h117v326h198q54 0 89.5 -11.5 t52.5 -31.5q11 -16 16.5 -44t5.5 -73q2 -54 6 -95.5t10 -70.5h138q-17 29 -27 66t-12 82q-3 65 -5.5 98.5t-2.5 38.5q-16 70 -84 102q102 59 102 177q0 215 -283 215h-321v-779zM496 700v238h202q45 0 77 -6t51.5 -20t28.5 -36.5t9 -56.5q0 -63 -39.5 -91t-134.5 -28h-194z " />
<glyph unicode="&#xb0;" horiz-adv-x="727" d="M66 1036q0 -63 23 -118t62.5 -95.5t93.5 -64t117 -23.5t118 23.5t95.5 64t63.5 95.5t23 118q0 64 -24.5 118t-65.5 93.5t-94.5 61.5t-112.5 22q-61 0 -115.5 -23t-95.5 -63t-64.5 -93.5t-23.5 -115.5zM176 1034q0 39 15.5 74.5t41.5 62.5t60.5 42.5t73.5 15.5 q38 0 71 -16.5t58.5 -43.5t40 -62t14.5 -73q0 -39 -15 -74t-40.5 -62t-59 -42.5t-71.5 -15.5q-37 0 -71 15.5t-60.5 42t-42 61.5t-15.5 75z" />
<glyph unicode="&#xb1;" horiz-adv-x="997" d="M66 0h864v139h-864v-139zM66 561h362v-354h139v354h363v135h-363v353h-139v-353h-362v-135z" />
<glyph unicode="&#xb5;" horiz-adv-x="1028" d="M80 477q0 -117 30 -211t86 -159.5t136.5 -100.5t181.5 -35q103 0 183.5 35t136 100.5t85 159.5t29.5 211q0 120 -29.5 214t-85 158.5t-136 98t-183.5 33.5q-101 0 -181.5 -33.5t-136.5 -98t-86 -158.5t-30 -214zM250 1348l201 -263h133l-123 263h-211zM258 477 q0 84 17 150.5t50 112.5t80.5 70t108.5 24q62 0 110 -24t81.5 -69t51 -109t17.5 -145q0 -86 -17.5 -153t-51 -113.5t-81.5 -71t-110 -24.5q-61 0 -108.5 24t-80.5 69.5t-50 111t-17 147.5z" />
<glyph unicode="&#xb6;" horiz-adv-x="963" d="M80 948q0 -163 96 -252q97 -86 260 -86v-864h162v1440h117v-1440h159v1440h46v121h-410q-78 0 -135.5 -9t-98.5 -24q-92 -42 -144 -128t-52 -198z" />
<glyph unicode="&#xb7;" horiz-adv-x="598" d="M57 834q100 21 149.5 90.5t49.5 191.5v191h-199v-209h93q-4 -83 -25 -117q-19 -36 -68 -51v-96zM342 834q99 21 147 90.5t48 191.5v191h-195v-209h94q-3 -42 -9 -72t-15 -45q-11 -19 -27.5 -31t-42.5 -20v-96z" />
<glyph unicode="&#xbb;" horiz-adv-x="997" d="M182 117l291 286v166l-291 293v-217l166 -164l-166 -162v-202zM535 117l288 286v166l-288 293v-217l163 -164l-163 -162v-202z" />
<glyph unicode="&#x2000;" horiz-adv-x="831" />
<glyph unicode="&#x2001;" horiz-adv-x="1663" />
<glyph unicode="&#x2002;" horiz-adv-x="831" />
<glyph unicode="&#x2003;" horiz-adv-x="1663" />
<glyph unicode="&#x2004;" horiz-adv-x="554" />
<glyph unicode="&#x2005;" horiz-adv-x="415" />
<glyph unicode="&#x2006;" horiz-adv-x="277" />
<glyph unicode="&#x2007;" horiz-adv-x="277" />
<glyph unicode="&#x2008;" horiz-adv-x="207" />
<glyph unicode="&#x2009;" horiz-adv-x="332" />
<glyph unicode="&#x200a;" horiz-adv-x="92" />
<glyph unicode="&#x2010;" horiz-adv-x="659" d="M100 371v153h422v-153h-422z" />
<glyph unicode="&#x2011;" horiz-adv-x="659" d="M100 371v153h422v-153h-422z" />
<glyph unicode="&#x2012;" horiz-adv-x="659" d="M100 371v153h422v-153h-422z" />
<glyph unicode="&#x2013;" horiz-adv-x="997" d="M2 410h991v151h-991v-151z" />
<glyph unicode="&#x2014;" horiz-adv-x="1790" d="M0 410h1790v151h-1790v-151z" />
<glyph unicode="&#x2018;" horiz-adv-x="397" d="M100 864h197v203h-90q2 40 6.5 70t13.5 47q11 18 28 31.5t42 21.5v96q-197 -36 -197 -284v-185z" />
<glyph unicode="&#x2019;" horiz-adv-x="397" d="M100 834q197 42 197 282v191h-197v-209h95q-4 -42 -10 -71t-17 -46q-9 -17 -25.5 -30t-42.5 -21v-96z" />
<glyph unicode="&#x201a;" horiz-adv-x="496" d="M162 0v209h200v-189q0 -247 -200 -286v96q26 9 43 22.5t26 30.5q11 19 17.5 47t9.5 70h-96z" />
<glyph unicode="&#x201c;" horiz-adv-x="578" d="M57 0h93q-2 -42 -8 -70t-15 -47q-9 -17 -27 -29.5t-43 -21.5v-94q199 36 199 282v187h-199v-207zM342 0h94q-3 -40 -10 -68t-16 -47q-19 -35 -68 -53v-94q195 36 195 282v187h-195v-207z" />
<glyph unicode="&#x201d;" horiz-adv-x="598" d="M57 864h199v203h-94q3 85 24 119q10 17 27 30t43 21v96q-199 -36 -199 -284v-185zM342 864h195v203h-91q4 40 9 70t14 47q22 38 68 53v96q-97 -18 -146 -89.5t-49 -194.5v-185z" />
<glyph unicode="&#x201e;" horiz-adv-x="578" d="M57 0h93q-2 -42 -8 -70t-15 -47q-9 -17 -27 -29.5t-43 -21.5v-94q199 36 199 282v187h-199v-207zM342 0h94q-3 -40 -10 -68t-16 -47q-19 -35 -68 -53v-94q195 36 195 282v187h-195v-207z" />
<glyph unicode="&#x2022;" horiz-adv-x="1075" d="M352 512q0 -37 14.5 -68.5t38.5 -54.5t55.5 -36t65.5 -13q36 0 68 13.5t55.5 37t37 55t13.5 66.5t-14 66.5t-37.5 55t-55 37t-67.5 13.5q-34 0 -65.5 -13.5t-55.5 -37t-38.5 -55t-14.5 -66.5z" />
<glyph unicode="&#x2026;" horiz-adv-x="1790" d="M203 0h194v205h-194v-205zM799 0h194v205h-194v-205zM1395 0h194v205h-194v-205z" />
<glyph unicode="&#x202f;" horiz-adv-x="332" />
<glyph unicode="&#x205f;" horiz-adv-x="415" />
<glyph unicode="&#x20ac;" horiz-adv-x="1022" d="M25 430h145q29 -227 145 -343t312 -116q59 0 110 12.5t90 29t63 32t30 21.5v184q-12 -19 -42 -42t-72 -43.5t-92 -34t-102 -13.5t-98.5 22.5t-82.5 63.5t-59 99t-28 128h385l45 131h-440v131h487l43 135h-524q5 60 22.5 119t51.5 106t85.5 76t123.5 29q59 0 106 -13.5 t84 -36t63.5 -52.5t43.5 -64l59 174q-21 29 -55 54.5t-78 44.5t-97.5 30t-115.5 11q-105 0 -187 -32.5t-140.5 -94t-93.5 -150.5t-46 -201h-94l-45 -135h133v-131h-90z" />
<glyph unicode="&#x2122;" horiz-adv-x="1790" d="M94 1194h236v-672h137v672h227v113h-600v-113zM827 522h129v660l240 -660h78l248 660v-660h127v785h-205l-209 -545l-199 545h-209v-785z" />
<glyph unicode="&#x25fc;" horiz-adv-x="955" d="M0 0v955h955v-955h-955z" />
</font>
</defs>
</svg>
