<?xml version="1.0" standalone="no"?>
<!DOCTYPE svg PUBLIC "-//W3C//DTD SVG 1.1//EN" "http://www.w3.org/Graphics/SVG/1.1/DTD/svg11.dtd" >
<svg xmlns="http://www.w3.org/2000/svg">
<metadata></metadata>
<defs>
<font id="helen_bgregular" horiz-adv-x="1026" >
<font-face units-per-em="2048" ascent="1638" descent="-410" />
<missing-glyph horiz-adv-x="573" />
<glyph unicode=" "  horiz-adv-x="573" />
<glyph unicode="&#x09;" horiz-adv-x="573" />
<glyph unicode="&#xa0;" horiz-adv-x="573" />
<glyph unicode="!" horiz-adv-x="348" d="M270 207v-207h-196v207h196zM74 1311h196l-41 -987h-116z" />
<glyph unicode="&#x22;" horiz-adv-x="600" d="M117 780l-37 531h174l-37 -531h-100zM496 780h-107l-37 531h178z" />
<glyph unicode="#" horiz-adv-x="1077" d="M397 801l-35 -264h261l41 264h-267zM932 537v-111h-213l-60 -426h-112l59 426h-260l-70 -426h-108l65 426h-208v111h225l39 264h-211v112h229l60 398h110l-59 -398h262l55 398h113l-55 -398h190v-112h-207l-37 -264h193z" />
<glyph unicode="$" horiz-adv-x="1049" d="M565 133q113 14 170.5 68.5t57.5 150.5q0 55 -16.5 89.5t-46.5 58t-72 39.5t-93 34v-440zM223 438q9 -69 22 -118.5t38.5 -84.5t68 -57t109.5 -37v455q-357 95 -357 344q0 80 26.5 141t74 104t113 67t143.5 30v154h104v-154q89 -9 154 -33t109 -66.5t69 -105.5t33 -151 h-158q-12 55 -26.5 93.5t-34.5 61.5q-22 26 -59 43.5t-87 22.5v-408q80 -21 151 -49t124.5 -70.5t84.5 -102.5t31 -146q0 -84 -30.5 -151.5t-83 -115.5t-124 -75t-153.5 -29v-188h-104v188q-386 44 -395 438h157zM461 1151q-191 -34 -191 -203q0 -121 191 -188v391z" />
<glyph unicode="%" horiz-adv-x="1440" d="M1110 78q127 0 127 258q0 125 -31 185.5t-96 60.5q-127 0 -127 -258q0 -125 31 -185.5t96 -60.5zM78 946q0 177 60.5 264.5t185.5 87.5q231 0 231 -329q0 -170 -61 -264q-64 -95 -181 -95q-235 0 -235 336zM188 948q0 -246 125 -246q129 0 129 263q0 245 -125 245 q-129 0 -129 -262zM1008 1282h104l-698 -1282h-101zM872 317q0 355 240 355q238 0 238 -326q0 -86 -16 -153t-47 -113.5t-75.5 -71t-101.5 -24.5q-238 0 -238 333z" />
<glyph unicode="&#x26;" horiz-adv-x="1182" d="M674 1022q0 30 -10 55t-28 43.5t-43.5 28.5t-55.5 10q-31 0 -56.5 -9.5t-43.5 -26.5t-28 -40.5t-10 -52.5q0 -42 28.5 -98t84.5 -127q82 52 122 106.5t40 110.5zM371 729q-25 35 -49.5 66t-43.5 65t-30.5 73t-11.5 89q0 65 24.5 117.5t66.5 89.5t98 57.5t120 20.5 q63 0 116.5 -18.5t93 -54.5t61.5 -88t22 -120q0 -64 -19.5 -112.5t-52 -87.5t-75 -71.5t-89.5 -64.5l232 -280q20 43 30 97.5t17 119.5h168q-16 -99 -43 -183.5t-62 -158.5l236 -285h-209l-125 147q-175 -174 -383 -174q-81 0 -151 26.5t-121.5 75t-81 116.5t-29.5 151 q0 113 72 208t219 179zM463 612q-48 -38 -86.5 -67t-65.5 -57.5t-41 -62t-14 -81.5t17.5 -88.5t48.5 -69.5t73 -45t90 -16q142 0 265 141z" />
<glyph unicode="'" horiz-adv-x="373" d="M117 780l-37 531h174l-37 -531h-100z" />
<glyph unicode="(" horiz-adv-x="739" d="M467 1311h129q-69 -109 -119 -207.5t-83 -199.5t-48.5 -210.5t-15.5 -240.5q0 -129 14.5 -235t46 -204t80 -196t115.5 -211h-119q-80 104 -139 201t-98 197.5t-58.5 209.5t-19.5 238q0 134 20.5 243.5t60.5 209t99 197t135 208.5z" />
<glyph unicode=")" horiz-adv-x="621" d="M164 -393h-129q71 111 121.5 209.5t82.5 198t47 207.5t15 239q0 91 -6 167t-19.5 143.5t-34 129.5t-49 126.5t-66 133.5t-83.5 150h121q81 -107 140 -203.5t97.5 -196.5t57 -209t18.5 -241q0 -134 -19.5 -240.5t-58.5 -204.5t-98 -195.5t-137 -213.5z" />
<glyph unicode="*" horiz-adv-x="823" d="M297 1098v213h141v-213l197 69l45 -133l-203 -65l127 -168l-112 -82l-121 170l-125 -170l-113 82l125 168l-199 65l41 133z" />
<glyph unicode="+" horiz-adv-x="1110" d="M104 565v133h363v351h139v-351h367v-133h-367v-358h-139v358h-363z" />
<glyph unicode="," horiz-adv-x="496" d="M162 209h200v-189q0 -247 -200 -286v96q26 9 43 22.5t26 30.5q11 19 17.5 47t9.5 70h-96v209z" />
<glyph unicode="-" horiz-adv-x="659" d="M100 524h422v-153h-422v153z" />
<glyph unicode="." horiz-adv-x="496" d="M162 207h200v-207h-200v207z" />
<glyph unicode="/" horiz-adv-x="659" d="M422 1311h156l-369 -1571h-158z" />
<glyph unicode="0" d="M70 623q0 688 440 688q209 0 317.5 -164.5t108.5 -474.5q0 -78 -7.5 -160.5t-26.5 -160.5t-51.5 -147t-81 -121t-115.5 -82t-156 -30q-428 0 -428 652zM246 631q0 -490 252 -490q266 0 266 523q0 483 -256 483q-134 0 -198 -127.5t-64 -388.5z" />
<glyph unicode="1" d="M166 1049q80 5 135.5 18t87.5 33q42 23 70 68.5t45 113.5h129v-1282h-166v913h-301v136z" />
<glyph unicode="2" d="M272 834h-170q5 102 23.5 177.5t52.5 125.5q120 174 357 174q90 0 165.5 -24.5t129.5 -73.5t84 -120.5t30 -166.5q0 -76 -22 -134.5t-58.5 -105.5t-84.5 -83.5t-100 -68t-105.5 -60t-100.5 -58.5q-90 -59 -142.5 -120t-68.5 -132h678v-164h-866q3 215 98 348 q66 98 231 197q80 48 147.5 87t117 80t77 90t27.5 116q0 53 -18 95.5t-50.5 72t-76.5 45.5t-97 16q-247 0 -258 -313z" />
<glyph unicode="3" d="M788 387q0 221 -290 221h-84v146h82q243 0 243 194q0 93 -59 146t-162 53q-219 0 -242 -270h-167q2 101 29 181.5t80 136.5t131 86t181 30q83 0 154 -23.5t123 -68.5t81.5 -111t29.5 -152q0 -51 -9 -90t-29 -69.5t-52 -54.5t-78 -44q215 -59 215 -305q0 -97 -32.5 -175.5 t-92 -133t-141.5 -84t-181 -29.5q-210 0 -321 113t-117 330h170q18 -273 276 -273q55 0 102.5 16.5t83 48t56 77.5t20.5 104z" />
<glyph unicode="4" d="M35 504l596 778h170v-815h182v-166h-182v-301h-166v301h-600v203zM635 1038l-432 -571h432v571z" />
<glyph unicode="5" d="M80 346h172q36 -205 254 -205q61 0 110.5 18.5t85 53t55 84.5t19.5 113q0 60 -19.5 110.5t-55 87t-85 56.5t-110.5 20q-71 0 -131.5 -30t-110.5 -87l-143 11l102 704h660v-166h-535l-57 -352q113 84 246 84q91 0 166.5 -30.5t130 -86t84.5 -131.5t30 -168 q0 -99 -31 -183.5t-89 -146t-140.5 -96.5t-185.5 -35q-186 0 -295.5 97t-126.5 278z" />
<glyph unicode="6" d="M922 952h-170q-12 49 -27 85.5t-38.5 61t-58 36.5t-85.5 12q-58 0 -101 -19t-74 -52t-51.5 -77.5t-34 -95.5t-21 -105.5t-13.5 -107.5q123 154 299 154q89 0 162.5 -30t126 -84t81.5 -128.5t29 -163.5q0 -97 -29 -182.5t-83.5 -148.5t-133 -99.5t-178.5 -36.5 q-108 0 -190.5 41t-138 121t-83.5 197t-28 270q0 711 471 711q87 0 152.5 -25t110.5 -71.5t71 -113t35 -149.5zM270 414q0 -61 18 -111.5t51 -86.5t79 -55.5t102 -19.5q59 0 105.5 22t78.5 59.5t49 88t17 107.5q0 54 -17 102t-48.5 83.5t-77 56t-101.5 20.5 q-57 0 -104 -18.5t-80.5 -53t-52.5 -83.5t-19 -111z" />
<glyph unicode="7" d="M90 1282h879v-152q-201 -241 -332.5 -521t-194.5 -609h-184q54 315 184.5 591.5t337.5 520.5h-690v170z" />
<glyph unicode="8" d="M276 694q-163 76 -163 262q0 87 30.5 153.5t83.5 111t124.5 67.5t152.5 23q83 0 154.5 -21.5t124.5 -64.5t83.5 -108.5t30.5 -153.5q0 -192 -162 -269q201 -85 201 -315q0 -93 -32.5 -168.5t-90 -128.5t-136.5 -82t-173 -29t-173 27.5t-136 79t-89 126.5t-32 169 q0 227 202 321zM289 948q0 -184 215 -184q102 0 158.5 50.5t56.5 141.5q0 45 -16.5 80.5t-45 60t-68 37.5t-85.5 13q-100 0 -157.5 -53t-57.5 -146zM504 610q-55 0 -102 -19t-81.5 -52t-54.5 -77t-20 -95q0 -55 20 -97.5t55.5 -71t83.5 -43t103 -14.5t102 16.5t81 47 t53.5 75t19.5 99.5q0 54 -19.5 97t-54 73t-82 45.5t-104.5 15.5z" />
<glyph unicode="9" d="M94 328h172q38 -187 211 -187q153 0 228 172q23 51 39 126t28 177q-87 -170 -301 -170q-94 0 -167 30.5t-123 85.5t-76.5 132t-26.5 170q0 95 28.5 177t81.5 142t130 94t174 34q444 0 444 -621q0 -339 -123 -530q-124 -189 -342 -189q-330 0 -377 357zM250 879 q0 -60 16 -109.5t47 -85t76 -55t103 -19.5q56 0 101 19t76.5 53t48.5 80.5t17 101.5q0 57 -15.5 108.5t-45.5 90t-74.5 61.5t-103.5 23q-58 0 -103.5 -20t-77 -56t-48.5 -85t-17 -107z" />
<glyph unicode=":" horiz-adv-x="496" d="M162 207h200v-207h-200v207zM162 956h200v-206h-200v206z" />
<glyph unicode=";" horiz-adv-x="496" d="M162 209h200v-189q0 -247 -200 -286v96q26 9 43 22.5t26 30.5q11 19 17.5 47t9.5 70h-96v209zM162 956h200v-206h-200v206z" />
<glyph unicode="&#x3c;" horiz-adv-x="1110" d="M973 195l-873 383v102l873 385v-135l-697 -299l697 -299v-137z" />
<glyph unicode="=" horiz-adv-x="1110" d="M104 690v137h869v-137h-869zM104 432v137h869v-137h-869z" />
<glyph unicode="&#x3e;" horiz-adv-x="1110" d="M100 1065l873 -385v-102l-873 -383v137l697 299l-697 299v135z" />
<glyph unicode="?" horiz-adv-x="993" d="M567 346h-170q0 59 6.5 106t18.5 83q14 35 56 89t116 126q131 128 131 233q0 48 -16 85.5t-44.5 63.5t-68 40t-86.5 14q-213 0 -238 -285h-168q0 98 26.5 178t78 137t127.5 88t174 31q82 0 153 -22.5t123 -66.5t81.5 -108.5t29.5 -148.5q0 -54 -10.5 -96.5t-31.5 -79.5 t-52.5 -71.5t-73.5 -73.5q-51 -44 -82 -79t-45 -61q-15 -27 -24 -73t-11 -109zM383 207h195v-207h-195v207z" />
<glyph unicode="@" horiz-adv-x="1731" d="M1378 258h125q-57 -71 -113.5 -125t-120.5 -90t-137 -54t-163 -18q-148 0 -273.5 52.5t-216 144.5t-141.5 216t-51 267q0 86 20 169.5t59 159.5t97 141t133 112.5t167.5 74.5t201.5 27q87 0 166 -20t147 -57t123.5 -88t95 -113.5t61 -133.5t21.5 -147q0 -217 -139 -362 q-26 -28 -63 -55t-78 -48.5t-83.5 -35t-80.5 -13.5q-101 0 -101 96q-73 -88 -190 -88q-69 0 -122 25.5t-89 70t-54 104t-18 126.5q0 105 33 182.5t85 128.5t117.5 76t129.5 25q72 0 127.5 -31.5t93.5 -97.5l20 108h127l-96 -545q-2 -12 -4 -21.5t-2 -19.5q0 -15 8 -24.5 t31 -9.5q24 0 50.5 13t51 33t45.5 43t33 42q68 107 68 252q0 102 -38.5 190t-108 152.5t-165.5 101.5t-211 37q-130 0 -235.5 -46t-180.5 -124.5t-116 -183t-41 -222.5q0 -130 46.5 -236.5t127.5 -181.5t189 -116t231 -41q211 0 401 178zM893 418q51 2 90.5 26t65.5 61.5 t39.5 85.5t13.5 99q0 38 -12.5 69.5t-34 54.5t-51 35.5t-64.5 12.5q-48 0 -88 -22t-68 -57.5t-43.5 -80.5t-15.5 -92q0 -39 11 -74t32 -61t52.5 -41.5t72.5 -15.5z" />
<glyph unicode="A" horiz-adv-x="1167" d="M389 537h395l-194 575zM504 1311h190l473 -1311h-198l-133 389h-504l-137 -389h-195z" />
<glyph unicode="B" horiz-adv-x="1206" d="M307 600v-436h293q309 0 309 219q0 108 -72.5 162.5t-215.5 54.5h-314zM1098 379q0 -205 -142 -305q-101 -74 -335 -74h-500v1311h483q109 0 185 -18t124 -56q63 -50 96 -115.5t33 -148.5q0 -196 -172 -266q104 -31 166 -123q62 -91 62 -205zM854 948q0 54 -14.5 92 t-45.5 61.5t-80 34.5t-118 11h-289v-383h303q244 0 244 184z" />
<glyph unicode="C" horiz-adv-x="1294" d="M1051 901q-65 268 -361 268q-111 0 -190.5 -41t-131 -111.5t-76 -165t-24.5 -200.5q0 -109 24.5 -202.5t74.5 -161.5t126.5 -107t180.5 -39q77 0 140.5 23.5t111.5 67.5t80 108.5t45 146.5h180q-10 -112 -55 -206.5t-117.5 -163.5t-168.5 -107.5t-208 -38.5 q-107 0 -193.5 25.5t-153.5 71.5t-115 108.5t-79.5 137.5t-46 158.5t-14.5 170.5q0 152 41 279t119 218.5t191 143t257 51.5q105 0 199 -26t167 -79t120 -135t57 -194h-180z" />
<glyph unicode="D" horiz-adv-x="1266" d="M293 1147v-983h268q117 0 199.5 30.5t135 93.5t77 158.5t24.5 225.5q0 97 -19 183t-68.5 151t-136 103t-222.5 38h-258zM113 0v1311h442q45 0 95.5 -1.5t103 -10.5t105.5 -29t104 -56q114 -81 168.5 -218.5t54.5 -327.5q0 -121 -24 -223.5t-75 -190.5q-44 -78 -98 -127 t-118.5 -77.5t-139.5 -39t-162 -10.5h-456z" />
<glyph unicode="E" horiz-adv-x="1163" d="M121 1311h940v-164h-760v-387h705v-164h-705v-432h760v-164h-940v1311z" />
<glyph unicode="F" horiz-adv-x="1106" d="M121 1311h901v-164h-715v-393h625v-164h-625v-590h-186v1311z" />
<glyph unicode="G" horiz-adv-x="1366" d="M1059 907q-71 262 -359 262q-111 0 -192.5 -40.5t-134 -111t-78 -164.5t-25.5 -202q0 -106 26 -199t79.5 -162t134.5 -109t190 -40q91 0 164 30t124.5 84.5t79.5 131t28 168.5h-406v147h572v-696h-117l-45 162q-46 -51 -90.5 -88.5t-93 -61.5t-104 -35.5t-124.5 -11.5 q-128 0 -238.5 43.5t-191.5 129t-127.5 211.5t-46.5 292q0 146 41 271.5t119.5 218t194.5 145.5t266 53q455 0 538 -428h-184z" />
<glyph unicode="H" horiz-adv-x="1227" d="M307 1311v-539h613v539h186v-1311h-186v606h-613v-606h-186v1311h186z" />
<glyph unicode="I" horiz-adv-x="426" d="M121 1311v-1311h186v1311h-186z" />
<glyph unicode="J" horiz-adv-x="883" d="M35 438v-20q0 -57 2.5 -97t5.5 -63q10 -67 40 -120.5t76 -90.5t106.5 -56.5t131.5 -19.5q19 0 53.5 2t75.5 14.5t84 39t78 75.5t57.5 125t22.5 187v897h-182v-897q0 -59 -6 -109t-25.5 -86.5t-56 -57t-97.5 -20.5q-64 0 -101.5 24.5t-57 65.5t-24.5 94.5t-5 112.5h-178z " />
<glyph unicode="K" horiz-adv-x="1167" d="M121 1311v-1311h186v389l189 195l450 -584h217l-545 713l535 598h-233l-613 -693v693h-186z" />
<glyph unicode="L" horiz-adv-x="989" d="M121 0h844v164h-658v1147h-186v-1311z" />
<glyph unicode="M" horiz-adv-x="1550" d="M123 0h186v1053l381 -1053h168l385 1049v-1049h187v1311h-259l-395 -1094l-391 1094h-262v-1311z" />
<glyph unicode="N" horiz-adv-x="1227" d="M121 0h180v1038l600 -1038h201v1311h-182v-1030l-596 1030h-203v-1311z" />
<glyph unicode="O" horiz-adv-x="1421" d="M707 -29q157 0 277 54t201.5 147.5t123 221t41.5 274.5t-43 270t-124 211t-198 137t-266 49q-154 0 -273.5 -51t-200.5 -142.5t-123 -219t-42 -279.5q0 -147 42 -270t122.5 -212.5t197 -139.5t265.5 -50zM715 141q-111 0 -194.5 38.5t-139 106t-83.5 160.5t-28 201 q0 111 26.5 206.5t81 165.5t138.5 110t199 40q111 0 195 -37.5t140.5 -104t84.5 -158.5t28 -201q0 -113 -26.5 -209.5t-81 -167t-139 -110.5t-201.5 -40z" />
<glyph unicode="P" horiz-adv-x="1176" d="M121 0h186v512h338q98 0 181.5 27t144.5 79.5t96 128.5t35 175q0 105 -38 179t-103 120.5t-152.5 68t-185.5 21.5h-502v-1311zM307 678v469h316q288 0 288 -227q0 -242 -321 -242h-283z" />
<glyph unicode="Q" horiz-adv-x="1427" d="M1167 158q183 189 183 510q0 147 -43 270t-124 211t-198 137t-266 49q-151 0 -270 -51.5t-201 -143.5t-125 -218t-43 -275q0 -144 42.5 -268t123 -214.5t198 -142t267.5 -51.5q102 0 185 21.5t153 66.5l188 -153l98 114zM1163 668q0 -130 -34 -230t-99 -172l-166 131 l-96 -110l139 -109q-91 -37 -192 -37q-111 0 -194.5 38.5t-139 106.5t-83.5 160.5t-28 200.5q0 111 26.5 206.5t81 165.5t138.5 110t199 40q111 0 195 -36.5t140.5 -102.5t84.5 -158.5t28 -203.5z" />
<glyph unicode="R" horiz-adv-x="1214" d="M301 0v561h350q65 0 116.5 -6t86.5 -27.5t53.5 -63t18.5 -112.5v-164q0 -80 30 -188h213q-27 42 -42 93.5t-15 113.5v145q0 62 -4.5 109.5t-21 83.5t-49.5 62t-89 44q187 81 187 297q0 104 -31.5 173.5t-91.5 111.5t-147.5 60t-200.5 18h-543v-1311h180zM301 1147h358 q62 0 115 -8.5t91 -32t59.5 -65.5t21.5 -109q0 -71 -23 -112t-63.5 -62t-96 -27t-120.5 -6h-342v422z" />
<glyph unicode="S" horiz-adv-x="1198" d="M80 438v-45q0 -422 526 -422q97 0 188.5 23t163 71.5t115 123.5t43.5 178q0 105 -60 180.5t-184 120.5l-415 155q-34 13 -60 25t-44 28.5t-27 39.5t-9 57q0 51 25.5 88t66 61t90 35.5t97.5 11.5q143 0 215 -60.5t72 -195.5h190q0 109 -31.5 188.5t-91.5 131.5t-148 77 t-202 25q-90 0 -175 -23t-150.5 -70t-105.5 -118t-40 -168q0 -106 61 -180t183 -121l399 -147q160 -61 160 -160q0 -58 -29 -97.5t-75 -64t-102 -35t-110 -10.5q-53 0 -106 7.5t-98.5 26.5t-79.5 50t-49 78q-7 19 -9 51.5t-4 83.5h-190z" />
<glyph unicode="T" horiz-adv-x="1126" d="M39 1311v-164h432v-1147h180v1147h434v164h-1046z" />
<glyph unicode="U" horiz-adv-x="1257" d="M119 1311v-836q0 -121 34 -215t99.5 -158t160.5 -97.5t216 -33.5q120 0 215 36.5t160.5 104.5t100 164.5t34.5 215.5v819h-181v-819q0 -79 -20.5 -144t-61.5 -111t-101.5 -71t-141.5 -25q-328 0 -328 355v815h-186z" />
<glyph unicode="V" horiz-adv-x="1196" d="M0 1311l504 -1311h186l508 1311h-197l-395 -1102l-407 1102h-199z" />
<glyph unicode="W" horiz-adv-x="1667" d="M336 0h190l297 1227l303 -1227h185l356 1311h-194l-207 -785q-17 -77 -29.5 -142t-22.5 -118l-59 260l-235 785h-187l-235 -785q-19 -75 -34 -140.5t-26 -119.5q-15 93 -27.5 158t-21.5 102l-190 785h-199z" />
<glyph unicode="X" horiz-adv-x="1171" d="M213 0l373 530l360 -530h223l-467 676l439 635h-211l-346 -500l-330 500h-221l444 -643l-477 -668h213z" />
<glyph unicode="Y" horiz-adv-x="1196" d="M510 518v-518h184v518l504 793h-215l-377 -621l-393 621h-213z" />
<glyph unicode="Z" horiz-adv-x="1065" d="M20 0h1014v164h-792l792 987v160h-956v-164h731l-789 -985v-162z" />
<glyph unicode="[" horiz-adv-x="578" d="M129 -393h317v164h-153v1376h153v164h-317v-1704z" />
<glyph unicode="\" horiz-adv-x="698" d="M92 1311l369 -1571h162l-369 1571h-162z" />
<glyph unicode="]" horiz-adv-x="535" d="M393 1311h-313v-164h149v-1376h-149v-164h313v1704z" />
<glyph unicode="^" horiz-adv-x="719" d="M43 1085h145l129 129l129 -129h150l-178 265h-195z" />
<glyph unicode="_" horiz-adv-x="1155" d="M0 -295h1155v135h-1155v-135z" />
<glyph unicode="`" horiz-adv-x="739" d="M168 1350l203 -265h133l-121 265h-215z" />
<glyph unicode="a" horiz-adv-x="1030" d="M479 842q211 0 211 -191v-57q-84 -7 -160 -16t-141 -22t-118.5 -31.5t-92.5 -45.5q-112 -77 -112 -217q0 -68 22.5 -122t63.5 -91.5t97.5 -57.5t123.5 -20q91 0 172.5 40t156.5 118q20 -158 154 -158q28 0 56 9t57 26v131q-16 -8 -30 -12t-30 -4q-29 0 -42 25.5t-13 76.5 v457q0 86 -26.5 144t-74.5 93.5t-115.5 50.5t-150.5 15t-153 -19.5t-121 -60t-80 -101t-29 -143.5h162q0 183 213 183zM690 346q-2 -54 -27.5 -95.5t-64.5 -70.5t-87.5 -44t-96.5 -15q-176 0 -176 143q0 99 98 142q95 41 354 71v-131z" />
<glyph unicode="b" horiz-adv-x="1016" d="M518 834q68 0 115 -30.5t76 -81t42 -114.5t13 -131q0 -64 -13 -127t-42 -113t-76 -81t-115 -31q-67 0 -112 31.5t-71 81.5t-37 113t-11 126q0 84 15.5 150t45 112t72.5 70.5t98 24.5zM121 0h166v109q54 -69 120.5 -103.5t143.5 -34.5q101 0 174.5 45t121 118.5t70.5 168 t23 193.5q0 92 -21 179.5t-66 156t-115.5 110t-168.5 41.5q-77 0 -147 -37.5t-135 -109.5v475h-166v-1311z" />
<glyph unicode="c" horiz-adv-x="993" d="M750 346q-56 -221 -228 -221q-264 0 -264 367q0 68 14.5 130t46 109t81.5 75t122 28q181 0 228 -207h168q-8 82 -40 148t-83.5 112t-121 71t-151.5 25q-114 0 -197.5 -40t-138 -110t-80.5 -165.5t-26 -206.5q0 -108 27.5 -198.5t83 -155t138 -100.5t193.5 -36 q85 0 155.5 28t122.5 78t82.5 119t35.5 150h-168z" />
<glyph unicode="d" horiz-adv-x="1016" d="M498 125q-244 0 -244 352q0 357 244 357q235 0 235 -357q0 -352 -235 -352zM733 862q-98 121 -262 121q-101 0 -175 -44t-122.5 -116.5t-72 -166.5t-23.5 -195q0 -92 22.5 -180t69 -157t118 -111t169.5 -42q51 0 88.5 8.5t68.5 27t59.5 47.5t59.5 71v-125h164v1311h-164 v-449z" />
<glyph unicode="e" d="M948 504q0 101 -24 188.5t-74.5 152t-129.5 101.5t-190 37q-110 0 -194 -39t-141 -107t-86 -160.5t-29 -199.5q0 -106 27 -198t82 -160.5t137 -108t192 -39.5q79 0 148.5 24.5t124.5 69t92.5 107.5t52.5 141h-172q-44 -188 -242 -188q-246 0 -264 301h690v78zM526 834 q113 0 179 -68.5t75 -192.5h-518q14 132 80.5 196.5t183.5 64.5z" />
<glyph unicode="f" horiz-adv-x="621" d="M59 819h121v-819h166v819h164v137h-164v97q0 133 100 133q8 0 25 -3t39 -9v153q-37 5 -62 6.5t-42 1.5q-75 0 -120 -25t-68.5 -68t-30.5 -98.5t-7 -117.5v-70h-121v-137z" />
<glyph unicode="g" horiz-adv-x="1018" d="M733 827q-52 78 -120 117t-156 39q-100 0 -171.5 -43.5t-117 -115.5t-67 -166.5t-21.5 -196.5q0 -95 21 -179t66 -146.5t116 -99t170 -36.5q81 0 150.5 37t129.5 115q0 -103 -14.5 -178t-45.5 -123.5t-79.5 -71.5t-116.5 -23q-45 0 -77.5 7.5t-55.5 25t-38 45t-25 66.5 h-164q10 -77 36 -132.5t70.5 -91t108.5 -52.5t149 -17q125 0 205.5 37.5t127 107.5t65 169.5t18.5 223.5v811h-164v-129zM496 150q-113 0 -175.5 84t-62.5 243q0 63 11.5 126.5t39.5 115t73.5 83.5t113.5 32q65 0 110.5 -32.5t73.5 -84.5t40.5 -115t12.5 -125 q0 -63 -12.5 -122t-40.5 -104.5t-73.5 -73t-110.5 -27.5z" />
<glyph unicode="h" horiz-adv-x="1006" d="M121 1311v-1311h166v510q0 53 10 110t37.5 104.5t76 78.5t126.5 31q56 0 91.5 -17t55.5 -48.5t27.5 -76.5t7.5 -102v-590h164v631q0 352 -310 352q-83 0 -154.5 -33t-131.5 -96v457h-166z" />
<glyph unicode="i" horiz-adv-x="403" d="M287 1120v191h-166v-191h166zM121 956v-956h166v956h-166z" />
<glyph unicode="j" horiz-adv-x="446" d="M141 1120h166v191h-166v-191zM-12 -385q18 -3 42 -5.5t56 -2.5q221 0 221 282v1067h-166v-1044q0 -32 -1.5 -60.5t-10.5 -49.5t-27 -33t-51 -13q-28 0 -63 11v-152z" />
<glyph unicode="k" horiz-adv-x="926" d="M117 0h164v348l104 98l309 -446h203l-393 569l366 387h-217l-372 -421v776h-164v-1311z" />
<glyph unicode="l" horiz-adv-x="446" d="M141 0h166v1311h-166v-1311z" />
<glyph unicode="m" horiz-adv-x="1503" d="M125 956v-956h164v514q0 119 18 162q58 158 219 158q48 0 77 -16t44.5 -46t20 -72.5t4.5 -95.5v-604h164v510q0 62 5.5 108.5t14.5 75.5q11 32 31.5 58t47 44t58 28t64.5 10q162 0 162 -211v-623h163v651q0 165 -71 248.5t-217 83.5q-49 0 -89 -10t-73.5 -28.5t-63.5 -45 t-59 -59.5q-90 143 -242 143q-48 0 -86 -10t-70 -29t-61 -45.5t-61 -58.5v116h-164z" />
<glyph unicode="n" horiz-adv-x="1006" d="M123 0h164v504q0 66 3 110t11 66q12 35 35 63t52.5 48.5t65 31.5t72.5 11q59 0 96.5 -17.5t59 -50.5t29.5 -80.5t8 -107.5v-578h164v610q0 66 -6 116.5t-15 84.5q-16 42 -45.5 74.5t-67.5 54t-82 32.5t-89 11q-48 0 -88 -8.5t-74.5 -26.5t-65.5 -46t-63 -68v122h-164 v-956z" />
<glyph unicode="o" horiz-adv-x="1018" d="M76 477q0 -109 27 -202t81 -160.5t135.5 -105.5t190.5 -38t190.5 39.5t135.5 108.5t81 161t27 197q0 108 -26.5 200.5t-80 160.5t-135 106.5t-192.5 38.5q-112 0 -194 -38.5t-135 -106.5t-79 -160.5t-26 -200.5zM510 125q-62 0 -110 24t-81 69t-50 110.5t-17 148.5 q0 84 17 150.5t50 112.5t81 70t110 24q70 0 119 -29.5t80 -78t45 -111t14 -128.5q0 -174 -67 -268t-191 -94z" />
<glyph unicode="p" horiz-adv-x="1018" d="M121 -369h166v469q55 -63 122.5 -96t145.5 -33q67 0 121 21t96 56.5t73 85t51.5 107t30 121.5t9.5 130q0 95 -20 183.5t-64 157t-114.5 109.5t-172.5 41q-48 0 -85.5 -8t-69.5 -25t-61.5 -43t-61.5 -63v112h-166v-1325zM281 477q0 84 16.5 150t47.5 112t75.5 70.5 t101.5 24.5q67 0 113 -30.5t74.5 -80.5t41.5 -114t13 -132q0 -64 -12 -127t-40 -113t-74.5 -81t-115.5 -31q-70 0 -116 31t-74 80.5t-39.5 113t-11.5 127.5z" />
<glyph unicode="q" horiz-adv-x="1016" d="M258 477q0 61 11.5 124.5t38 115t70.5 84.5t109 33q66 0 110.5 -33t71.5 -84.5t38.5 -115t11.5 -124.5q0 -60 -11.5 -122.5t-38.5 -113.5t-71.5 -83.5t-110.5 -32.5q-64 0 -108 33t-71 84t-38.5 113.5t-11.5 121.5zM719 840q-59 143 -258 143q-97 0 -169 -43t-119 -115 t-70 -165t-23 -193q0 -94 20 -183.5t64.5 -159t115 -111.5t171.5 -42q88 0 154.5 38t113.5 112v-490h164v1325h-164v-116z" />
<glyph unicode="r" horiz-adv-x="635" d="M121 0h166v475q0 156 43 230q61 100 205 100q15 0 27.5 -0.5t23.5 -3.5v176q-22 6 -68 6q-142 0 -231 -182v155h-166v-956z" />
<glyph unicode="s" horiz-adv-x="907" d="M72 313q0 -165 98.5 -253.5t282.5 -88.5q74 0 143.5 19t123 58t86 98.5t32.5 140.5q0 44 -11.5 76.5t-36.5 59.5t-64.5 49.5t-96.5 45.5l-279 113q-82 33 -82 88q0 32 17.5 53.5t44.5 35.5t59.5 20t61.5 6q184 0 190 -154h170q-1 75 -29.5 132t-76.5 95t-112.5 57 t-137.5 19q-67 0 -131.5 -17.5t-115 -52.5t-81.5 -87.5t-31 -123.5q0 -140 172 -215l301 -129q93 -39 93 -96q0 -31 -15 -56t-42 -43t-65 -28t-85 -10q-111 0 -161 43.5t-50 144.5h-172z" />
<glyph unicode="t" horiz-adv-x="530" d="M35 819h127v-569q0 -67 6.5 -119.5t27.5 -87.5t60.5 -53.5t105.5 -18.5q3 0 21.5 1.5t40.5 3t39.5 3l17.5 1.5v145q-9 -2 -22 -3t-27 -1q-34 2 -55 7t-31.5 18t-14 35t-3.5 57v581h153v137h-153v238h-166v-238h-127v-137z" />
<glyph unicode="u" horiz-adv-x="1008" d="M121 956v-614q0 -371 311 -371q216 0 293 179v-150h164v956h-164v-485q0 -156 -57 -242q-71 -104 -197 -104q-102 0 -141 49q-23 26 -33 70t-10 104v608h-166z" />
<glyph unicode="v" horiz-adv-x="864" d="M180 956h-180l342 -956h166l356 956h-182l-250 -753z" />
<glyph unicode="w" horiz-adv-x="1286" d="M289 0h166l186 735l184 -735h168l287 956h-170l-152 -550q-15 -60 -25.5 -106.5t-17.5 -78.5q-14 78 -23.5 123.5t-14.5 61.5l-140 550h-184l-145 -559q-14 -59 -23.5 -105.5t-15.5 -78.5q-16 72 -26 118t-13 66l-140 559h-180z" />
<glyph unicode="x" horiz-adv-x="883" d="M344 492l-334 -492h201l233 367l230 -367h207l-336 504l319 452h-207l-213 -329l-208 329h-209z" />
<glyph unicode="y" horiz-adv-x="883" d="M197 956h-187l355 -976q-26 -72 -45.5 -116.5t-34.5 -66.5q-30 -41 -84 -41q-42 0 -99 25v-158q36 -9 71 -12.5t67 -3.5q106 0 172 96q21 28 42 75t46 116l381 1062h-181l-247 -757z" />
<glyph unicode="z" horiz-adv-x="877" d="M55 133v-133h768v150h-553l539 677v129h-715v-147h502z" />
<glyph unicode="{" horiz-adv-x="698" d="M246 457q89 27 123 69q15 23 23.5 57t8.5 81v452q0 48 12.5 83.5t37.5 55.5q17 21 104 56h-29q-146 0 -217 -55t-71 -164v-457q0 -72 -37 -116t-109 -62q146 -32 146 -181v-421q0 -78 21.5 -130t66.5 -77q61 -37 229 -37q-154 36 -154 188v439q0 49 -8.5 85.5t-23.5 61.5 q-37 50 -123 72z" />
<glyph unicode="|" horiz-adv-x="453" d="M178 -260h139v1571h-139v-1571z" />
<glyph unicode="}" horiz-adv-x="659" d="M379 457q-88 -22 -123 -72t-35 -147v-439q0 -152 -151 -188q164 0 229 41q43 25 65.5 76t22.5 127v421q0 150 143 181q-143 36 -143 178v457q0 71 -25 117t-73 71q-67 31 -219 31q40 -16 68 -32.5t42 -35.5q22 -20 31.5 -52.5t9.5 -74.5v-452q0 -89 35 -136 q34 -44 123 -71z" />
<glyph unicode="~" horiz-adv-x="739" d="M496 1350q-20 -34 -36.5 -51t-33.5 -17q-20 0 -47.5 8t-61.5 25q-35 17 -62.5 26t-45.5 9q-139 0 -184 -215h108q31 63 74 63q15 0 42 -7.5t62 -23.5q68 -32 107 -32q69 0 114.5 53t71.5 162h-108z" />
<glyph unicode="&#xa4;" horiz-adv-x="1788" d="M1044 1401l-118 262h-215l202 -262h131zM1702 672q0 153 -44 276t-126 209t-199 132t-262 46q-133 0 -241.5 -39t-189.5 -113t-132 -179.5t-68 -239.5h-135v547h-188v-1311h188v623h131q2 -149 45 -269.5t124 -205.5t198.5 -131t267.5 -46q151 0 268.5 54t198 148 t122.5 222.5t42 276.5zM1513 668q0 -124 -30 -221.5t-86.5 -164.5t-138.5 -102t-187 -35q-104 0 -187.5 34.5t-142 99.5t-89.5 158t-31 210q0 125 30.5 222.5t88.5 164t141.5 101t189.5 34.5q103 0 185 -34.5t139 -99t87.5 -157.5t30.5 -210z" />
<glyph unicode="&#xa6;" horiz-adv-x="1556" d="M801 1401l-121 262h-213l201 -262h133zM1440 0v1311h-185v-1311h185zM1079 430q0 74 -25.5 145.5t-78.5 128t-135 91t-195 34.5h-340v482h-184v-1311h497q129 0 217 38.5t142 100t78 138t24 153.5zM891 420q0 -64 -24 -112t-64.5 -80t-93 -48t-109.5 -16h-295v500h303 q64 0 116 -16t89 -47t57.5 -76.5t20.5 -104.5z" />
<glyph unicode="&#xa7;" horiz-adv-x="997" d="M578 625q176 -107 176 -222q0 -95 -111 -170l-285 183q-118 76 -118 180q0 48 26 90.5t82 79.5zM256 848q-45 -28 -79 -54t-56.5 -56.5t-33.5 -68.5t-11 -91q0 -96 59 -179.5t180 -158.5l168 -105q36 -21 67.5 -42t55 -44t37.5 -49t14 -57t-11.5 -56t-32.5 -43 t-49.5 -27.5t-63.5 -9.5q-172 0 -185 199h-168q0 -165 88 -255.5t257 -90.5q69 0 130 19.5t106.5 57t72 93.5t26.5 129q0 51 -20 98.5t-62 94.5q88 55 131.5 126.5t43.5 157.5q0 191 -252 338l-158 92q-34 20 -64.5 40.5t-53.5 42t-36.5 46.5t-13.5 54q0 60 42 96.5 t112 36.5q169 0 172 -193h166q-4 174 -84.5 258t-239.5 84q-70 0 -131 -20.5t-105.5 -59t-70 -93.5t-25.5 -124q0 -99 78 -186z" />
<glyph unicode="&#xa9;" horiz-adv-x="1321" d="M991 799q-4 66 -31 115t-70.5 82t-100.5 49t-121 16q-88 0 -155 -32t-113 -87.5t-69.5 -130t-23.5 -160.5q0 -88 22.5 -161t67.5 -125t112 -80.5t155 -28.5q70 0 126.5 21.5t98.5 61.5t68 97.5t34 128.5h-117q-14 -102 -68 -152.5t-147 -50.5q-111 0 -171 78t-60 215 q0 141 63.5 219t178.5 78q167 0 207 -153h114zM1239 653q0 -127 -47 -233t-126.5 -182.5t-184 -119t-219.5 -42.5q-122 0 -228.5 45t-185 123t-123.5 183.5t-45 227.5q0 123 46 229.5t125.5 184.5t185.5 123t225 45q82 0 157 -21t139 -59.5t116 -91.5t88.5 -118t56.5 -139.5 t20 -154.5zM1339 653q0 99 -25.5 187.5t-70.5 163.5t-108 135.5t-138.5 103t-160.5 65.5t-174 23q-94 0 -180.5 -24t-162.5 -68.5t-138 -106t-106 -137t-68.5 -162t-24.5 -180.5t24.5 -181t69 -162t107 -136.5t138 -105t162 -67.5t179.5 -24q97 0 185 24.5t163.5 69 t136 106.5t103.5 137t66 161t23 178z" />
<glyph unicode="&#xab;" horiz-adv-x="997" d="M461 330l-166 166l166 161v205l-289 -291v-165l289 -289v213zM815 330l-168 166l168 161v205l-293 -291v-165l293 -289v213z" />
<glyph unicode="&#xac;" horiz-adv-x="1049" d="M819 414v-414h139v553h-868v-139h729z" />
<glyph unicode="&#xae;" horiz-adv-x="1321" d="M698 938q45 0 77 -6t51.5 -20t28.5 -36.5t9 -56.5q0 -63 -39.5 -91t-134.5 -28h-194v238h202zM379 270h117v326h198q54 0 89.5 -11.5t52.5 -31.5q11 -16 16.5 -44t5.5 -73q2 -54 6 -95.5t10 -70.5h138q-17 29 -27 66t-12 82q-3 65 -5.5 98.5t-2.5 38.5q-16 70 -84 102 q102 59 102 177q0 215 -283 215h-321v-779zM1239 653q0 -127 -47 -233.5t-126.5 -182.5t-184 -118.5t-219.5 -42.5q-120 0 -226 45.5t-185 124t-125 184t-46 225.5q0 119 45 225t123.5 185.5t185 125.5t228.5 46q119 0 224 -46t183.5 -125.5t124 -186t45.5 -226.5zM1339 653 q0 97 -25.5 185t-70.5 163.5t-108 136.5t-138.5 104t-160.5 66t-174 23q-94 0 -180.5 -24.5t-162.5 -68.5t-138 -106t-106 -137.5t-68.5 -162t-24.5 -179.5q0 -139 52.5 -262t144.5 -215t216 -145.5t267 -53.5q94 0 180.5 23.5t162 66.5t137 104t105.5 136.5t68 162.5 t24 183z" />
<glyph unicode="&#xb0;" horiz-adv-x="727" d="M551 1034q0 -39 -15 -74t-40.5 -62t-59 -42.5t-71.5 -15.5q-37 0 -71 15.5t-60.5 42t-42 61.5t-15.5 75q0 39 15.5 74.5t41.5 62.5t60.5 42.5t73.5 15.5q38 0 71 -16.5t58.5 -43.5t40 -62t14.5 -73zM662 1036q0 64 -24.5 118t-65.5 93.5t-94.5 61.5t-112.5 22 q-61 0 -115.5 -23t-95.5 -63t-64.5 -93.5t-23.5 -115.5q0 -63 23 -118t62.5 -95.5t93.5 -64t117 -23.5t118 23.5t95.5 64t63.5 95.5t23 118z" />
<glyph unicode="&#xb1;" horiz-adv-x="997" d="M930 0v139h-864v-139h864zM428 561v-354h139v354h363v135h-363v353h-139v-353h-362v-135h362z" />
<glyph unicode="&#xb5;" horiz-adv-x="1028" d="M584 1085l-123 263h-211l201 -263h133zM948 477q0 120 -29.5 214t-85 158.5t-136 98t-183.5 33.5q-101 0 -181.5 -33.5t-136.5 -98t-86 -158.5t-30 -214q0 -117 30 -211t86 -159.5t136.5 -100.5t181.5 -35q103 0 183.5 35t136 100.5t85 159.5t29.5 211zM774 487 q0 -86 -17.5 -153t-51 -113.5t-81.5 -71t-110 -24.5q-61 0 -108.5 24t-80.5 69.5t-50 111t-17 147.5q0 84 17 150.5t50 112.5t80.5 70t108.5 24q62 0 110 -24t81.5 -69t51 -109t17.5 -145z" />
<glyph unicode="&#xb6;" horiz-adv-x="963" d="M598 -254v1440h117v-1440h159v1440h46v121h-410q-78 0 -135.5 -9t-98.5 -24q-92 -42 -144 -128t-52 -198q0 -163 96 -252q97 -86 260 -86v-864h162z" />
<glyph unicode="&#xb7;" horiz-adv-x="598" d="M342 1098h94q-3 -42 -9 -72t-15 -45q-11 -19 -27.5 -31t-42.5 -20v-96q99 21 147 90.5t48 191.5v191h-195v-209zM57 1098h93q-4 -83 -25 -117q-19 -36 -68 -51v-96q100 21 149.5 90.5t49.5 191.5v191h-199v-209z" />
<glyph unicode="&#xbb;" horiz-adv-x="997" d="M535 645l163 -164l-163 -162v-202l288 286v166l-288 293v-217zM182 645l166 -164l-166 -162v-202l291 286v166l-291 293v-217z" />
<glyph unicode="&#x3bc;" horiz-adv-x="1051" d="M731 125q-46 -82 -110 -119q-32 -15 -73 -23t-93 -8q-86 0 -170 78v-424h-166v1329h166v-606q0 -63 9.5 -107.5t31.5 -70.5q36 -49 141 -49q128 0 199 102q51 74 51 244v487h166v-716q0 -35 5 -59.5t17 -37.5q22 -26 84 -26h21v-125q-43 -19 -86 -19q-45 0 -78.5 10.5 t-54.5 28.5q-38 32 -60 111z" />
<glyph unicode="&#x401;" horiz-adv-x="1163" d="M889 1438v225h-221v-225h221zM506 1438v225h-221v-225h221zM1061 0v164h-760v432h705v164h-705v387h760v164h-940v-1311h940z" />
<glyph unicode="&#x405;" horiz-adv-x="1350" d="M791 1085l-119 263h-213l200 -263h132zM1266 477q0 120 -30 214t-86 158.5t-136 98t-180 33.5q-94 0 -169.5 -27t-131 -80t-89.5 -131t-43 -180h-141v748h-180v-1311h180v401h137q8 -100 41.5 -180t89.5 -135.5t133.5 -85t172.5 -29.5q100 0 180 35t136 100.5t86 159.5 t30 211zM1090 487q0 -86 -17 -153t-50 -113.5t-80.5 -71t-108.5 -24.5q-62 0 -111.5 24t-83.5 69.5t-52 111t-18 147.5q0 84 18 150.5t52 112.5t83.5 70t111.5 24q59 0 106.5 -24t80.5 -69t51 -109t18 -145z" />
<glyph unicode="&#x406;" horiz-adv-x="1008" d="M567 1126l-123 260h-211l201 -260h133zM479 842q211 0 211 -191v-57q-84 -7 -160 -16t-141 -22t-118.5 -31.5t-92.5 -45.5q-112 -77 -112 -217q0 -68 22.5 -122t63.5 -91.5t97.5 -57.5t123.5 -20q91 0 172.5 40t156.5 118q20 -158 154 -158q28 0 56 9t57 26v131 q-16 -8 -30 -12t-30 -4q-29 0 -42 25.5t-13 76.5v457q0 86 -26.5 144t-74.5 93.5t-115.5 50.5t-150.5 15t-153 -19.5t-121 -60t-80 -101t-29 -143.5h162q0 183 213 183zM690 346q-2 -54 -27.5 -95.5t-64.5 -70.5t-87.5 -44t-96.5 -15q-176 0 -176 143q0 99 98 142 q95 41 354 71v-131z" />
<glyph unicode="&#x408;" horiz-adv-x="1266" d="M600 1401l-123 262h-211l201 -262h133zM1210 643q0 141 -37.5 266.5t-112.5 220t-188.5 150t-265.5 55.5q-117 0 -213.5 -30.5t-167 -87.5t-113.5 -137.5t-53 -180.5h183q34 140 126 205t232 65q88 0 159.5 -27.5t125 -80.5t87.5 -130t46 -175h-475v-183h475 q-8 -102 -39 -182t-83 -135.5t-122.5 -85t-157.5 -29.5q-76 0 -139 23t-111 67t-79.5 108.5t-44.5 147.5h-183q14 -112 58.5 -206.5t115 -163.5t166 -107.5t211.5 -38.5q139 0 250 47t189 134t119.5 211.5t41.5 279.5z" />
<glyph unicode="&#x40e;" horiz-adv-x="1061" d="M545 1401l-121 262h-213l203 -262h131zM1063 1311h-193l-276 -682l-37 -86l-31 80l-311 688h-205l453 -987l-33 -70q-26 -53 -62 -74.5t-85 -21.5h-78v-158h114q70 0 119.5 24t85.5 62.5t61.5 87.5t47.5 100z" />
<glyph unicode="&#x410;" horiz-adv-x="1169" d="M389 537h395l-194 575zM504 1311h190l473 -1311h-198l-133 389h-504l-137 -389h-195z" />
<glyph unicode="&#x411;" horiz-adv-x="1176" d="M307 1141h641v170h-825v-1311h498q104 0 188.5 28.5t144.5 82.5t92.5 132.5t32.5 178.5q0 93 -32.5 165t-90 120.5t-136.5 74t-173 25.5h-340v334zM610 641q59 0 110.5 -14.5t89.5 -44t59.5 -74.5t21.5 -107t-23.5 -106.5t-63.5 -73.5t-92.5 -43t-111.5 -14h-293v477h303 z" />
<glyph unicode="&#x412;" horiz-adv-x="1206" d="M854 948q0 -184 -244 -184h-303v383h289q69 0 118 -11t80 -35t45.5 -62t14.5 -91zM1098 379q0 61 -19.5 115t-55 95.5t-85.5 68t-111 32.5q43 13 82 41.5t68.5 67t47 83.5t17.5 91q0 83 -33 148.5t-96 115.5q-48 38 -124 56t-185 18h-481v-1311h498q45 0 98 3.5t106 16 t102 36.5t87 66.5t61 105t23 151.5zM621 600q143 0 215.5 -54.5t72.5 -162.5q0 -219 -309 -219h-293v436h314z" />
<glyph unicode="&#x413;" horiz-adv-x="918" d="M301 1147h578v164h-756v-1311h178v1147z" />
<glyph unicode="&#x414;" horiz-adv-x="1364" d="M1036 0q104 0 119 -102l19 -121h139v387h-119v1147h-934v-701q0 -154 -24 -264.5t-72 -181.5h-115v-387h152l18 121q15 102 119 102h698zM338 164q56 88 84.5 198t28.5 244v541h548v-983h-661z" />
<glyph unicode="&#x415;" horiz-adv-x="1169" d="M121 1311h940v-164h-760v-387h705v-164h-705v-432h760v-164h-940v1311z" />
<glyph unicode="&#x416;" horiz-adv-x="1651" d="M221 1311h-198l440 -574l-463 -737h213l367 598l153 -178v-420h180v420l154 182l365 -602h215l-467 743l442 568h-201l-508 -649v649h-180v-649z" />
<glyph unicode="&#x417;" horiz-adv-x="1071" d="M694 707q48 11 89 36t71 60t47 78.5t17 91.5q0 92 -32.5 160t-89.5 113t-134.5 67t-167.5 22q-82 0 -153 -23.5t-126.5 -68.5t-94 -110.5t-54.5 -149.5h176q42 186 250 186q53 0 96.5 -14.5t75 -42t48.5 -69t17 -95.5q0 -86 -56 -135t-161 -49h-70v-154h111q51 0 93 -17 t72 -47t47 -71.5t17 -91.5q0 -64 -22 -110.5t-60.5 -77t-91 -45.5t-112.5 -15q-45 0 -90.5 15t-82 42.5t-59 66.5t-22.5 87h-174q0 -91 36 -161.5t96.5 -117.5t141 -71.5t168.5 -24.5q100 0 184.5 25t146.5 75.5t97 127t35 180.5q0 65 -21.5 121t-59.5 99.5t-88.5 71.5 t-109.5 36z" />
<glyph unicode="&#x418;" horiz-adv-x="1317" d="M952 985l58 117v-1102h186v1311h-252l-573 -979l-64 -133v1112h-184v-1311h248z" />
<glyph unicode="&#x419;" horiz-adv-x="1317" d="M952 985l58 117v-1102h186v1311h-252l-573 -979l-64 -133v1112h-184v-1311h248zM408 1436h473v125h-473v-125z" />
<glyph unicode="&#x41a;" horiz-adv-x="1167" d="M121 1311v-1311h186v389l189 195l450 -584h217l-545 713l535 598h-233l-613 -693v693h-186z" />
<glyph unicode="&#x41b;" horiz-adv-x="1120" d="M1120 0l-471 1315h-176l-471 -1315h195l366 1112l365 -1112h192z" />
<glyph unicode="&#x41c;" horiz-adv-x="1612" d="M150 0h186v1053l381 -1053h168l385 1049v-1049h186v1311h-258l-395 -1094l-391 1094h-262v-1311z" />
<glyph unicode="&#x41d;" horiz-adv-x="1227" d="M307 1311v-539h613v539h186v-1311h-186v606h-613v-606h-186v1311h186z" />
<glyph unicode="&#x41e;" horiz-adv-x="1432" d="M707 -29q157 0 277 54t201.5 147.5t123 221t41.5 274.5t-43 270t-124 211t-198 137t-266 49q-154 0 -273.5 -51t-200.5 -142.5t-123 -219t-42 -279.5q0 -147 42 -270t122.5 -212.5t197 -139.5t265.5 -50zM715 141q-111 0 -194.5 38.5t-139 106t-83.5 160.5t-28 201 q0 111 26.5 206.5t81 165.5t138.5 110t199 40q111 0 195 -37.5t140.5 -104t84.5 -158.5t28 -201q0 -113 -26.5 -209.5t-81 -167t-139 -110.5t-201.5 -40z" />
<glyph unicode="&#x41f;" horiz-adv-x="1227" d="M922 0h184v1311h-983v-1311h184v1147h615v-1147z" />
<glyph unicode="&#x420;" horiz-adv-x="1178" d="M123 0h184v496h316q97 0 180 29.5t144.5 85t96.5 134t35 177.5q0 105 -37.5 179t-102 120.5t-151.5 68t-186 21.5h-479v-1311zM307 662v485h295q287 0 287 -227q0 -258 -320 -258h-262z" />
<glyph unicode="&#x421;" horiz-adv-x="1317" d="M1051 901q-65 268 -361 268q-111 0 -190.5 -41t-131 -111.5t-76 -165t-24.5 -200.5q0 -109 24.5 -202.5t74.5 -161.5t126.5 -107t180.5 -39q77 0 140.5 23.5t111.5 67.5t80 108.5t45 146.5h180q-10 -112 -55 -206.5t-117.5 -163.5t-168.5 -107.5t-208 -38.5 q-107 0 -193.5 25.5t-153.5 71.5t-115 108.5t-79.5 137.5t-46 158.5t-14.5 170.5q0 152 41 279t119 218.5t191 143t257 51.5q105 0 199 -26t167 -79t120 -135t57 -194h-180z" />
<glyph unicode="&#x422;" horiz-adv-x="1126" d="M39 1311v-164h432v-1147h180v1147h434v164h-1046z" />
<glyph unicode="&#x423;" horiz-adv-x="1061" d="M870 1311l-311 -768l-344 768h-205l453 -985l-33 -72q-23 -50 -60.5 -73t-86.5 -23h-76v-158h115q66 0 114 22.5t84 60.5t62.5 87.5t48.5 103.5l432 1037h-193z" />
<glyph unicode="&#x424;" horiz-adv-x="1624" d="M719 141q-104 0 -187 35t-141.5 100.5t-89.5 159.5t-31 211q0 123 30.5 220t88.5 164t141.5 102.5t188.5 35.5v-1028zM1354 668q0 -125 -31 -223t-89.5 -165.5t-141.5 -103t-187 -35.5v1028q102 0 185 -34.5t141.5 -99t90.5 -157.5t32 -210zM719 1335q-147 0 -266 -49 t-202 -139t-128 -218t-45 -286q0 -154 46 -278t130 -211.5t202.5 -135t262.5 -47.5v-166h186v166q152 2 271.5 56t201.5 147.5t125 220t43 273.5q0 153 -46.5 276.5t-131 210.5t-202.5 133.5t-261 46.5v164h-186v-164z" />
<glyph unicode="&#x425;" horiz-adv-x="1171" d="M213 0l373 530l360 -530h223l-467 676l439 635h-211l-346 -500l-330 500h-221l444 -643l-477 -668h213z" />
<glyph unicode="&#x426;" horiz-adv-x="1280" d="M948 0q103 0 121 -102l18 -121h140v387h-121v1147h-184v-1147h-615v1147h-184v-1311h825z" />
<glyph unicode="&#x427;" horiz-adv-x="1206" d="M901 0h184v1311h-184v-549q-56 -87 -138.5 -129.5t-197.5 -42.5q-62 0 -113.5 23t-88 63t-56.5 92.5t-20 110.5v432h-187v-434q0 -103 32.5 -185.5t91.5 -140t141 -88.5t182 -31q45 0 96.5 10.5t100.5 30t91 48.5t66 65v-586z" />
<glyph unicode="&#x428;" horiz-adv-x="1808" d="M995 164v1147h-184v-1147h-506v1147h-184v-1311h1565v1311h-185v-1147h-506z" />
<glyph unicode="&#x429;" horiz-adv-x="1860" d="M1526 0q51 0 81.5 -28t37.5 -74l18 -123h139v389h-116v1147h-185v-1147h-506v1147h-184v-1147h-506v1147h-184v-1311h1405z" />
<glyph unicode="&#x42a;" horiz-adv-x="1276" d="M432 1311h-432v-156h246v-1155h499q104 0 188.5 28.5t144.5 83.5t93 135.5t33 184.5q0 94 -33 167.5t-91.5 124.5t-138 78t-171.5 27h-338v482zM735 664q59 0 110.5 -15t89.5 -45.5t59.5 -76t21.5 -107.5q0 -64 -23 -112t-63 -80t-93 -48t-112 -16h-293v500h303z" />
<glyph unicode="&#x42b;" horiz-adv-x="1559" d="M307 1311h-184v-1311h498q104 0 188.5 29t144.5 84.5t92.5 135.5t32.5 183q0 96 -33 170t-91.5 124.5t-138 76.5t-171.5 26h-338v482zM608 664q65 0 117.5 -16.5t89.5 -47.5t56.5 -76.5t19.5 -103.5q0 -63 -23 -111t-62.5 -80t-92.5 -48.5t-113 -16.5h-293v500h301z M1440 0v1311h-185v-1311h185z" />
<glyph unicode="&#x42c;" horiz-adv-x="1135" d="M307 1311h-184v-1311h498q104 0 188.5 29t144.5 84.5t92.5 135.5t32.5 183q0 97 -33 171t-91.5 124.5t-138 76t-171.5 25.5h-338v482zM608 664q65 0 117.5 -16.5t89.5 -47.5t56.5 -76.5t19.5 -103.5q0 -62 -23 -110t-62.5 -80.5t-92.5 -49t-113 -16.5h-293v500h301z" />
<glyph unicode="&#x42d;" horiz-adv-x="1266" d="M543 754v-181h475q-6 -93 -34.5 -172t-79 -136.5t-122.5 -90.5t-166 -33q-76 0 -139 23.5t-111 67.5t-79.5 108.5t-44.5 146.5h-183q13 -113 58 -207.5t116.5 -163t167 -107t209.5 -38.5q150 0 262.5 50.5t187.5 140.5t112.5 213t37.5 268q0 143 -37.5 269t-112.5 220 t-188 148.5t-264 54.5q-108 0 -203 -27t-168 -81.5t-119.5 -136t-58.5 -189.5h183q65 268 358 268q94 -1 166.5 -31.5t124.5 -85t83.5 -130.5t43.5 -168h-475z" />
<glyph unicode="&#x42e;" horiz-adv-x="1790" d="M1516 668q0 -111 -27 -207t-81.5 -166t-138 -110t-196.5 -40q-112 0 -196.5 37t-140.5 103.5t-84.5 158.5t-28.5 203q0 114 27 209.5t82.5 165t140 108.5t200.5 39q111 0 194 -38t138.5 -104.5t83 -158.5t27.5 -200zM436 623q0 -148 43.5 -268.5t126 -206t200.5 -131.5 t267 -46q154 0 271.5 55t197.5 150t121 222.5t41 273.5q0 147 -43 269t-124 209.5t-198 136t-266 48.5q-133 0 -243 -38.5t-191 -111.5t-132 -179t-67 -242h-135v547h-186v-1311h186v623h131z" />
<glyph unicode="&#x42f;" horiz-adv-x="1194" d="M1061 0v1311h-453q-97 0 -170.5 -17t-126.5 -45.5t-87.5 -65t-55 -76.5t-29 -79.5t-8.5 -73.5q0 -76 28 -131.5t72 -92.5t98 -56t105 -23q-57 -15 -103.5 -46.5t-83 -70.5t-62 -82.5t-40.5 -84.5l-61 -170q-9 -23 -16.5 -44.5t-17 -45t-22.5 -49.5t-32 -58h203 q15 35 24 60.5t16 47.5t13.5 43.5t15.5 47.5l43 125q18 52 42.5 95.5t59 75t81.5 49t108 17.5h275v-561h184zM877 725h-285q-60 0 -107.5 10.5t-80.5 35t-50.5 66t-17.5 103.5q0 63 17 103t48.5 63.5t76.5 32t102 8.5h297v-422z" />
<glyph unicode="&#x430;" horiz-adv-x="1030" d="M479 842q211 0 211 -191v-57q-84 -7 -160 -16t-141 -22t-118.5 -31.5t-92.5 -45.5q-112 -77 -112 -217q0 -68 22.5 -122t63.5 -91.5t97.5 -57.5t123.5 -20q91 0 172.5 40t156.5 118q20 -158 154 -158q28 0 56 9t57 26v131q-16 -8 -30 -12t-30 -4q-29 0 -42 25.5t-13 76.5 v457q0 86 -26.5 144t-74.5 93.5t-115.5 50.5t-150.5 15t-153 -19.5t-121 -60t-80 -101t-29 -143.5h162q0 183 213 183zM690 346q-2 -54 -27.5 -95.5t-64.5 -70.5t-87.5 -44t-96.5 -15q-176 0 -176 143q0 99 98 142q95 41 354 71v-131z" />
<glyph unicode="&#x431;" horiz-adv-x="1040" d="M801 442q0 -65 -19 -122.5t-54.5 -100t-86.5 -67.5t-115 -25q-65 0 -114 23t-81.5 65.5t-48.5 104t-16 139.5q0 64 17.5 119t51.5 95.5t84 63.5t116 23q70 0 120 -24.5t82.5 -67.5t48 -101t15.5 -125zM565 911q-53 0 -102 -11.5t-91 -34.5t-74.5 -57.5t-51.5 -80.5v180 q0 72 31.5 126t81 91.5t109.5 59.5t116 30q47 7 95.5 16.5t92.5 19.5t81.5 20.5t61.5 19.5v146q-46 -12 -97 -24t-103 -23t-102.5 -20.5t-96.5 -16.5q-208 -31 -312 -142.5t-104 -289.5v-527q0 -102 29.5 -180.5t85 -132.5t136.5 -81.5t184 -27.5q107 0 189 38.5t137.5 106 t84.5 159.5t29 200q0 95 -29 174.5t-83 138t-129.5 91t-168.5 32.5z" />
<glyph unicode="&#x432;" horiz-adv-x="1008" d="M365 729v-117q31 7 63 10t64 3q46 0 92 -16t83 -48t60 -79.5t23 -110.5q0 -124 -61.5 -188t-188.5 -64q-52 0 -94.5 14.5t-72.5 42.5t-46.5 68.5t-16.5 91.5v653q0 221 211 221q89 0 143 -51t54 -155q0 -54 -13.5 -94.5t-39.5 -71.5q-25 -30 -49 -49.5t-53.5 -32 t-67.5 -18.5t-90 -9zM100 367q0 -91 28 -164t80 -124.5t125 -79.5t163 -28q91 0 170 23t137 73t91.5 130.5t33.5 195.5q0 69 -27.5 125.5t-76.5 96.5t-115 61.5t-144 21.5h-10q66 6 121 35.5t94.5 74.5t61.5 101t22 115q0 77 -30.5 136t-82 99.5t-119.5 61t-143 20.5 q-379 0 -379 -360v-614z" />
<glyph unicode="&#x433;" horiz-adv-x="909" d="M463 123q-199 0 -199 127q0 42 15.5 70t44 48t69.5 35t92 31q70 22 131 46t106 58t71 82.5t26 118.5q0 244 -352 244q-72 0 -139.5 -19t-120 -57t-84 -95t-31.5 -132h168q6 156 209 156q38 0 68.5 -8.5t53 -23.5t34.5 -35t12 -44q0 -37 -16.5 -62t-44.5 -43t-65 -30.5 t-79 -24.5q-67 -19 -131 -43t-114 -58.5t-80.5 -83.5t-30.5 -118q0 -145 94.5 -218t284.5 -73q381 0 381 342h-174q-2 -51 -13.5 -87.5t-35 -59t-60.5 -33t-90 -10.5z" />
<glyph unicode="&#x434;" horiz-adv-x="1018" d="M733 827q-52 78 -120 117t-156 39q-100 0 -171.5 -43.5t-117 -115.5t-67 -166.5t-21.5 -196.5q0 -95 21 -179t66 -146.5t116 -99t170 -36.5q81 0 150.5 37t129.5 115q0 -103 -14.5 -178t-45.5 -123.5t-79.5 -71.5t-116.5 -23q-45 0 -77.5 7.5t-55.5 25t-38 45t-25 66.5 h-164q10 -77 36 -132.5t70.5 -91t108.5 -52.5t149 -17q125 0 205.5 37.5t127 107.5t65 169.5t18.5 223.5v811h-164v-129zM496 150q-113 0 -175.5 84t-62.5 243q0 63 11.5 126.5t39.5 115t73.5 83.5t113.5 32q65 0 110.5 -32.5t73.5 -84.5t40.5 -115t12.5 -125 q0 -63 -12.5 -122t-40.5 -104.5t-73.5 -73t-110.5 -27.5z" />
<glyph unicode="&#x435;" horiz-adv-x="1030" d="M948 504q0 101 -24 188.5t-74.5 152t-129.5 101.5t-190 37q-110 0 -194 -39t-141 -107t-86 -160.5t-29 -199.5q0 -106 27 -198t82 -160.5t137 -108t192 -39.5q79 0 148.5 24.5t124.5 69t92.5 107.5t52.5 141h-172q-44 -188 -242 -188q-246 0 -264 301h690v78zM526 834 q113 0 179 -68.5t75 -192.5h-518q14 132 80.5 196.5t183.5 64.5z" />
<glyph unicode="&#x436;" horiz-adv-x="1386" d="M217 956h-211l365 -385l-383 -571h200l301 453l115 -111v-342h168v342l117 115l297 -457h203l-385 571l364 385h-211l-330 -348l-55 -67v770h-168v-770l-57 67z" />
<glyph unicode="&#x437;" horiz-adv-x="870" d="M586 502q94 14 141 73t47 144q0 133 -92.5 198.5t-269.5 65.5q-153 0 -240 -71t-104 -218h159q14 84 64 121t129 37q35 0 68.5 -10t59.5 -29.5t42 -47t16 -63.5q0 -35 -12.5 -63.5t-35 -49t-52.5 -31.5t-66 -11h-69v-123h92q168 0 168 -148q0 -75 -54 -116t-151 -41 q-192 0 -207 162h-162q0 -81 29 -139.5t78 -96.5t113.5 -56t136.5 -18q77 0 148 17t126 54t88 95.5t33 141.5q0 45 -18 84.5t-49 69t-71 48t-85 21.5z" />
<glyph unicode="&#x438;" horiz-adv-x="1008" d="M121 956v-614q0 -371 311 -371q216 0 293 179v-150h164v956h-164v-485q0 -156 -57 -242q-71 -104 -197 -104q-102 0 -141 49q-23 26 -33 70t-10 104v608h-166z" />
<glyph unicode="&#x439;" horiz-adv-x="1008" d="M373 1198v-137h262v137h-262zM121 956v-614q0 -371 311 -371q216 0 293 179v-150h164v956h-164v-485q0 -156 -57 -242q-71 -104 -197 -104q-102 0 -141 49q-23 26 -33 70t-10 104v608h-166z" />
<glyph unicode="&#x43a;" horiz-adv-x="926" d="M117 0h164v348l104 98l309 -446h203l-393 569l366 387h-217l-372 -421v776h-164v-1311z" />
<glyph unicode="&#x43b;" horiz-adv-x="913" d="M0 0h184l267 760l278 -760h184l-364 956h-184z" />
<glyph unicode="&#x43c;" horiz-adv-x="1249" d="M80 0h166v815l286 -815h150l268 754l19 61v-815h166v956h-265l-262 -749l-262 749h-266v-956z" />
<glyph unicode="&#x43d;" horiz-adv-x="1008" d="M287 565v391h-164v-956h164v426h438v-426h164v956h-164v-391h-438z" />
<glyph unicode="&#x43e;" horiz-adv-x="1018" d="M76 477q0 -109 27 -202t81 -160.5t135.5 -105.5t190.5 -38t190.5 39.5t135.5 108.5t81 161t27 197q0 108 -26.5 200.5t-80 160.5t-135 106.5t-192.5 38.5q-112 0 -194 -38.5t-135 -106.5t-79 -160.5t-26 -200.5zM510 125q-62 0 -110 24t-81 69t-50 110.5t-17 148.5 q0 84 17 150.5t50 112.5t81 70t110 24q70 0 119 -29.5t80 -78t45 -111t14 -128.5q0 -174 -67 -268t-191 -94z" />
<glyph unicode="&#x43f;" horiz-adv-x="1008" d="M123 0h164v504q0 66 3 110t11 66q12 35 35 63t52.5 48.5t65 31.5t72.5 11q59 0 96.5 -17.5t59 -50.5t29.5 -80.5t8 -107.5v-578h164v610q0 66 -6 116.5t-15 84.5q-16 42 -45.5 74.5t-67.5 54t-82 32.5t-89 11q-48 0 -88 -8.5t-74.5 -26.5t-65.5 -46t-63 -68v122h-164 v-956z" />
<glyph unicode="&#x440;" horiz-adv-x="1018" d="M121 -369h166v469q55 -63 122.5 -96t145.5 -33q67 0 121 21t96 56.5t73 85t51.5 107t30 121.5t9.5 130q0 95 -20 183.5t-64 157t-114.5 109.5t-172.5 41q-48 0 -85.5 -8t-69.5 -25t-61.5 -43t-61.5 -63v112h-166v-1325zM281 477q0 84 16.5 150t47.5 112t75.5 70.5 t101.5 24.5q67 0 113 -30.5t74.5 -80.5t41.5 -114t13 -132q0 -64 -12 -127t-40 -113t-74.5 -81t-115.5 -31q-70 0 -116 31t-74 80.5t-39.5 113t-11.5 127.5z" />
<glyph unicode="&#x441;" horiz-adv-x="997" d="M750 346q-56 -221 -228 -221q-264 0 -264 367q0 68 14.5 130t46 109t81.5 75t122 28q181 0 228 -207h168q-8 82 -40 148t-83.5 112t-121 71t-151.5 25q-114 0 -197.5 -40t-138 -110t-80.5 -165.5t-26 -206.5q0 -108 27.5 -198.5t83 -155t138 -100.5t193.5 -36 q85 0 155.5 28t122.5 78t82.5 119t35.5 150h-168z" />
<glyph unicode="&#x442;" horiz-adv-x="1499" d="M125 956v-956h164v514q0 119 18 162q58 158 219 158q48 0 77 -16t44.5 -46t20 -72.5t4.5 -95.5v-604h164v510q0 62 5.5 108.5t14.5 75.5q11 32 31.5 58t47 44t58 28t64.5 10q162 0 162 -211v-623h163v651q0 165 -71 248.5t-217 83.5q-49 0 -89 -10t-73.5 -28.5t-63.5 -45 t-59 -59.5q-90 143 -242 143q-48 0 -86 -10t-70 -29t-61 -45.5t-61 -58.5v116h-164z" />
<glyph unicode="&#x443;" horiz-adv-x="905" d="M203 956h-187l355 -976q-26 -72 -45.5 -116.5t-34.5 -66.5q-30 -41 -84 -41q-42 0 -98 25v-158q35 -9 70 -12.5t67 -3.5q106 0 172 96q21 28 42 75t46 116l381 1062h-180l-248 -757z" />
<glyph unicode="&#x444;" horiz-adv-x="1241" d="M539 834v-709q-62 0 -115 24.5t-91.5 70.5t-60.5 112t-22 149q0 86 22 151.5t60.5 110.5t91.5 68t115 23zM539 -369h163v340q102 0 187.5 35.5t147.5 102t97 161t35 211.5q0 120 -34.5 213t-96.5 157t-148 97t-188 33v330h-163v-330q-102 0 -188 -33t-148 -97t-96.5 -157 t-34.5 -213q0 -117 34.5 -211.5t96.5 -161t148 -102t188 -35.5v-340zM702 125v709q61 0 113.5 -24.5t91.5 -70.5t61.5 -111.5t22.5 -146.5q0 -85 -22 -151.5t-60.5 -112t-91.5 -69t-115 -23.5z" />
<glyph unicode="&#x445;" horiz-adv-x="874" d="M344 492l-334 -492h201l233 367l230 -367h207l-336 504l319 452h-207l-213 -329l-208 329h-209z" />
<glyph unicode="&#x446;" horiz-adv-x="1092" d="M123 956v-614q0 -371 309 -371q222 0 318 191v-162q48 0 84.5 -2t61 -13.5t37.5 -37t13 -72.5v-76h107v310h-23q-42 0 -69.5 6.5t-43 24t-22 47t-6.5 75.5v694h-164v-485q0 -67 -14 -129.5t-44 -110.5t-78.5 -77t-117.5 -29q-57 0 -93 14.5t-56 43t-27.5 70.5t-7.5 97 v606h-164z" />
<glyph unicode="&#x447;" horiz-adv-x="987" d="M100 956v-305q0 -84 15.5 -151.5t51.5 -115t95.5 -72.5t147.5 -25q40 0 83 11t83 32t72 51.5t50 69.5v-451h168v956h-168v-301q0 -52 -18.5 -93.5t-50 -70t-72.5 -44t-86 -15.5q-205 0 -205 227v297h-166z" />
<glyph unicode="&#x448;" horiz-adv-x="1462" d="M1217 0h165v956h-165v-514q0 -40 -0.5 -63.5t-2 -39.5t-5 -28.5t-9.5 -29.5q-12 -36 -34 -65t-50.5 -49.5t-62.5 -31t-70 -10.5q-42 0 -70.5 11t-45.5 37.5t-24 70t-7 108.5v604h-166v-512q0 -38 -1 -65.5t-3.5 -48t-6.5 -37t-10 -33.5q-9 -30 -29 -55t-47 -42.5 t-59 -27.5t-65 -10q-85 0 -122.5 49.5t-37.5 159.5v622h-166v-651q0 -72 15 -133t49.5 -106t90 -70t136.5 -25q43 0 79 7.5t69 24.5t65.5 45t68.5 69q25 -39 50 -67t53.5 -45.5t62.5 -25.5t76 -8q43 0 78 7.5t67 24.5t64 45t70 69v-117z" />
<glyph unicode="&#x449;" horiz-adv-x="1561" d="M1380 260v696h-166v-567q0 -22 -0.5 -36.5t-2 -26t-4 -21.5t-7.5 -24q-13 -36 -35.5 -65t-52 -49.5t-64.5 -31t-73 -10.5q-40 0 -67 11t-43.5 37.5t-23.5 70t-7 108.5v604h-166v-512q0 -38 -1 -65t-3.5 -47.5t-6.5 -37t-10 -34.5q-10 -29 -30 -54t-47 -43t-59.5 -28 t-66.5 -10q-83 0 -120 49.5t-37 159.5v622h-166v-651q0 -72 15 -133t49.5 -106t89.5 -70t135 -25q44 0 80.5 7.5t70 24.5t66 45t67.5 69q25 -39 50 -67t53.5 -45.5t62.5 -25.5t76 -8q41 0 84.5 15t84.5 40.5t76.5 60.5t59.5 75q1 -11 1.5 -37.5t0.5 -54.5v-49v-21h37 q35 0 64 -3t50 -15t32.5 -37t11.5 -70v-76h106v310h-22q-41 0 -68 6t-43.5 22.5t-23.5 46t-7 76.5z" />
<glyph unicode="&#x44a;" horiz-adv-x="1024" d="M586 733q-106 0 -213 -71v294h-373v-147h209v-496q0 -342 358 -342q97 0 168.5 28.5t119 81.5t70.5 128.5t23 169.5q0 80 -26.5 145t-74.5 111.5t-114.5 72t-146.5 25.5zM776 346q0 -45 -13 -86.5t-38 -72.5t-62 -49.5t-85 -18.5q-205 0 -205 178v231q55 29 108 42.5 t109 13.5q47 0 82 -20.5t58 -54.5t34.5 -76.5t11.5 -86.5z" />
<glyph unicode="&#x44b;" horiz-adv-x="1180" d="M498 733q-110 0 -211 -71v294h-164v-643q0 -342 356 -342q95 0 166.5 29t119.5 82t72.5 128.5t24.5 168.5q0 75 -27.5 140t-76 112.5t-115.5 74.5t-145 27zM690 346q0 -45 -14 -86.5t-39.5 -72.5t-62 -49.5t-82.5 -18.5q-205 0 -205 178v231q52 29 106.5 42.5t110.5 13.5 q46 0 81 -20.5t58 -54.5t35 -76.5t12 -86.5zM944 956v-956h166v956h-166z" />
<glyph unicode="&#x44c;" horiz-adv-x="928" d="M498 733q-110 0 -211 -71v294h-164v-643q0 -342 356 -342q95 0 166.5 29t119.5 82t72.5 128.5t24.5 168.5q0 76 -27.5 141t-76 112t-115.5 74t-145 27zM690 346q0 -45 -14 -86t-39.5 -72.5t-62 -50t-82.5 -18.5q-205 0 -205 178v231q52 29 106.5 42.5t110.5 13.5 q46 0 81 -20.5t58 -54.5t35 -76.5t12 -86.5z" />
<glyph unicode="&#x44d;" horiz-adv-x="989" d="M39 346q7 -87 38.5 -156t83 -118t121.5 -75t154 -26q111 0 194 36t138 101t82 155t27 198q0 111 -25.5 206t-79.5 165.5t-137 110.5t-197 40q-83 0 -153 -25t-122 -71t-84 -112t-40 -148h170q44 207 229 207q110 0 177.5 -70.5t78.5 -198.5h-280v-147h284 q-27 -293 -260 -293q-176 0 -229 221h-170z" />
<glyph unicode="&#x44e;" horiz-adv-x="1389" d="M610 479q0 83 17.5 149t51.5 111.5t82.5 70t110.5 24.5q70 0 119 -28.5t80 -76.5t45 -110.5t14 -131.5q0 -174 -67 -268t-191 -94q-73 0 -123 29.5t-81 79t-44.5 113.5t-13.5 132zM438 401q7 -96 39 -175t87.5 -136t133 -88t174.5 -31q111 0 192.5 39.5t135.5 108.5 t80.5 161.5t26.5 198.5q0 108 -26.5 200t-80.5 159.5t-135.5 106t-192.5 38.5q-93 0 -168.5 -28t-130.5 -81.5t-88.5 -131t-42.5 -177.5h-141v746h-178v-1311h178v401h137z" />
<glyph unicode="&#x44f;" horiz-adv-x="870" d="M451 956q-75 0 -144 -17.5t-121 -54t-83 -92.5t-31 -133q0 -193 180 -272l-240 -387h209l178 346h183v-346h168v956h-299zM582 481h-168q-34 0 -64 12t-52.5 33t-36 50t-13.5 63q0 36 13.5 66.5t36 52.5t52.5 34.5t64 12.5h168v-324z" />
<glyph unicode="&#x451;" horiz-adv-x="915" d="M504 1085l-121 263h-215l201 -263h135zM913 956h-180l-270 -755l-268 755h-193l379 -974q-25 -71 -43.5 -117.5t-36.5 -73.5t-38.5 -38t-49.5 -11q-26 0 -58 3.5t-57 12.5v-145q37 -9 76 -15t68 -6q59 0 101.5 29.5t74 74.5t54 98.5t40.5 101.5z" />
<glyph unicode="&#x454;" horiz-adv-x="1044" d="M504 1085l-121 263h-215l201 -263h135zM948 379q0 30 -7 67.5t-23.5 76.5t-43.5 76.5t-67 66.5t-95 47t-126 18q-37 0 -68 -6.5t-57 -16t-48 -22t-40 -24.5v294h-373v-149h209v-494q0 -78 21 -141.5t64.5 -108t111 -68.5t161.5 -24q102 0 174.5 31.5t118.5 86.5t67 129.5 t21 160.5zM774 346q0 -46 -13 -87.5t-38 -73t-61 -50t-82 -18.5q-34 0 -70.5 7.5t-67 28t-50 55.5t-19.5 89v231q32 16 58.5 27t52 18t51.5 10t55 3q46 0 80.5 -20t57.5 -53.5t34.5 -77t11.5 -89.5z" />
<glyph unicode="&#x455;" horiz-adv-x="868" d="M504 1085l-121 263h-215l201 -263h135zM748 0v956h-297q-106 0 -179 -31t-118 -76.5t-64.5 -97.5t-19.5 -94q0 -52 16 -96.5t43 -79t61.5 -58.5t71.5 -36l-242 -387h209l199 369h156v-369h164zM584 504h-181q-24 0 -49.5 10.5t-47.5 29.5t-36 44.5t-14 56.5q0 33 15.5 62 t39.5 50t53.5 33.5t57.5 12.5h162v-299z" />
<glyph unicode="&#x456;" horiz-adv-x="1028" d="M590 1165l-119 262h-213l201 -262h131zM948 426v78q0 101 -24.5 188t-76 151t-130.5 101t-187 37q-102 0 -185 -35.5t-142 -101.5t-91 -159t-32 -208q0 -116 30 -209.5t86.5 -159.5t137.5 -101.5t184 -35.5q80 0 149 24t123.5 68.5t92 108t53.5 141.5h-172 q-44 -188 -238 -188q-127 0 -195 76t-77 225h694zM780 573h-520q20 132 85.5 197.5t180.5 65.5q56 0 101.5 -18.5t78.5 -52.5t52 -82.5t22 -109.5z" />
<glyph unicode="&#x457;" horiz-adv-x="1180" d="M614 1085l-122 263h-213l200 -263h135zM1108 0v956h-164v-956h164zM860 379q0 30 -7 67.5t-23.5 76.5t-43.5 76.5t-67 66.5t-94.5 47t-126.5 18q-38 0 -69 -6.5t-56.5 -16t-46.5 -22t-39 -24.5v294h-166v-643q0 -78 21 -141.5t64.5 -108t110.5 -68.5t160 -24 q103 0 176 31.5t119 86.5t67 129.5t21 160.5zM688 346q0 -46 -13 -87.5t-38.5 -73t-61.5 -50t-83 -18.5q-35 0 -71.5 7.5t-66 28t-48.5 55.5t-19 89v231q30 16 56.5 27t52 18t52 10t56.5 3q45 0 79.5 -20t58 -53.5t35 -77t11.5 -89.5z" />
<glyph unicode="&#x458;" horiz-adv-x="989" d="M477 1085l-119 263h-213l201 -263h131zM877 461q0 124 -29.5 220.5t-86 163t-138 101.5t-185.5 35q-84 0 -153.5 -24t-120.5 -70t-83 -111.5t-42 -148.5h170q22 100 81.5 153.5t147.5 53.5q110 0 177.5 -70.5t78.5 -200.5h-280v-145h284q-14 -143 -81 -218t-179 -75 q-88 0 -145.5 54.5t-83.5 166.5h-170q5 -39 11.5 -70t15.5 -57t20.5 -47.5t26.5 -42.5q55 -75 138 -116.5t183 -41.5q105 0 187.5 33t139.5 96t86.5 154t29.5 207z" />
<glyph unicode="&#x45a;" horiz-adv-x="1165" d="M655 1407l-120 260h-213l200 -260h133zM1165 0l-471 1311h-190l-504 -1311h195l139 389h502l133 -389h196zM784 539h-395l201 575z" />
<glyph unicode="&#x45b;" horiz-adv-x="1317" d="M707 1401l-121 262h-215l200 -262h136zM1194 0v1311h-250l-575 -977l-64 -137v1114h-184v-1311h250l581 983l58 117v-1100h184z" />
<glyph unicode="&#x45c;" horiz-adv-x="1163" d="M639 1401l-121 262h-213l203 -262h131zM1061 0v164h-760v432h705v164h-705v387h760v164h-940v-1311h940z" />
<glyph unicode="&#x45e;" horiz-adv-x="1274" d="M596 1401l-121 262h-215l201 -262h135zM1204 430q0 74 -25.5 145.5t-78.5 128t-135 91t-195 34.5h-340v482h-430v-156h244v-1155h499q128 0 216 38.5t142.5 100t78.5 138t24 153.5zM1016 420q0 -64 -24 -112t-64.5 -80t-93 -48t-109.5 -16h-295v500h303q63 0 115 -16 t89.5 -47t58 -76.5t20.5 -104.5z" />
<glyph unicode="&#x45f;" horiz-adv-x="1421" d="M754 1401l-121 262h-213l201 -262h133zM1350 668q0 153 -44.5 276.5t-126.5 210.5t-199 133.5t-261 46.5q-147 0 -265.5 -48t-201.5 -138t-127.5 -218t-44.5 -288q0 -154 44 -278t125.5 -211.5t198 -135t261.5 -47.5q154 0 273.5 54t201 147.5t124 221t42.5 274.5z M1163 668q0 -125 -30.5 -223t-88 -165.5t-140.5 -103t-189 -35.5q-102 0 -184.5 35t-140.5 100.5t-89 159.5t-31 211q0 123 30 220t87 164t140 102.5t188 35.5q104 0 186.5 -34.5t141 -99t89.5 -157.5t31 -210z" />
<glyph unicode="&#x490;" horiz-adv-x="1194" d="M754 1401l-121 262h-213l201 -262h133zM1061 0v1311h-453q-97 0 -170.5 -17t-126.5 -45.5t-87.5 -65t-55 -76.5t-29 -79.5t-8.5 -73.5q0 -76 28 -131.5t72 -92.5t98 -56t105 -23q-57 -15 -103.5 -46.5t-83 -70.5t-62 -82.5t-40.5 -84.5l-61 -170q-9 -23 -16.5 -44.5 t-17 -45t-22.5 -49.5t-32 -58h203q15 35 24 60.5t16 47.5t13.5 43.5t15.5 47.5l43 125q18 52 42.5 95.5t59 75t81.5 49t108 17.5h275v-561h184zM877 725h-285q-60 0 -107.5 10.5t-80.5 35t-50.5 66t-17.5 103.5q0 63 17 103t48.5 63.5t76.5 32t102 8.5h297v-422z" />
<glyph unicode="&#x491;" horiz-adv-x="1016" d="M588 1073l-119 262h-213l201 -262h131zM889 0v956h-164v-485q0 -48 -3.5 -84t-10.5 -63.5t-17.5 -50t-25.5 -44.5q-34 -51 -84 -77.5t-113 -26.5q-51 0 -86 12t-56.5 38.5t-31.5 69.5t-10 105v606h-166v-614q0 -81 14.5 -149.5t49.5 -117.5t94.5 -76.5t150.5 -27.5 q103 0 179 43.5t116 132.5v-147h164z" />
<glyph unicode="&#x2013;" horiz-adv-x="997" d="M2 410h991v151h-991v-151z" />
<glyph unicode="&#x2014;" horiz-adv-x="1790" d="M0 410h1790v151h-1790v-151z" />
<glyph unicode="&#x2018;" horiz-adv-x="397" d="M297 1067h-90q2 40 6.5 70t13.5 47q11 18 28 31.5t42 21.5v96q-197 -36 -197 -284v-185h197v203z" />
<glyph unicode="&#x2019;" horiz-adv-x="397" d="M100 1098h95q-4 -42 -10 -71t-17 -46q-9 -17 -25.5 -30t-42.5 -21v-96q197 42 197 282v191h-197v-209z" />
<glyph unicode="&#x201a;" horiz-adv-x="496" d="M162 209h200v-189q0 -247 -200 -286v96q26 9 43 22.5t26 30.5q11 19 17.5 47t9.5 70h-96v209z" />
<glyph unicode="&#x201c;" horiz-adv-x="578" d="M342 0h94q-3 -40 -10 -68t-16 -47q-19 -35 -68 -53v-94q195 36 195 282v187h-195v-207zM57 0h93q-2 -42 -8 -70t-15 -47q-9 -17 -27 -29.5t-43 -21.5v-94q199 36 199 282v187h-199v-207z" />
<glyph unicode="&#x201d;" horiz-adv-x="598" d="M256 1067h-94q3 85 24 119q10 17 27 30t43 21v96q-199 -36 -199 -284v-185h199v203zM537 1067h-91q4 40 9 70t14 47q22 38 68 53v96q-97 -18 -146 -89.5t-49 -194.5v-185h195v203z" />
<glyph unicode="&#x201e;" horiz-adv-x="578" d="M342 0h94q-3 -40 -10 -68t-16 -47q-19 -35 -68 -53v-94q195 36 195 282v187h-195v-207zM57 0h93q-2 -42 -8 -70t-15 -47q-9 -17 -27 -29.5t-43 -21.5v-94q199 36 199 282v187h-199v-207z" />
<glyph unicode="&#x2020;" horiz-adv-x="997" d="M66 930h344v377h163v-377h357v-148h-357v-1052h-163v1052h-344v148z" />
<glyph unicode="&#x2022;" horiz-adv-x="1075" d="M352 512q0 -37 14.5 -68.5t38.5 -54.5t55.5 -36t65.5 -13q36 0 68 13.5t55.5 37t37 55t13.5 66.5t-14 66.5t-37.5 55t-55 37t-67.5 13.5q-34 0 -65.5 -13.5t-55.5 -37t-38.5 -55t-14.5 -66.5z" />
<glyph unicode="&#x2026;" horiz-adv-x="1790" d="M1395 0h194v205h-194v-205zM799 0h194v205h-194v-205zM203 0h194v205h-194v-205z" />
<glyph unicode="&#x20ac;" horiz-adv-x="1022" d="M979 1165q-21 29 -55 54.5t-78 44.5t-97.5 30t-115.5 11q-105 0 -187 -32.5t-140.5 -94t-93.5 -150.5t-46 -201h-94l-45 -135h133v-131h-90l-45 -131h145q29 -227 145 -343t312 -116q59 0 110 12.5t90 29t63 32t30 21.5v184q-12 -19 -42 -42t-72 -43.5t-92 -34 t-102 -13.5t-98.5 22.5t-82.5 63.5t-59 99t-28 128h385l45 131h-440v131h487l43 135h-524q5 60 22.5 119t51.5 106t85.5 76t123.5 29q59 0 106 -13.5t84 -36t63.5 -52.5t43.5 -64z" />
<glyph unicode="&#x2116;" horiz-adv-x="1776" d="M1221 598h469v109h-469v-109zM1221 393h469v105h-469v-105zM1456 1245q33 0 60 -13.5t46 -36t29.5 -51t10.5 -59.5q0 -30 -11 -59t-30.5 -51t-46 -35.5t-58.5 -13.5t-59.5 13t-47.5 35t-31 51t-11 60q0 32 11 61t30.5 51t47 35t60.5 13zM1456 1335q-54 0 -97 -21t-74 -56 t-47.5 -80t-16.5 -93t16.5 -92t46.5 -78t72.5 -54.5t93.5 -20.5t95 19.5t76.5 52.5t50.5 77.5t18 95.5q0 48 -18 93.5t-49.5 80t-74.5 55.5t-92 21zM117 0h180v1038l600 -1038h201v1311h-180v-1030l-601 1030h-200v-1311z" />
<glyph unicode="&#x2122;" horiz-adv-x="1790" d="M94 1307v-113h236v-672h137v672h227v113h-600zM1444 1307l-209 -545l-199 545h-209v-785h129v660l240 -660h78l248 660v-660h127v785h-205z" />
<glyph unicode="&#x25fc;" horiz-adv-x="955" d="M0 955h955v-955h-955v955z" />
</font>
</defs>
</svg>
